<?xml version="1.0" encoding="UTF-8"?>
<svg version="1.1" xmlns="http://www.w3.org/2000/svg" width="1366" height="768">
<path d="M0 0 C450.78 0 901.56 0 1366 0 C1366 253.44 1366 506.88 1366 768 C915.22 768 464.44 768 0 768 C0 514.56 0 261.12 0 0 Z " fill="#3E5172" transform="translate(0,0)"/>
<path d="M0 0 C5.93406783 3.24850992 8.99247857 7.69087012 12.1875 13.5 C14.06354976 21.00419903 12.58667275 27.35344799 8.8125 34 C3.83339742 40.01273907 -2.48540654 42.52231052 -10.0625 43.5 C-16.16667575 43.21161374 -21.80233164 40.39007611 -26.0859375 36.09765625 C-30.42896886 30.57882859 -32.70926161 25.24208812 -32.50390625 18.08203125 C-31.55183976 11.81719868 -27.90534732 7.04386913 -23.1875 3 C-15.53624197 -2.50890578 -8.76745705 -3.94668006 0 0 Z " fill="#B6D4E4" transform="translate(1018.1875,151)"/>
<path d="M0 0 C5.9881615 2.93640144 10.91705216 8.26858294 13.375 14.5 C14.27663201 21.83886522 13.94659354 28.48969908 9.375 34.5 C4.34305449 39.96788138 -1.50343187 43.53555984 -9.0625 43.9375 C-15.28133463 43.70442613 -19.69470709 41.12320085 -24.375 37.1875 C-29.89759703 30.59106466 -31.3626594 26.32332198 -31.07421875 17.66015625 C-30.21080986 11.58626243 -27.16798531 7.69511087 -22.6875 3.6875 C-15.14071653 -1.70305962 -8.8245601 -3.38249748 0 0 Z " fill="#B7D4E5" transform="translate(495.625,150.5)"/>
<path d="M0 0 C4.58119304 3.50899892 8.50088829 7.50355315 9.9375 13.25 C10.9528809 20.9202422 9.45308858 26.93905693 4.9375 33.25 C-0.24664091 38.40220575 -5.56504219 40.84196326 -12.8125 41.6875 C-19.01869129 41.48538266 -24.71539998 38.68719073 -28.99609375 34.2421875 C-34.52568731 27.05504191 -35.10564507 20.21111289 -34.0625 11.25 C-32.58851694 7.95521434 -30.67698825 5.70964384 -28.0625 3.25 C-27.54816406 2.74855469 -27.03382812 2.24710938 -26.50390625 1.73046875 C-18.34793028 -5.6205018 -9.19023908 -5.25156519 0 0 Z " fill="#B7D4E5" transform="translate(1322.0625,152.75)"/>
<path d="M0 0 C4.98151538 3.25749367 9.87407283 8.47353778 11.14453125 14.40234375 C12.13741454 22.08339919 10.66940211 28.07842786 6.14453125 34.40234375 C0.9300601 39.58469291 -4.41253447 42.06915656 -11.73046875 42.77734375 C-17.71689308 42.60564898 -22.16676157 39.86077268 -26.60546875 36.02734375 C-27.34796875 35.16109375 -28.09046875 34.29484375 -28.85546875 33.40234375 C-29.61859375 32.59796875 -30.38171875 31.79359375 -31.16796875 30.96484375 C-34.08743267 24.80153104 -34.27700958 17.39020606 -31.97265625 10.92578125 C-28.75861421 5.41295417 -23.966379 1.20339705 -18.48046875 -1.97265625 C-11.85292628 -3.55064255 -6.13095662 -3.01716079 0 0 Z " fill="#B7D5E5" transform="translate(196.85546875,151.59765625)"/>
<path d="M0 0 C5.70105836 3.34937178 9.55167053 8.18936684 11.625 14.4375 C12.78295744 22.37255572 11.32075213 28.91758351 6.625 35.4375 C1.73208361 40.18552365 -3.97363727 42.72089846 -10.8125 42.75 C-17.5072493 42.60641288 -21.96491668 40.40366644 -26.984375 35.92578125 C-31.43696363 31.16051083 -32.66110927 26.39159704 -32.9375 19.9375 C-32.7201558 13.87289577 -31.57637197 9.85999681 -27.375 5.4375 C-19.60618167 -1.45468125 -10.04295702 -4.54555502 0 0 Z " fill="#B7D5E5" transform="translate(168.375,26.5625)"/>
<path d="M0 0 C5.65319631 3.85057334 10.01905151 8.35144162 12 15 C13.1476803 21.70675672 11.44318039 27.22760934 8 33 C4.09421147 37.75028335 -0.41560902 41.51779494 -6.61328125 42.3515625 C-13.78780643 42.56987447 -19.79350672 41.955897 -25.19921875 36.97265625 C-30.57728644 31.16975018 -33.54485458 26.43069207 -33.3046875 18.3984375 C-32.35503633 10.92297832 -28.74136274 5.98394982 -22.9375 1.375 C-16.11863642 -3.46419351 -7.58242545 -3.17083246 0 0 Z " fill="#B7D4E5" transform="translate(1348,276)"/>
<path d="M0 0 C5.63418962 3.83762727 10.08156144 8.34541624 12 15 C13.05196633 21.87065509 11.9213473 27.27175738 8 33 C3.78029578 38.01802664 -0.54326786 41.61160313 -7.12890625 42.3515625 C-14.90574448 42.54620464 -19.80371712 41.89895424 -25.6875 36.5625 C-31.62701394 29.98087644 -32.42709812 25.37122721 -32.3359375 16.51953125 C-31.75994278 10.48498193 -29.4486652 7.16759273 -24.9921875 3.22265625 C-17.33223802 -2.7837617 -9.13415289 -3.81973666 0 0 Z " fill="#B7D5E5" transform="translate(1229,495)"/>
<path d="M0 0 C6.03842313 2.8355333 10.78537057 7.18849552 13.9453125 13.1328125 C15.81622585 18.59627754 15.68447093 24.50183542 13.7265625 29.91015625 C11.42347376 34.32683908 8.93954896 37.57596819 4.6796875 40.27734375 C3.8546875 40.85484375 3.0296875 41.43234375 2.1796875 42.02734375 C-3.84994718 44.18078471 -10.68581187 44.63592705 -16.765625 42.36328125 C-22.31237197 39.09428589 -26.89143701 34.29626766 -29.3203125 28.27734375 C-30.07894435 21.60844049 -30.22266288 14.89809993 -26.7265625 8.9921875 C-19.97996082 0.76508156 -10.40134554 -3.2394763 0 0 Z " fill="#B7D5E5" transform="translate(403.3203125,493.72265625)"/>
<path d="M0 0 C5.28671997 3.05672492 9.1153266 7.7281625 12.1875 12.9375 C13.86664439 20.58693555 12.79129337 26.77758967 8.75 33.5 C5.28915693 37.47996953 1.79030357 40.81989881 -3.25 42.5 C-17.05460385 43.45839706 -17.05460385 43.45839706 -22.25 39.5 C-28.2550098 33.59720313 -31.51197013 28.80911439 -31.6875 20.1875 C-31.58937371 13.99152545 -30.39712355 10.10285141 -26.25 5.5 C-23.8125 3.1875 -23.8125 3.1875 -21.25 1.5 C-20.38375 0.9225 -19.5175 0.345 -18.625 -0.25 C-12.54202338 -2.5029543 -6.00968974 -2.63070076 0 0 Z " fill="#B7D5E5" transform="translate(342.25,59.5)"/>
<path d="M0 0 C5.28671997 3.05672492 9.1153266 7.7281625 12.1875 12.9375 C13.72181153 19.92714141 13.00642677 26.12690727 9.75 32.5 C6.49298172 37.4416829 2.38076177 40.62307941 -3.25 42.5 C-17.08897896 43.46078359 -17.08897896 43.46078359 -22.25 39.5 C-28.29836398 33.44035176 -31.37339117 29.61293649 -31.6875 20.875 C-31.62007802 14.92960734 -30.93615328 11.08247542 -27.20703125 6.41015625 C-19.45825382 -1.15302172 -10.36352902 -4.44151244 0 0 Z " fill="#B7D5E5" transform="translate(223.25,278.5)"/>
<path d="M0 0 C4.67701166 3.17736864 8.29814899 6.49401142 10 12 C10.9389556 20.97876291 10.26507915 27.64468994 4.609375 34.74609375 C0.65384282 39.08676986 -2.84976109 40.71523264 -8.765625 41.25 C-15.32180411 41.51356499 -20.74992171 41.20709398 -26 37 C-31.79404758 30.80502502 -34.53212902 25.07110873 -34.3046875 16.5546875 C-33.44299057 9.32969015 -29.45403653 4.86192011 -23.9375 0.41015625 C-16.70555454 -4.85341696 -7.67143604 -4.1716363 0 0 Z " fill="#B7D5E5" transform="translate(1167,61)"/>
<path d="M0 0 C5.79959382 3.15375061 9.40440726 6.89623579 11.91796875 13.04296875 C12.31640625 16.48046875 12.31640625 16.48046875 12.29296875 20.04296875 C12.30457031 21.80640625 12.30457031 21.80640625 12.31640625 23.60546875 C11.57916513 29.96598037 8.63658459 33.8860929 3.91796875 38.04296875 C-2.78302992 42.5103012 -9.16538842 43.00617558 -17.08203125 42.04296875 C-24.13908462 39.10845303 -27.84142877 34.30011345 -31.33203125 27.66796875 C-33.23700911 21.00054624 -32.12266379 15.60574006 -29.4140625 9.375 C-23.27814084 -1.36736137 -11.08303577 -4.71194934 0 0 Z " fill="#B7D5E5" transform="translate(1046.08203125,278.95703125)"/>
<path d="M0 0 C4.80841875 3.29166921 8.82681994 7.63043394 10.74609375 13.1953125 C11.98804739 20.7107243 11.04719716 26.69371411 6.69921875 32.9921875 C2.49628078 37.73310153 -1.98402211 40.65595017 -8.28515625 41.6953125 C-14.70193326 41.95457622 -20.08517049 41.15262582 -25.25390625 37.1953125 C-29.42054072 33.18678692 -32.92049736 29.1262093 -33.58984375 23.2421875 C-33.67043961 16.43989664 -33.7045526 10.63774634 -29.25390625 5.1953125 C-20.81144116 -2.68314658 -10.57240474 -6.08391902 0 0 Z " fill="#B7D5E5" transform="translate(526.25390625,276.8046875)"/>
<path d="M0 0 C5.38344595 3.1868179 9.15388989 8.81088473 11.5625 14.5 C12.8326681 22.1210086 10.82148666 28.18456332 6.5625 34.5 C2.37536962 39.43019859 -3.36989974 41.91586126 -9.66796875 42.8203125 C-15.38081098 43.11529575 -19.78795033 41.84767576 -24.4375 38.5 C-29.17218111 34.06976623 -32.03108907 29.77082646 -32.84375 23.23046875 C-33.02864642 16.24292475 -32.9786432 11.425497 -28.16015625 6.1171875 C-27.30744141 5.31667969 -27.30744141 5.31667969 -26.4375 4.5 C-25.89996094 3.98695313 -25.36242188 3.47390625 -24.80859375 2.9453125 C-18.26017942 -2.86455886 -8.00289501 -3.52065343 0 0 Z " fill="#B7D5E5" transform="translate(1177.4375,239.5)"/>
<path d="M0 0 C6.03213067 2.71854245 10.12982215 7.31121904 12.95703125 13.22265625 C14.37547347 20.31486737 14.24116092 26.95394569 10.58203125 33.34765625 C5.71522964 39.92904921 0.25234925 42.37104612 -7.640625 43.73046875 C-14.33359323 44.27346088 -19.34265188 41.55494336 -24.41796875 37.34765625 C-29.52487322 31.14224143 -30.83847161 25.3697024 -30.76171875 17.42578125 C-30.08451304 11.36171194 -26.83182384 7.40228095 -22.35546875 3.47265625 C-15.52392118 -1.46931433 -8.2437372 -2.22407773 0 0 Z " fill="#B7D5E5" transform="translate(352.41796875,238.65234375)"/>
<path d="M0 0 C5.77289305 2.60171002 10.00804662 7.04875696 12.72265625 12.73828125 C14.63830023 18.55487296 14.53640415 25.04310085 12.01953125 30.66015625 C8.30287581 37.04652194 2.59664821 41.17070616 -4.41796875 43.34765625 C-10.98534769 44.30960506 -15.92755591 43.01997186 -21.41796875 39.34765625 C-26.66190847 35.05716012 -29.8627833 30.16712654 -30.83984375 23.4453125 C-31.15849204 16.42619867 -30.12156436 11.64073643 -25.41796875 6.34765625 C-18.16090521 -0.90940729 -10.01931423 -2.70311063 0 0 Z " fill="#B7D5E5" transform="translate(376.41796875,369.65234375)"/>
<path d="M0 0 C5.70944836 3.53122184 9.92523635 8.45941613 11.86328125 14.953125 C13.44298739 22.82068109 11.59919386 28.31714325 7.26171875 34.9375 C3.34052426 39.46195518 -1.93531096 42.29184646 -7.83203125 43.29296875 C-14.29176829 43.71376148 -19.49845532 41.64978345 -24.73828125 37.9375 C-31.10988817 31.30793328 -32.20307042 25.53864054 -32.15625 16.46484375 C-31.53939546 11.25905265 -29.40033221 8.51817205 -25.73828125 4.9375 C-25.05765625 4.15375 -24.37703125 3.37 -23.67578125 2.5625 C-17.45004669 -2.65908382 -7.33806254 -2.84729388 0 0 Z " fill="#B7D5E5" transform="translate(1295.73828125,20.0625)"/>
<path d="M0 0 C5.69984335 3.54678279 9.91673172 8.46100328 11.85546875 14.95703125 C13.43644544 22.83091515 11.58523526 28.31298719 7.25390625 34.94140625 C2.59865993 40.44902161 -3.69215824 42.54735005 -10.62109375 43.44140625 C-16.75444817 43.15164147 -22.4495507 40.32609943 -26.6796875 35.93359375 C-32.20928106 28.74644816 -32.78923882 21.90251914 -31.74609375 12.94140625 C-30.27232817 9.64710671 -28.3630597 7.3981498 -25.74609375 4.94140625 C-25.20855469 4.42835938 -24.67101563 3.9153125 -24.1171875 3.38671875 C-17.66096146 -2.34136149 -8.00584463 -3.08617908 0 0 Z " fill="#B7D5E5" transform="translate(1200.74609375,370.05859375)"/>
<path d="M0 0 C6.46464183 3.04146006 10.91418615 7.62491841 13.87890625 14.11328125 C15.88362894 20.02081514 15.09285621 24.85039342 12.55078125 30.46484375 C9.27427597 36.39947163 5.52523891 40.09099063 -0.76171875 42.65234375 C-7.68305132 43.84567695 -13.25561739 44.13705329 -19.53125 40.6171875 C-23.8342448 37.50997231 -27.45871042 33.24500484 -29.38671875 28.27734375 C-30.19583886 21.52430281 -30.90536578 14.30977121 -26.69921875 8.58984375 C-19.18074697 0.43451318 -11.13911387 -3.37272679 0 0 Z " fill="#B7D5E5" transform="translate(988.38671875,25.72265625)"/>
<path d="M0 0 C6.03213067 2.71854245 10.12982215 7.31121904 12.95703125 13.22265625 C14.37398438 20.30742188 14.24884503 26.96323934 10.58203125 33.34765625 C5.99118564 39.40805826 0.86465572 42.60623527 -6.64453125 43.66015625 C-12.36188968 43.97451273 -16.7850325 42.72819307 -21.41796875 39.34765625 C-26.30824496 34.73654935 -29.89479613 30.34028939 -30.7890625 23.515625 C-30.94739021 16.40950471 -30.20691493 11.73678367 -25.41796875 6.34765625 C-18.16090521 -0.90940729 -10.01931423 -2.70311063 0 0 Z " fill="#B7D5E5" transform="translate(471.41796875,19.65234375)"/>
<path d="M0 0 C4.34731225 2.2146685 7.48432837 4.80721395 10 9 C11.41547619 13.76695852 11.47626057 17.74021687 9.4375 22.3125 C6.92782409 26.61235428 3.94128379 29.13738317 -0.91796875 30.5625 C-6.00621773 31.50731993 -9.4504212 30.624757 -14 28 C-16.3125 25.5625 -16.3125 25.5625 -18 23 C-18.4125 22.401875 -18.825 21.80375 -19.25 21.1875 C-20.41984473 17.77545286 -20.55172169 14.52829427 -20 11 C-15.52702891 2.38538902 -9.42771219 -1.14468006 0 0 Z " fill="#B5D3E3" transform="translate(1326,345)"/>
<path d="M0 0 C6.09354906 0.71091406 9.93514355 4.2256437 13.75 8.875 C15.34324377 12.95768715 15.44682966 16.33520035 14.05859375 20.5234375 C11.91534756 25.34798333 9.6249702 28.09376433 4.75 30.4375 C0.37523017 31.72052822 -2.60501913 31.63099426 -7 30.3125 C-10.41428997 28.34271732 -12.09738232 26.70628981 -14.25 23.4375 C-14.6625 22.839375 -15.075 22.24125 -15.5 21.625 C-16.66984473 18.21295286 -16.80172169 14.96579427 -16.25 11.4375 C-13.76419437 6.65002249 -10.49063391 2.73375356 -5.375 0.6875 C-3.5811086 0.47645395 -1.79011642 0.24097721 0 0 Z " fill="#B5D2E3" transform="translate(1203.25,563.5625)"/>
<path d="M0 0 C4.07334414 1.75002934 6.44438921 4.19346821 8.9375 7.8125 C10.53807791 12.61423374 11.04379248 16.50649573 9.0859375 21.18359375 C6.50918078 25.71369831 4.13312994 28.45037587 -1 30 C-5.98182348 30.64202945 -9.77818207 30.56565645 -14.375 28.4375 C-18.5827264 24.53032549 -21.16432477 20.7894382 -21.5 14.9375 C-20.77938648 9.26266856 -18.60654291 6.4152878 -14.375 2.6875 C-9.72656031 -0.61533873 -5.59936097 -0.73764037 0 0 Z " fill="#B6D3E4" transform="translate(970,96)"/>
<path d="M0 0 C4.85857844 2.29678253 7.63468979 5.17840611 10 10 C10.82978405 14.7162216 10.49402523 18.03024677 8.3125 22.3125 C4.0516206 27.26433281 0.78928888 29.77136976 -5.8125 30.3125 C-10.25394397 30.22302036 -12.62941458 28.99607593 -16 26 C-19.02972977 22.31476141 -20.81369245 19.17994781 -21.5625 14.4375 C-20.64458822 8.8280391 -18.53355002 5.4587427 -14.4375 1.5625 C-9.55997025 -0.65455898 -5.27273777 -0.77008689 0 0 Z " fill="#B6D4E4" transform="translate(1299,221)"/>
<path d="M0 0 C4.9710149 2.53240382 8.49430567 5.98861134 11 11 C11.61658401 16.96031213 10.88480505 20.39060728 7.40234375 25.30078125 C4.70232874 28.57238718 2.69600368 29.79481732 -1.55078125 30.30859375 C-6.04928919 30.50947435 -9.27861875 30.31478455 -13.4375 28.5 C-17.7027117 24.33881785 -19.68673669 20.271159 -20.5 14.375 C-19.71639852 9.08569002 -17.32571885 6.16789518 -13.375 2.6875 C-8.96198422 -0.44806384 -5.32248886 -0.64623811 0 0 Z " fill="#B6D3E4" transform="translate(1097,269)"/>
<path d="M0 0 C4.27350258 1.9637187 7.24248539 5.70385318 9 10 C9.7801303 14.10553422 9.76868011 17.47584734 7.86328125 21.25390625 C4.88943917 25.49221662 2.02732678 28.35842391 -3 30 C-7.98334179 30.6342435 -11.282378 29.92616857 -15.42578125 27.25390625 C-19.40566616 24.08382422 -21.14868634 20.47007284 -22 15.5625 C-22.35638523 10.52219466 -20.99722238 8.02258793 -18 4 C-12.55900557 -1.24227985 -7.21870756 -1.05329569 0 0 Z " fill="#B6D3E4" transform="translate(1071,142)"/>
<path d="M0 0 C4.95520521 2.57289501 8.49116963 5.98233926 11 11 C11.56735892 15.65048294 11.4598631 19.09730577 9.3125 23.3125 C5.27567887 28.00394078 2.02052143 30.70956525 -4.25 31.3125 C-10.12238983 30.82313418 -13.42066471 28.66032684 -17.4375 24.4375 C-19.65632222 19.55609111 -19.76276171 15.27642381 -19 10 C-16.9489215 5.4876273 -14.27536813 2.91201845 -9.92578125 0.6953125 C-6.34388136 -0.59794953 -3.81280898 -0.48416622 0 0 Z " fill="#B6D3E4" transform="translate(1346,10)"/>
<path d="M0 0 C4.9710149 2.53240382 8.49430567 5.98861134 11 11 C11.61143762 16.91056366 10.91805264 20.4158042 7.47265625 25.30078125 C4.6153774 28.59764146 1.89202953 29.75616585 -2.39453125 30.30859375 C-6.62421012 30.51785822 -9.4708229 30.23518982 -13.375 28.5 C-17.71013753 24.37129759 -19.68355438 20.29423075 -20.5 14.375 C-19.71639852 9.08569002 -17.32571885 6.16789518 -13.375 2.6875 C-8.96198422 -0.44806384 -5.32248886 -0.64623811 0 0 Z " fill="#B6D3E4" transform="translate(1216,50)"/>
<path d="M0 0 C4.54462891 2.27231445 7.85816742 4.98971411 9.6875 9.8125 C10.36673321 14.56713249 10.60719581 17.85307458 8.3125 22.1875 C5.25968464 25.90038355 2.59200472 28.46933176 -2 30 C-6.55962546 30.37373979 -9.03477922 30.45422154 -13.1875 28.5 C-17.71328177 24.47708287 -20.55069753 20.51609381 -21.625 14.5 C-20.62318637 8.88984365 -18.00007749 4.88242588 -13.875 1 C-9.26168861 -0.60463005 -4.82241954 -0.64440555 0 0 Z " fill="#B6D4E4" transform="translate(1180,440)"/>
<path d="M0 0 C3.75889196 1.66353976 5.59377806 4.42342693 7.9375 7.75 C9.36771476 12.12477454 9.17439441 15.57221568 8 20 C5.86994717 23.96630527 3.77239037 26.58023248 0 29 C-4.67476717 30.21883368 -8.78555886 30.40481371 -13.375 28.875 C-16.22828299 26.83694072 -18.0258006 24.89079197 -20 22 C-20.4125 21.401875 -20.825 20.80375 -21.25 20.1875 C-22.41984473 16.77545286 -22.55172169 13.52829427 -22 10 C-16.94960881 0.27332067 -10.38439126 -1.50214465 0 0 Z " fill="#B6D4E4" transform="translate(1027,349)"/>
<path d="M0 0 C3.75889196 1.66353976 5.59377806 4.42342693 7.9375 7.75 C9.36771476 12.12477454 9.17439441 15.57221568 8 20 C5.59155787 24.48468534 3.03095768 27.8503264 -1.8125 29.6875 C-6.45519515 30.35074216 -9.81886106 30.56694669 -14.125 28.5 C-18.16396262 24.98785859 -21.29871267 21.25641249 -22.44921875 15.9140625 C-22.73216465 10.82103621 -21.20919421 7.81633906 -18 4 C-12.51915714 -1.22303318 -7.24605308 -1.0481712 0 0 Z " fill="#B6D4E4" transform="translate(1146,130)"/>
<path d="M0 0 C4.60490643 2.31237758 7.31504439 5.481108 9 10.34765625 C9.84641454 16.27255801 8.92312973 19.75626201 5.47265625 24.6484375 C2.01613963 28.63672591 -1.799205 29.5529121 -6.875 29.97265625 C-12.10185562 29.82264076 -14.82496073 27.85549902 -18.43359375 24.203125 C-21.58113482 20.47474093 -22.18609976 17.76270237 -22 12.97265625 C-21.29416417 7.87873262 -18.8812838 4.62902265 -15 1.34765625 C-10.326712 -1.4809128 -5.17554227 -1.68811633 0 0 Z " fill="#B6D4E4" transform="translate(1281,485.65234375)"/>
<path d="M0 0 C4.50819562 2.04917983 7.1025503 4.72127581 9.296875 9.08203125 C10.55305223 12.50860359 10.88484481 15.50053857 10 19 C7.46522404 23.69901989 4.10044037 28.10216172 -1 30 C-5.60643682 30.67640987 -8.99653077 30.46313964 -13.25 28.5 C-17.37168131 24.75301699 -20.66927367 21.19866656 -21.26171875 15.46875 C-20.94284475 9.41925467 -19.41422275 6.10625372 -15 2 C-10.3075231 -0.90153156 -5.3424952 -0.61256476 0 0 Z " fill="#B6D4E4" transform="translate(998,221)"/>
<path d="M0 0 C4.35219132 1.86869181 7.15690011 4.04201931 9.2265625 8.34765625 C10.85423325 13.53585676 10.61288854 17.78790991 8.2265625 22.65234375 C4.14650675 27.26924894 0.11862752 30.02244413 -6.0625 30.49609375 C-10.6625008 30.1515244 -14.38936705 28.20762081 -17.5390625 24.86328125 C-20.74891527 20.09371128 -21.05219307 14.91915109 -20.1484375 9.33984375 C-16.08658552 0.90368964 -8.99919661 -2.76520769 0 0 Z " fill="#B6D4E4" transform="translate(504.1484375,345.66015625)"/>
<path d="M0 0 C4.33885052 1.77019075 7.24463199 3.96136899 10 7.75 C11.29619701 11.96264029 11.71974997 15.63455996 11 20 C8.50586109 24.64425866 6.05874933 28.31375022 1 30 C-4.26721247 30.50439554 -8.65121655 30.62622089 -13.5 28.375 C-17.76656985 24.32175864 -19.16718524 20.80740733 -19.4375 15 C-19.27412738 10.26929705 -18.24047455 7.58157713 -15 4 C-10.28376349 -0.16783691 -6.0836483 -1.18178979 0 0 Z " fill="#B6D4E4" transform="translate(274,269)"/>
<path d="M0 0 C4.2652117 4.16118215 6.24923669 8.228841 7.0625 14.125 C6.28226926 19.39155748 3.89005916 22.30195881 0 25.8125 C-4.2229312 28.73606775 -8.42282669 29.15781836 -13.4375 28.5 C-18.91334851 25.92313012 -22.02017212 21.93898773 -24.4375 16.5 C-25.25772232 11.906755 -24.51823908 9.19601593 -22.25 5.25 C-16.81113247 -2.52411536 -8.6314805 -3.76646422 0 0 Z " fill="#B6D4E4" transform="translate(1278.4375,91.5)"/>
<path d="M0 0 C4.33535115 2.3096957 7.14863393 5.45729622 9 10 C9.72427331 14.63198048 9.44977085 18.11711647 7.3125 22.3125 C3.27567887 27.00394078 0.02052143 29.70956525 -6.25 30.3125 C-12.12238983 29.82313418 -15.42066471 27.66032684 -19.4375 23.4375 C-21.65308539 18.56321214 -21.77631226 14.2695135 -21 9 C-16.66985632 0.01896126 -9.29147407 -1.5362887 0 0 Z " fill="#B6D4E4" transform="translate(1253,361)"/>
<path d="M0 0 C4.31585512 3.04071611 7.22997247 6.07960956 8.19921875 11.40625 C8.44605336 17.05791147 7.58412757 20.57085471 3.75 24.9375 C-0.67605043 28.82705947 -4.93526458 29.39740304 -10.671875 29.35546875 C-14.95352792 28.66132199 -17.57911891 26.24575045 -20.25 22.9375 C-22.9835626 18.47940797 -22.89360259 14.02196043 -22.25 8.9375 C-17.62881319 -0.66034953 -9.6758966 -3.16327389 0 0 Z " fill="#B7D5E5" transform="translate(149.25,97.0625)"/>
<path d="M0 0 C4.33535115 2.3096957 7.14863393 5.45729622 9 10 C9.72427331 14.63198048 9.44977085 18.11711647 7.3125 22.3125 C3.27567887 27.00394078 0.02052143 29.70956525 -6.25 30.3125 C-12.12238983 29.82313418 -15.42066471 27.66032684 -19.4375 23.4375 C-21.65308539 18.56321214 -21.77631226 14.2695135 -21 9 C-16.66985632 0.01896126 -9.29147407 -1.5362887 0 0 Z " fill="#B7D4E5" transform="translate(204,349)"/>
<path d="M0 0 C4.85857844 2.29678253 7.63468979 5.17840611 10 10 C10.83512265 14.74656444 10.51132177 18.03214093 8.25 22.3125 C2.20512821 29.53276353 2.20512821 29.53276353 -2 30 C-6.68803083 30.378067 -9.02609673 30.48695164 -13.25 28.375 C-17.06790216 25.07772086 -19.6296256 22.53593084 -20.3828125 17.37890625 C-20.57035762 12.77154789 -20.33465135 9.69409169 -18.3125 5.5 C-12.87371184 -0.37977098 -7.80294563 -1.02126788 0 0 Z " fill="#B7D5E5" transform="translate(175,221)"/>
<path d="M0 0 C4.33535115 2.3096957 7.14863393 5.45729622 9 10 C9.72427331 14.63198048 9.44977085 18.11711647 7.3125 22.3125 C3.27567887 27.00394078 0.02052143 29.70956525 -6.25 30.3125 C-12.12238983 29.82313418 -15.42066471 27.66032684 -19.4375 23.4375 C-21.65308539 18.56321214 -21.77631226 14.2695135 -21 9 C-16.66985632 0.01896126 -9.29147407 -1.5362887 0 0 Z " fill="#B7D4E5" transform="translate(323,130)"/>
<path d="M0 0 C4.69081787 1.84049451 7.38946685 3.98880447 10 8.3125 C11.52216835 13.92549581 12.0812883 17.95327572 9.25 23.3125 C5.89165408 27.32385763 3.07476523 29.67717611 -2.26953125 30.23828125 C-8.03025737 30.40641304 -11.57920613 30.09732115 -16 26 C-19.5383686 21.04628396 -19.85373486 15.88981129 -19 10 C-15.13137756 1.96516877 -8.71635828 -1.67848791 0 0 Z " fill="#B6D4E4" transform="translate(393,50)"/>
<path d="M0 0 C4.45411364 2.1098433 7.19291449 4.38189258 9 9 C9.53879709 13.53487552 9.58278359 17.54304103 7.875 21.8125 C3.87085187 26.48400616 0.11397759 29.6336497 -6.1875 30.375 C-12.05525593 29.79784368 -16.00013367 27.12485798 -20 22.875 C-22.0531813 16.97210377 -22.02736749 11.13083628 -19.3125 5.5 C-13.65104901 -0.62048756 -7.98275069 -0.97350618 0 0 Z " fill="#B7D4E5" transform="translate(430,361)"/>
<path d="M0 0 C4.16182905 2.93219774 7.2148407 6.03451322 8.1640625 11.18359375 C8.34710197 16.11733938 7.55790936 19.7740482 4.75 23.9375 C0.04912755 28.28580701 -3.72486715 29.30606931 -9.96875 29.21484375 C-14.81774003 28.62532613 -17.47655089 25.7923648 -20.625 22.3125 C-22.82907893 17.73479761 -23.0471639 13.93197589 -22.25 8.9375 C-17.62881319 -0.66034953 -9.6758966 -3.16327389 0 0 Z " fill="#B7D5E5" transform="translate(459.25,486.0625)"/>
<path d="M0 0 C3.87856292 1.76916905 5.45923101 3.22489778 7.875 6.6875 C9.53066803 11.56252254 9.97644937 16.03577871 8.34375 20.9921875 C6.05028539 25.59888797 2.86486123 28.32893994 -2 30 C-7.09954272 30.97373158 -11.13371968 30.09923051 -15.45703125 27.25 C-18.81780186 24.52735039 -20.69635075 21.92206847 -21.37890625 17.6015625 C-21.64441124 11.89748756 -20.88390524 8.4087573 -17 4 C-16.34 3.21625 -15.68 2.4325 -15 1.625 C-10.16945669 -0.99154429 -5.36498271 -0.71242318 0 0 Z " fill="#B7D5E5" transform="translate(406,230)"/>
<path d="M0 0 C4.33535115 2.3096957 7.14863393 5.45729622 9 10 C9.72427331 14.63198048 9.44977085 18.11711647 7.3125 22.3125 C3.5208059 26.71906341 0.95926887 29.10718007 -4.875 30 C-10.21961109 30.3260849 -12.78834474 29.2850911 -17 26 C-20.48814876 22.33297182 -21.29279901 19.42603649 -21.5 14.5 C-21.30691801 9.59971232 -20.41113589 6.68771447 -17 3 C-11.58844689 -0.85213472 -6.4513121 -1.0666852 0 0 Z " fill="#B7D4E5" transform="translate(1229,230)"/>
<path d="M0 0 C4.45411364 2.1098433 7.19291449 4.38189258 9 9 C9.68077475 14.01756206 9.59700231 17.80599537 7.3125 22.375 C3.24826325 26.98845793 0.01694059 29.64506581 -6.1875 30.375 C-12.05525593 29.79784368 -16.00013367 27.12485798 -20 22.875 C-22.0531813 16.97210377 -22.02736749 11.13083628 -19.3125 5.5 C-13.65104901 -0.62048756 -7.98275069 -0.97350618 0 0 Z " fill="#B7D5E5" transform="translate(549,142)"/>
<path d="M0 0 C1.010625 -0.00773438 2.02125 -0.01546875 3.0625 -0.0234375 C6.43210575 0.43361009 8.27706788 1.36443566 11 3.375 C14.79212864 8.60198813 15.71313709 11.95676622 15 18.375 C13.14143173 23.64094344 10.39685804 26.16895768 6 29.375 C1.74591781 30.7930274 -1.89144885 31.27258508 -6.12890625 29.46875 C-10.67237788 26.85813646 -13.43834519 24.54798157 -15 19.375 C-15.6528134 14.30949857 -15.58536236 10.5674048 -13.3125 5.9375 C-9.29849704 1.48955077 -5.99000408 -0.04584187 0 0 Z " fill="#B7D5E5" transform="translate(242,141.625)"/>
<path d="M0 0 C4.16182905 2.93219774 7.2148407 6.03451322 8.1640625 11.18359375 C8.34710197 16.11733938 7.55790936 19.7740482 4.75 23.9375 C0.28823961 28.06462836 -3.07794743 29.25329995 -9.19140625 29.15234375 C-13.75976317 28.67557026 -16.55117726 26.71187114 -19.5625 23.375 C-22.83227458 18.65199227 -22.8670169 14.58624626 -22.25 8.9375 C-17.62881319 -0.66034953 -9.6758966 -3.16327389 0 0 Z " fill="#B7D5E5" transform="translate(578.25,267.0625)"/>
<path d="M0 0 C4.85978996 2.29735525 7.59883576 5.19767151 10 10 C10.81501464 16.31636345 9.55292288 20.71928585 6 26 C1.97176608 29.90235161 -2.37587563 30.41988129 -7.90625 30.34765625 C-12.65914816 29.55846234 -15.80032316 26.3157746 -18.9375 22.875 C-20.63844947 18.27243085 -20.63960625 13.8396873 -20 9 C-15.7215243 0.12612448 -9.21071151 -1.20551959 0 0 Z " fill="#B7D5E5" transform="translate(476,221)"/>
<path d="M0 0 C4.85857844 2.29678253 7.63468979 5.17840611 10 10 C10.94632048 15.29166964 10.37639629 19.97147745 7.390625 24.4921875 C3.78694355 28.39954997 -0.87879173 30.18844357 -6.125 30.5 C-11.81485367 29.76582533 -14.54242547 27.57264621 -18.375 23.4375 C-20.68860114 18.54334374 -21.14733202 14.30922268 -20 9 C-14.83062018 0.56786876 -9.5458012 -0.95863067 0 0 Z " fill="#B7D5E5" transform="translate(1042,17)"/>
<path d="M0 0 C4.28445054 2.36330902 7.15580601 5.46242502 9 10 C10.02539779 16.45046752 8.77147599 20.76183891 5 26 C0.75792504 29.782742 -3.45640013 30.1366681 -9 30 C-14.09593582 28.92108731 -17.13309352 26.30035972 -20 22 C-21.857304 18.285392 -21.44282906 14.05406882 -21 10 C-16.71637085 1.10323177 -9.45008599 -1.83523409 0 0 Z " fill="#B7D5E5" transform="translate(220,17)"/>
<path d="M0 0 C4.19971416 3.79974138 6.38815342 6.53943904 7.125 12.25 C6.82969354 17.74480956 4.56034755 22.50013206 0.625 26.3125 C-3.74309453 28.63305022 -8.48180972 29.18748868 -13.375 28.375 C-17.87698323 26.22226595 -21.62782005 23.10266339 -23.375 18.375 C-24.19658178 13.49925767 -24.50421059 9.26906256 -21.91015625 4.91796875 C-16.0223187 -1.99059328 -8.45121426 -4.06910316 0 0 Z " fill="#B7D5E5" transform="translate(360.375,441.625)"/>
<path d="M0 0 C4.85857844 2.29678253 7.63468979 5.17840611 10 10 C10.83905739 14.69187196 10.50244047 18.64720499 8.25 22.875 C5.74948073 26.34794343 3.86279293 28.50699953 -0.33203125 29.6171875 C-6.03085173 30.20950585 -9.97316228 30.15409426 -15 27 C-18.83692165 23.48444488 -20.32780579 20.13206521 -20.5625 14.9375 C-20.30841918 10.28640949 -19.12745181 7.55008044 -16 4 C-14.9790625 2.824375 -14.9790625 2.824375 -13.9375 1.625 C-9.39025114 -0.89049937 -5.07641098 -0.73160041 0 0 Z " fill="#B7D5E5" transform="translate(452,90)"/>
<path d="M0 0 C3.87856292 1.76916905 5.45923101 3.22489778 7.875 6.6875 C9.75146343 12.21264232 10.08769954 17.45308673 7.5 22.8125 C4.90708431 26.75226589 1.42484877 28.59436195 -3 30 C-7.93000922 30.69193112 -11.30333513 29.97324584 -15.421875 27.3203125 C-18.88495823 24.42298049 -20.62855672 21.1980252 -21.37890625 16.7578125 C-21.66051542 11.36181752 -20.60323132 8.1875391 -17 4 C-16.34 3.21625 -15.68 2.4325 -15 1.625 C-10.16945669 -0.99154429 -5.36498271 -0.71242318 0 0 Z " fill="#B7D5E5" transform="translate(525,11)"/>
<path d="M0 0 C4.83763525 2.32923179 7.63619663 5.18147775 10 10 C10.83905739 14.69187196 10.50244047 18.64720499 8.25 22.875 C5.74948073 26.34794343 3.86279293 28.50699953 -0.33203125 29.6171875 C-6.03085173 30.20950585 -9.97316228 30.15409426 -15 27 C-18.83692165 23.48444488 -20.32780579 20.13206521 -20.5625 14.9375 C-20.22033791 8.84331572 -17.84678352 5.67089938 -13.375 1.625 C-8.79729761 -0.57907893 -4.99447589 -0.7971639 0 0 Z " fill="#B8D5E5" transform="translate(333,309)"/>
<path d="M0 0 C4.9538872 2.16169623 7.17937897 5.10477002 9.3046875 9.91796875 C10.38918878 13.16537988 10.5010115 15.61817237 10 19 C7.2055618 24.27838327 3.73406618 28.08864461 -2 30 C-6.66507623 30.3823833 -9.04127641 30.47936179 -13.25 28.375 C-17.06209352 25.08273742 -19.51584242 22.52923922 -20.48828125 17.44921875 C-20.87919583 11.90742964 -20.29867945 8.63922918 -16.625 4.375 C-11.5629482 -0.72871477 -7.0009183 -0.68325794 0 0 Z " fill="#B7D5E5" transform="translate(1156,309)"/>
<path d="M0 0 C3.88658 2.0103 6.19554514 4.67090066 8.4375 8.375 C9.60625831 13.82920545 9.85301422 17.44104297 7.1875 22.3125 C6.1046875 23.6428125 6.1046875 23.6428125 5 25 C4.54625 25.5775 4.0925 26.155 3.625 26.75 C0.02474818 29.51942448 -3.62900839 30.22238885 -8.0625 29.8125 C-13.32750519 28.91995626 -16.05075718 27.25710536 -19.3125 22.9375 C-21.65024857 18.43375582 -21.80941161 13.95458013 -21 9 C-16.59556332 0.02799935 -9.33719949 -1.53149833 0 0 Z " fill="#B7D5E5" transform="translate(386,565)"/>
<path d="M0 0 C3.16118708 1.63913404 5.26864575 3.00269875 7.375 5.875 C8.23855538 8.81108828 8.36658209 10.94514926 8 14 C5.96006092 17.6578218 4.49580738 19.66946174 1 22 C-3.50282411 22.72517392 -6.99285654 22.60000036 -10.9375 20.25 C-13.78206465 17.14683856 -14.82909642 15.31026074 -15.375 11.125 C-14.89861498 7.15512486 -13.46959574 5.10463464 -11 2 C-7.29137017 -0.47241989 -4.30094385 -0.66668695 0 0 Z " fill="#B5D2E3" transform="translate(933,31)"/>
<path d="M0 0 C3.33600367 2.05838525 4.8262176 3.7393264 7 7 C7.48256365 11.26264558 7.26873267 13.49132744 5.25 17.3125 C2.09105978 21.08567859 0.50968971 21.77212231 -4.3125 22.5 C-8.613167 21.91685871 -10.51869116 20.79813758 -13.60546875 17.84375 C-15.5565809 15.26412833 -16.13598556 13.16915382 -16.27734375 9.9609375 C-15.8013922 6.59575894 -14.16736144 4.52858835 -12 2 C-7.97756025 -0.6816265 -4.72734998 -0.68957829 0 0 Z " fill="#B5D3E3" transform="translate(1120,244)"/>
<path d="M0 0 C3.33600367 2.05838525 4.8262176 3.7393264 7 7 C7.5413058 10.51848769 7.69821425 12.91626867 5.7265625 15.9765625 C2.61206058 19.66838673 0.74211666 21.76088595 -4.1875 22.4375 C-8.58729961 21.93260496 -10.45661042 20.91991808 -13.6015625 17.91015625 C-15.67094681 15.08353914 -16.20118525 12.65593329 -16.34765625 9.1875 C-15.73484764 5.33162562 -13.82146031 3.62461424 -11 1 C-7.5402669 -0.72986655 -3.78289201 -0.48431489 0 0 Z " fill="#B4D2E3" transform="translate(1144,375)"/>
<path d="M0 0 C3.33600367 2.05838525 4.8262176 3.7393264 7 7 C7.5413058 10.51848769 7.69821425 12.91626867 5.7265625 15.9765625 C2.61206058 19.66838673 0.74211666 21.76088595 -4.1875 22.4375 C-8.58729961 21.93260496 -10.45661042 20.91991808 -13.6015625 17.91015625 C-15.67094681 15.08353914 -16.20118525 12.65593329 -16.34765625 9.1875 C-15.73484764 5.33162562 -13.82146031 3.62461424 -11 1 C-7.5402669 -0.72986655 -3.78289201 -0.48431489 0 0 Z " fill="#B4D2E3" transform="translate(1263,156)"/>
<path d="M0 0 C3.0717718 1.71077974 5.40485654 3.80971307 7 7 C7.2568576 11.01339995 7.00553831 14.59963168 4.6171875 17.92578125 C1.65575913 20.70793032 -0.49159025 21.89105505 -4.5 22.75 C-9.23055783 21.73630904 -12.0778583 19.86344785 -15 16 C-16.12552735 13.23284983 -16.41836836 10.95804105 -16 8 C-12.25241528 0.77251518 -7.84724188 -1.35020687 0 0 Z " fill="#B5D3E4" transform="translate(1239,25)"/>
<path d="M0 0 C3.07469523 1.70251719 5.40613254 3.81226508 7 7 C7.40710593 11.23390162 7.25575965 13.51588352 5.25 17.3125 C2.06757519 21.11372964 0.50776762 21.80454864 -4.375 22.4375 C-9.1853299 21.85694294 -10.61392593 20.38607407 -14 17 C-15.72869779 13.54260443 -15.48966895 9.78024432 -15 6 C-11.14949989 -0.16080017 -6.9481676 -1.07253594 0 0 Z " fill="#B6D4E4" transform="translate(297,244)"/>
<path d="M0 0 C3.07469523 1.70251719 5.40613254 3.81226508 7 7 C7.40710593 11.23390162 7.25575965 13.51588352 5.25 17.3125 C2.06757519 21.11372964 0.50776762 21.80454864 -4.375 22.4375 C-9.1853299 21.85694294 -10.61392593 20.38607407 -14 17 C-15.72869779 13.54260443 -15.48966895 9.78024432 -15 6 C-11.14949989 -0.16080017 -6.9481676 -1.07253594 0 0 Z " fill="#B6D4E4" transform="translate(416,25)"/>
<path d="M0 0 C3.70390021 2.02666238 5.65363011 3.48044516 8 7 C8.48692434 11.30116499 8.28241006 13.48387126 6.1875 17.3125 C3.99854341 20.00178952 2.42821517 21.76998782 -1.0859375 22.3359375 C-5.21467052 22.40639369 -7.41215089 22.3674057 -11 20.125 C-14.4278163 16.48294519 -14.5220736 13.42582607 -14.47265625 8.5546875 C-13.77270441 4.77147674 -12.07239165 3.18040698 -9 1 C-5.75038565 -0.62480718 -3.54760147 -0.64501845 0 0 Z " fill="#B6D4E4" transform="translate(467,280)"/>
<path d="M0 0 C3.57545703 0.02280993 5.54438404 0.46007439 8.3125 2.75 C11.80307072 6.41509926 11.80307072 6.41509926 11.83203125 9.36328125 C11.37239276 14.52337369 10.68368968 17.6211191 6.8125 21.375 C3.58390153 22.98929923 0.30256347 22.97070657 -3.1875 22.375 C-6.21258145 20.63897895 -8.60540069 18.53919863 -10.1875 15.375 C-10.60818924 12.31598826 -10.67778455 9.42741674 -10.1875 6.375 C-7.75 3.375 -7.75 3.375 -5.1875 1.375 C-3.63766739 -0.17483261 -2.15081622 0.09367039 0 0 Z " fill="#B6D4E4" transform="translate(106.1875,30.625)"/>
<path d="M0 0 C4.00591167 2.11633069 6.35523273 3.77611411 8 8 C8.42556948 12.95611122 7.65591243 16.19650728 4.5 20.0625 C1.18357365 22.36401997 -1.90950501 22.65448792 -5.87890625 22.43359375 C-9.04410413 21.78656435 -10.81744488 20.31896482 -13 18 C-14.74221711 14.51556578 -14.58675154 10.80112955 -14 7 C-10.60242193 0.86407543 -6.79897031 -0.56658086 0 0 Z " fill="#B6D4E4" transform="translate(348,499)"/>
<path d="M0 0 C3.00472887 2.14450408 4.77521607 3.79890629 5.64453125 7.45703125 C5.81936274 11.78896694 5.47608908 14.33228368 3.1875 18.0703125 C-0.36987136 21.31379815 -3.01413388 21.34547498 -7.6796875 21.29296875 C-11.05126856 20.86714623 -12.67770743 19.47304076 -14.9375 17.0078125 C-17.22603994 13.73846972 -17.40912218 10.9379973 -16.9375 7.0078125 C-15.1822057 3.6272457 -13.87838808 1.55253718 -10.5625 -0.3671875 C-6.6060327 -1.30920352 -3.76381047 -1.9274352 0 0 Z " fill="#B6D4E4" transform="translate(1291.9375,280.9921875)"/>
<path d="M0 0 C3.07469523 1.70251719 5.40613254 3.81226508 7 7 C7.1346515 11.8955438 6.69296109 15.14712481 3.5625 19 C-0.48031764 22.15536987 -2.83882964 22.51611704 -8 22 C-10.97672584 20.22719439 -13.42804007 18.14391985 -15 15 C-15.55512815 10.36786507 -15.6364242 7.01827873 -13.125 3 C-9.19649309 -0.69741827 -5.2073264 -0.80381548 0 0 Z " fill="#B5D3E4" transform="translate(440,156)"/>
<path d="M0 0 C3.07469523 1.70251719 5.40613254 3.81226508 7 7 C7.37593152 11.98109259 7.1765161 15.05673864 4 19 C1.11528002 21.32380221 -0.75586624 21.96448964 -4.4375 22.5 C-9.16675851 21.83624442 -10.65681791 20.34318209 -14 17 C-15.72869779 13.54260443 -15.48966895 9.78024432 -15 6 C-11.14949989 -0.16080017 -6.9481676 -1.07253594 0 0 Z " fill="#B5D3E4" transform="translate(139,156)"/>
<path d="M0 0 C3.07469523 1.70251719 5.40613254 3.81226508 7 7 C7.1346515 11.8955438 6.69296109 15.14712481 3.5625 19 C-0.20353499 21.93934438 -2.21002479 22.46057454 -7 22 C-10.6578218 19.96006092 -12.66946174 18.49580738 -15 15 C-15.73965025 10.40728797 -15.60961194 6.97537911 -13.125 3 C-9.19649309 -0.69741827 -5.2073264 -0.80381548 0 0 Z " fill="#B6D4E4" transform="translate(321,375)"/>
<path d="M0 0 C2.93423195 1.79646854 4.47205355 2.9441071 6 6 C6.53118173 9.79415519 6.85089348 13.46331178 4.953125 16.890625 C2.09654365 20.35212946 0.23255488 21.8308258 -4.1875 22.4375 C-8.58647285 21.93269984 -10.45936257 20.92356637 -13.59765625 17.90625 C-15.66715288 15.09311809 -16.27696198 12.72735719 -16.3828125 9.2578125 C-15.7965985 5.80034624 -14.47309425 3.72676525 -12.015625 1.2578125 C-8.18287598 -1.13394173 -4.31150986 -0.92697462 0 0 Z " fill="#B5D3E4" transform="translate(962,156)"/>
<path d="M0 0 C2.92021272 1.83789612 5.43207849 3.86415699 7 7 C7.55512815 11.63213493 7.6364242 14.98172127 5.125 19 C1.62836795 22.29094781 -1.0169916 22.38940651 -5.671875 22.359375 C-9.59004236 21.75455722 -11.30358816 19.83123243 -14 17 C-15.53214888 13.93570224 -15.22938548 11.3834358 -15 8 C-13.56955676 4.50336097 -12.37313872 3.24046717 -9.1875 1.1875 C-5.68865116 -0.1159927 -3.68699055 -0.61449842 0 0 Z " fill="#B6D3E4" transform="translate(989,283)"/>
<path d="M0 0 C3.22153655 2.14110303 6.25264061 4.50528122 8 8 C8.22455057 12.96940167 7.68307821 16.1632292 4.5 20.0625 C1.18357365 22.36401997 -1.90950501 22.65448792 -5.87890625 22.43359375 C-9.04410413 21.78656435 -10.81744488 20.31896482 -13 18 C-14.85855282 14.28289437 -14.57908439 10.04722719 -14 6 C-10.17080111 0.92889876 -6.31618193 -0.85025526 0 0 Z " fill="#B6D3E4" transform="translate(166,283)"/>
<path d="M0 0 C3.22153655 2.14110303 6.25264061 4.50528122 8 8 C8.22455057 12.96940167 7.68307821 16.1632292 4.5 20.0625 C1.18357365 22.36401997 -1.90950501 22.65448792 -5.87890625 22.43359375 C-9.04410413 21.78656435 -10.81744488 20.31896482 -13 18 C-14.85855282 14.28289437 -14.57908439 10.04722719 -14 6 C-10.17080111 0.92889876 -6.31618193 -0.85025526 0 0 Z " fill="#B5D3E4" transform="translate(285,64)"/>
<path d="M0 0 C2.997157 1.52265205 5.08937718 3.22439608 7 6 C8.17869198 10.95999913 7.78397974 14.71949975 5.125 19.0625 C1.56762864 22.30598565 -1.07663388 22.33766248 -5.7421875 22.28515625 C-9.11376856 21.85933373 -10.74020743 20.46522826 -13 18 C-15.29399862 14.72285911 -15.61717397 11.93448403 -15 8 C-11.14938083 2.07223294 -7.36430044 -0.99134814 0 0 Z " fill="#B6D4E4" transform="translate(1171,499)"/>
<path d="M0 0 C2.92021272 1.83789612 5.43207849 3.86415699 7 7 C7.55512815 11.63213493 7.6364242 14.98172127 5.125 19 C1.63362508 22.28599993 -1.01736104 22.41461134 -5.671875 22.33203125 C-9.88612634 21.73100547 -11.29181427 20.31752752 -14 17 C-15.35770799 12.75812135 -15.48321153 9.30751354 -13.9375 5.125 C-10.08487144 0.89953642 -5.6722555 -0.94537592 0 0 Z " fill="#B6D4E4" transform="translate(1108,64)"/>
<path d="M0 0 C0 10.23 0 20.46 0 31 C-7.45868849 29.93447307 -8.19268473 29.80731527 -13 25 C-15.91860219 20.32824428 -15.61087673 15.32777297 -15 10 C-12.09123572 3.60071859 -7.1020378 0 0 0 Z " fill="#B6D4E4" transform="translate(1366,141)"/>
<path d="M0 0 C4.11289267 0.85685264 5.59686932 2.20235933 8 5.625 C8.1506132 9.91747606 7.66257079 11.84550496 4.875 15.125 C1.06467129 17.11299759 -0.91964404 16.83399436 -5 15.625 C-7.55078958 13.40334456 -7.93332671 12.01670557 -8.5 8.6875 C-7.66881504 3.59649213 -5.02467449 1.04680719 0 0 Z " fill="#B3D0E1" transform="translate(431,412.375)"/>
<path d="M0 0 C3.72975427 1.15283314 5.35163561 1.75988138 7.4375 5.0625 C7.51316225 9.29958603 7.07036075 11.31795794 4.3125 14.5625 C0.50217129 16.55049759 -1.48214404 16.27149436 -5.5625 15.0625 C-8.11328958 12.84084456 -8.49582671 11.45420557 -9.0625 8.125 C-8.5625 5.0625 -8.5625 5.0625 -6.5 2.125 C-3.5625 0.0625 -3.5625 0.0625 0 0 Z " fill="#B2D0E1" transform="translate(407.5625,281.9375)"/>
<path d="M0 0 C4.11289267 0.85685264 5.59686932 2.20235933 8 5.625 C8.1526226 9.9747442 7.71471806 11.8507221 4.75 15.0625 C1.68825146 16.80212985 0.43375729 17.39759539 -3 16.625 C-6.26600019 14.15735541 -7.78253791 12.66881805 -8.625 8.625 C-7.58039389 3.61089068 -5.01410932 1.04460611 0 0 Z " fill="#B2D0E1" transform="translate(550,193.375)"/>
<path d="M0 0 C3.72975427 1.15283314 5.35163561 1.75988138 7.4375 5.0625 C7.51316225 9.29958603 7.07036075 11.31795794 4.3125 14.5625 C0.50217129 16.55049759 -1.48214404 16.27149436 -5.5625 15.0625 C-8.11328958 12.84084456 -8.49582671 11.45420557 -9.0625 8.125 C-8.5625 5.0625 -8.5625 5.0625 -6.5 2.125 C-3.5625 0.0625 -3.5625 0.0625 0 0 Z " fill="#B2D0E0" transform="translate(526.5625,62.9375)"/>
<path d="M0 0 C2 1.625 2 1.625 3 4 C2.93044263 7.89521249 2.54011724 10.21983066 0.3125 13.4375 C-2 15 -2 15 -4.9375 15.625 C-8.44154512 14.90988875 -10.02937679 13.67772005 -12.14453125 10.7890625 C-13.69679676 7.54277207 -13.12136374 5.30179323 -12 2 C-8.16011557 -1.61400887 -4.92775333 -1.36882037 0 0 Z " fill="#B3D1E1" transform="translate(1175,181)"/>
<path d="M0 0 C1.9375 1.0625 1.9375 1.0625 3 3 C3.39309578 6.09562931 3.62338668 8.04336605 3 11 C0.9375 13.5625 0.9375 13.5625 -2 15 C-5.77910616 15 -8.00693033 14.83289714 -10.9375 12.375 C-12.45259656 8.98831357 -12.52368962 6.66582737 -12 3 C-8.31376997 -1.46815761 -5.41712863 -1.50475795 0 0 Z " fill="#B4D2E2" transform="translate(1258,414)"/>
<path d="M0 0 C4.07390532 1.33327811 5.42613937 2.35369882 7.4375 6.125 C7.51904726 10.12081592 6.94255321 11.59188828 4.1875 14.5 C1.12495857 16.30968357 -0.09655086 16.90483856 -3.5625 16.125 C-6.82850019 13.65735541 -8.34503791 12.16881805 -9.1875 8.125 C-8.06349817 2.72979122 -5.54235257 0.19446851 0 0 Z " fill="#B3D1E2" transform="translate(249.5625,193.875)"/>
<path d="M0 0 C3 2.0625 3 2.0625 5 5 C5.06584389 8.81894541 4.85572029 10.97971812 2.375 13.9375 C-1.01168643 15.45259656 -3.33417263 15.52368962 -7 15 C-9.96135546 12.41830549 -10.86756104 10.81118865 -11.5 6.9375 C-11 4 -11 4 -9.4375 1.625 C-6.02544071 -0.64970619 -4.02388226 -0.63534983 0 0 Z " fill="#B4D2E2" transform="translate(462,538)"/>
<path d="M0 0 C2.5 2.0625 2.5 2.0625 4 5 C4 8.8137751 3.84985071 11.02424548 1.3125 13.9375 C-1.7864448 15.3613395 -3.62182812 15.55153827 -7 15 C-10.35694984 12.51877621 -11.78441871 11.05634831 -12.625 6.9375 C-12 4 -12 4 -9.9375 1.625 C-6.24576321 -0.41723737 -4.15867007 -0.68050965 0 0 Z " fill="#B4D2E2" transform="translate(1226,436)"/>
<path d="M0 0 C3.06965937 2.28591655 4.68875582 3.75502329 5.625 7.5 C4.68875582 11.24497671 3.06965937 12.71408345 0 15 C-3.5625 15.625 -3.5625 15.625 -7 15 C-9.96135546 12.41830549 -10.86756104 10.81118865 -11.5 6.9375 C-11 4 -11 4 -9.4375 1.625 C-6.02544071 -0.64970619 -4.02388226 -0.63534983 0 0 Z " fill="#B4D1E2" transform="translate(581,319)"/>
<path d="M0 0 C2.55078958 2.22165544 2.93332671 3.60829443 3.5 6.9375 C3 10 3 10 0.9375 12.9375 C-2 15 -2 15 -5.625 15 C-10.61768902 13.52068474 -10.61768902 13.52068474 -12 11 C-12.39309578 7.90437069 -12.62338668 5.95663395 -12 3 C-8.38525112 -1.49105164 -5.37641793 -1.59301272 0 0 Z " fill="#B4D2E3" transform="translate(352,181)"/>
<path d="M0 0 C4.99268902 1.47931526 4.99268902 1.47931526 6.375 4 C6.76809578 7.09562931 6.99838668 9.04336605 6.375 12 C4.3125 14.5625 4.3125 14.5625 1.375 16 C-2.4387751 16 -4.64924548 15.84985071 -7.5625 13.3125 C-8.9863395 10.2135552 -9.17653827 8.37817188 -8.625 5 C-5.91953265 1.14675862 -4.77773264 0 0 0 Z " fill="#B4D1E2" transform="translate(1349.625,63)"/>
<path d="M0 0 C2.4375 1.625 2.4375 1.625 4 4 C4.5625 6.9375 4.5625 6.9375 4 10 C1.54405875 13.32274404 0.0743356 14.77618008 -4 15.625 C-8.11289267 14.76814736 -9.59686932 13.42264067 -12 10 C-12.06584389 6.18105459 -11.85572029 4.02028188 -9.375 1.0625 C-6.02317947 -0.43699866 -3.63019782 -0.45377473 0 0 Z " fill="#B4D2E3" transform="translate(403,436)"/>
<path d="M0 0 C4.99268902 1.47931526 4.99268902 1.47931526 6.375 4 C6.90072226 7.54677411 7.06323879 10.74497633 5.3125 13.9375 C2.22420059 15.63108355 -0.10544581 16 -3.625 16 C-7.04764067 13.59686932 -8.39314736 12.11289267 -9.25 8 C-8.11814245 2.56708374 -5.59993233 0 0 0 Z " fill="#B4D2E2" transform="translate(1230.625,282)"/>
<path d="M0 0 C2.5 2.0625 2.5 2.0625 4 5 C4.0625 8.625 4.0625 8.625 3 12 C0.02911646 14.79612568 -1.54202666 15.00789609 -5.625 14.9375 C-9 14 -9 14 -10.9375 12.3125 C-12.35295627 9.23180105 -12.55879958 7.35279749 -12 4 C-8.42907404 -0.11197534 -5.32340568 -0.87110275 0 0 Z " fill="#B4D2E2" transform="translate(1345,217)"/>
<path d="M0 0 C2.9375 2.0625 2.9375 2.0625 5 5 C5 8.51955419 4.63108355 10.84920059 2.9375 13.9375 C-0.27905997 15.70141999 -3.49385409 15.73924763 -7 15 C-9.5625 12.9375 -9.5625 12.9375 -11 10 C-11 6.1862249 -10.84985071 3.97575452 -8.3125 1.0625 C-5.2135552 -0.3613395 -3.37817188 -0.55153827 0 0 Z " fill="#B4D2E3" transform="translate(1316,92)"/>
<path d="M0 0 C4.11289267 0.85685264 5.59686932 2.20235933 8 5.625 C8 9.14455419 7.63108355 11.47420059 5.9375 14.5625 C2.74497633 16.31323879 -0.45322589 16.15072226 -4 15.625 C-6.95167993 14.00633681 -7.03225355 12.51614428 -8 9.25 C-8 5.625 -8 5.625 -5.9375 2.6875 C-3 0.625 -3 0.625 0 0 Z " fill="#B4D2E2" transform="translate(1012,91.375)"/>
<path d="M0 0 C1.90625 0.453125 1.90625 0.453125 4.40625 2.640625 C6.03349578 5.69171083 6.59942418 7.07390089 5.90625 10.453125 C3.18546264 13.71806984 1.2695931 15.27529764 -2.96875 15.828125 C-6.09375 15.453125 -6.09375 15.453125 -8.46875 13.328125 C-10.37446139 9.95648177 -10.74225195 8.26307395 -10.09375 4.453125 C-7.48439037 0.32163891 -4.62677806 -0.24169736 0 0 Z " fill="#B4D2E2" transform="translate(223.09375,69.546875)"/>
<path d="M0 0 C2.5 2.0625 2.5 2.0625 4 5 C4 8.8137751 3.84985071 11.02424548 1.3125 13.9375 C-1.7864448 15.3613395 -3.62182812 15.55153827 -7 15 C-9.9375 12.9375 -9.9375 12.9375 -12 10 C-12.06584389 6.18105459 -11.85572029 4.02028188 -9.375 1.0625 C-5.98831357 -0.45259656 -3.66582737 -0.52368962 0 0 Z " fill="#B4D2E3" transform="translate(340,1)"/>
<path d="M0 0 C2.9375 2.0625 2.9375 2.0625 5 5 C5.06641554 8.85210127 4.87229157 10.99848005 2.3125 13.9375 C-0.7864448 15.3613395 -2.62182812 15.55153827 -6 15 C-8.9375 12.9375 -8.9375 12.9375 -11 10 C-11.06641554 6.14789873 -10.87229157 4.00151995 -8.3125 1.0625 C-5.2135552 -0.3613395 -3.37817188 -0.55153827 0 0 Z " fill="#B4D2E2" transform="translate(220,220)"/>
<path d="M0 0 C1.9375 1.125 1.9375 1.125 3 3 C3.49704206 6.90533049 3.62822766 9.08182112 1.375 12.375 C-1.60751099 14.41566541 -3.36994269 15.0740828 -7 15 C-9.875 13 -9.875 13 -12 10 C-12.625 6.4375 -12.625 6.4375 -12 3 C-8.31376997 -1.46815761 -5.41712863 -1.50475795 0 0 Z " fill="#B5D2E3" transform="translate(1076,195)"/>
<path d="M0 0 C2 1.625 2 1.625 3 4 C2.88081199 7.39685818 2.58128695 9.94000615 0.9375 12.9375 C-2.27311736 14.69816113 -5.49995202 14.75353146 -9 14 C-11.76386182 11.5816209 -12.79835577 10.03342666 -13.5 6.4375 C-12.84193691 3.22944243 -11.49391519 2.05381251 -9 0 C-5.8168485 -1.59157575 -3.38676935 -0.77242108 0 0 Z " fill="#B5D3E3" transform="translate(194,93)"/>
<path d="M0 0 C2.4375 1.625 2.4375 1.625 4 4 C3.93957505 7.44422213 3.60093625 9.90417507 1.9375 12.9375 C-1.27905997 14.70141999 -4.49385409 14.73924763 -8 14 C-10.5625 11.9375 -10.5625 11.9375 -12 9 C-12.0625 5.375 -12.0625 5.375 -11 2 C-7.35599888 -1.33165817 -4.62469785 -1.4759674 0 0 Z " fill="#B5D2E3" transform="translate(1198,312)"/>
<path d="M0 0 C2.375 1.5 2.375 1.5 4 4 C4.58428517 6.9631605 4.39344818 8.90159561 4 12 C1.72045596 14.91781637 0.17436907 14.97820387 -3.5 15.4375 C-7 15 -7 15 -9.4375 13.4375 C-11.61999672 10.03280512 -11.63734462 7.96569988 -11 4 C-7.69532025 0.20933794 -4.96286146 -0.84474238 0 0 Z " fill="#B5D3E4" transform="translate(280,322)"/>
<path d="M0 0 C2.4375 1.5625 2.4375 1.5625 4 4 C4.56288002 7.94016013 4.60396028 10.05782196 2.4375 13.4375 C-0.94217804 15.60396028 -3.05983987 15.56288002 -7 15 C-9.4375 13.4375 -9.4375 13.4375 -11 11 C-11.56288002 7.05983987 -11.60396028 4.94217804 -9.4375 1.5625 C-6.05782196 -0.60396028 -3.94016013 -0.56288002 0 0 Z " fill="#B6D3E4" transform="translate(1222,103)"/>
<path d="M0 0 C2.4375 1 2.4375 1 4 3 C4.45326577 6.17286036 4.69618391 7.99127475 4 11 C1.42627616 14.02791041 -0.15246594 14.86162709 -4.0625 15.5 C-7 15 -7 15 -9.375 13.4375 C-11.62340519 10.06489221 -11.56783945 7.97487617 -11 4 C-8.09912777 -0.52536068 -5.13093735 -0.64136717 0 0 Z " fill="#B5D3E4" transform="translate(1047,70)"/>
<path d="M0 0 C2.4375 1.5625 2.4375 1.5625 4 4 C4.56288002 7.94016013 4.60396028 10.05782196 2.4375 13.4375 C-0.94217804 15.60396028 -3.05983987 15.56288002 -7 15 C-9.4375 13.4375 -9.4375 13.4375 -11 11 C-11.56288002 7.05983987 -11.60396028 4.94217804 -9.4375 1.5625 C-6.05782196 -0.60396028 -3.94016013 -0.56288002 0 0 Z " fill="#B6D4E4" transform="translate(1103,322)"/>
<path d="M0 0 C2.375 1 2.375 1 4 3 C4.56153595 7.42209561 4.79893062 9.72171101 2.4375 13.5 C-0.97532932 15.60020266 -3.06688873 15.63210717 -7 15 C-9.95156784 12.4268383 -10.85637189 10.78197528 -11.5625 6.9375 C-11 4 -11 4 -8.875 1.625 C-5.51718047 -0.27289799 -3.79721069 -0.56554202 0 0 Z " fill="#B5D3E4" transform="translate(1043,220)"/>
<path d="M0 0 C2.4375 1.625 2.4375 1.625 4 4 C4.5625 6.9375 4.5625 6.9375 4 10 C1.51397551 13.36344489 0.08574477 14.80057749 -4.0625 15.5625 C-7 15 -7 15 -9.375 13.5 C-11.82483134 9.73102871 -11.5659239 7.45665069 -11 3 C-8.06403859 -0.7580306 -4.50318499 -0.56289812 0 0 Z " fill="#B5D3E3" transform="translate(522,217)"/>
<path d="M0 0 C2.4375 1.5625 2.4375 1.5625 4 4 C4.56288002 7.94016013 4.60396028 10.05782196 2.4375 13.4375 C-0.96719488 15.61999672 -3.03430012 15.63734462 -7 15 C-9.96135546 12.41830549 -10.86756104 10.81118865 -11.5 6.9375 C-11 4 -11 4 -9.4375 1.625 C-6.06489221 -0.62340519 -3.97487617 -0.56783945 0 0 Z " fill="#B6D4E4" transform="translate(399,103)"/>
<path d="M0 0 C1.9375 1 1.9375 1 3 3 C3.75471698 9.79245283 3.75471698 9.79245283 1.4375 13.5 C-1.97532932 15.60020266 -4.06688873 15.63210717 -8 15 C-10.5 12.9375 -10.5 12.9375 -12 10 C-12 6.22089384 -11.83289714 3.99306967 -9.375 1.0625 C-6.06762954 -0.4171131 -3.57993132 -0.39053796 0 0 Z " fill="#B6D4E4" transform="translate(1163,1)"/>
<path d="M0 0 C2.4375 1.5625 2.4375 1.5625 4 4 C4.7363388 9.99590164 4.7363388 9.99590164 2.625 12.875 C-0.68229719 15.16466729 -2.98378354 15.40162165 -7 15 C-9.375 13.4375 -9.375 13.4375 -11 11 C-11.56288002 7.05983987 -11.60396028 4.94217804 -9.4375 1.5625 C-6.05782196 -0.60396028 -3.94016013 -0.56288002 0 0 Z " fill="#B7D4E5" transform="translate(1285,538)"/>
<path d="M0 0 C1.9375 1.1875 1.9375 1.1875 3 3 C3.56311766 6.70048746 3.2363575 8.54698146 1.5 11.875 C-1.14471103 14.12300438 -1.76495861 14.36639795 -5.0625 14.5 C-9 14 -9 14 -11 13 C-12.64019798 9.71960404 -12.74234817 6.52085131 -12 3 C-8.3655827 -1.51548816 -5.40521016 -1.50144727 0 0 Z " fill="#B6D4E4" transform="translate(376,312)"/>
<path d="M0 0 C1.9375 1.1875 1.9375 1.1875 3 3 C3.56311766 6.70048746 3.2363575 8.54698146 1.5 11.875 C-1.14471103 14.12300438 -1.76495861 14.36639795 -5.0625 14.5 C-9 14 -9 14 -11 13 C-12.64019798 9.71960404 -12.74234817 6.52085131 -12 3 C-8.3655827 -1.51548816 -5.40521016 -1.50144727 0 0 Z " fill="#B6D4E5" transform="translate(495,93)"/>
<path d="M0 0 C1.9375 1.6875 1.9375 1.6875 3 4 C2.92857348 7.49989972 2.66021066 9.29263143 0.25 11.875 C-2.49727007 13.24863504 -3.96787906 13.53062116 -7 13 C-9.375 11.4375 -9.375 11.4375 -11 9 C-11 5.18846501 -10.80074051 2.94902579 -8.3125 0 C-5.10029355 -1.38906225 -3.3063364 -1.05521374 0 0 Z " fill="#FAFCFD" transform="translate(1223,497)"/>
<path d="M0 0 C1.9375 1.6875 1.9375 1.6875 3 4 C2.92857348 7.49989972 2.66021066 9.29263143 0.25 11.875 C-2.49727007 13.24863504 -3.96787906 13.53062116 -7 13 C-9.375 11.4375 -9.375 11.4375 -11 9 C-11 5.18846501 -10.80074051 2.94902579 -8.3125 0 C-5.10029355 -1.38906225 -3.3063364 -1.05521374 0 0 Z " fill="#FAFCFD" transform="translate(1342,278)"/>
<path d="M0 0 C3.03247414 2.13092777 3.87637987 3.34069266 4.5625 7 C4 10 4 10 1.875 12.4375 C-1 14 -1 14 -4.1875 13.875 C-7 13 -7 13 -9 11 C-9.27922749 8.06811139 -9.47143881 5.84609353 -9 3 C-6.40390408 -0.07685443 -3.9263577 -0.6871126 0 0 Z " fill="#FAFCFD" transform="translate(399,496)"/>
<path d="M0 0 C3 0.5625 3 0.5625 5.4375 2.6875 C7 5.5625 7 5.5625 6.9375 8.75 C6 11.5625 6 11.5625 3 13.5625 C-0.5 13.9375 -0.5 13.9375 -4 13.5625 C-6.38460953 11.48558202 -6.8959746 10.15693084 -7.4375 7.0625 C-6.64602694 2.53979681 -4.41632799 0.8280615 0 0 Z " fill="#FBFCFD" transform="translate(981,27.4375)"/>
<path d="M0 0 C2.91289646 0.08473881 3.77703881 0.15009119 6.125 2 C7.39552894 5.21867331 7.04263473 7.08454769 6.0625 10.375 C4.9375 12.3125 4.9375 12.3125 3.0625 13.375 C-0.69031005 13.30798553 -3.02624514 13.14387129 -5.9375 10.6875 C-7.29919572 7.53857865 -6.85853831 5.63405865 -5.9375 2.375 C-3.9375 0.375 -3.9375 0.375 0 0 Z " fill="#FBFCFD" transform="translate(213.9375,280.625)"/>
<path d="M0 0 C2.375 2.125 2.375 2.125 4 5 C4 8.54334961 3.64741834 10.25666783 1.3125 12.9375 C-1.83903422 14.38550221 -3.70949263 13.929926 -7 13 C-9 11 -9 11 -9.375 7.0625 C-9.29486433 4.11884964 -9.26281734 3.31148722 -7.3125 1 C-4.51074186 -0.21157109 -3.01312323 -0.60262465 0 0 Z " fill="#FBFCFD" transform="translate(518,277)"/>
<path d="M0 0 C2.4375 1.5625 2.4375 1.5625 4 4 C3.9375 7.625 3.9375 7.625 3 11 C-0.49124017 13.32749345 -1.89222251 13.50299316 -6 13 C-8.7912125 11.01677007 -9.82597224 9.87013879 -10.5 6.5 C-9.33827182 0.69135908 -5.5534724 -0.92557873 0 0 Z " fill="#FBFDFD" transform="translate(1170,241)"/>
<path d="M0 0 C2.91289646 0.08473881 3.77703881 0.15009119 6.125 2 C7.39552894 5.21867331 7.04263473 7.08454769 6.0625 10.375 C4.9375 12.3125 4.9375 12.3125 3.0625 13.375 C-0.69031005 13.30798553 -3.02624514 13.14387129 -5.9375 10.6875 C-7.29919572 7.53857865 -6.85853831 5.63405865 -5.9375 2.375 C-3.9375 0.375 -3.9375 0.375 0 0 Z " fill="#FBFCFD" transform="translate(332.9375,61.625)"/>
<path d="M0 0 C2.4375 1.5625 2.4375 1.5625 4 4 C3.9375 7.625 3.9375 7.625 3 11 C-0.49124017 13.32749345 -1.89222251 13.50299316 -6 13 C-8.7912125 11.01677007 -9.82597224 9.87013879 -10.5 6.5 C-9.33827182 0.69135908 -5.5534724 -0.92557873 0 0 Z " fill="#FBFDFD" transform="translate(1289,22)"/>
<path d="M0 0 C3.625 0.375 3.625 0.375 6.125 2 C7.625 4.375 7.625 4.375 7.5625 7.4375 C6.17211802 11.79403019 6.17211802 11.79403019 3.625 13.375 C0.00918138 13.91352618 -1.71611489 13.79736225 -4.8125 11.8125 C-6.375 9.375 -6.375 9.375 -6.25 5.75 C-5.09824284 1.3075081 -4.60142226 0.51126914 0 0 Z " fill="#FBFDFD" transform="translate(1309.375,152.625)"/>
<path d="M0 0 C2 1.5625 2 1.5625 3 4 C2.875 7.625 2.875 7.625 2 11 C-1.46923881 13.31282587 -2.92205575 13.42478586 -7 13 C-8.875 11.9375 -8.875 11.9375 -10 10 C-10.36528977 6.5906288 -10.6140629 4.11976176 -8.9375 1.0625 C-5.84506242 -0.63335287 -3.44485259 -0.43060657 0 0 Z " fill="#FCFDFE" transform="translate(372,372)"/>
<path d="M0 0 C2 1.5625 2 1.5625 3 4 C2.875 7.625 2.875 7.625 2 11 C-1.46923881 13.31282587 -2.92205575 13.42478586 -7 13 C-8.875 11.9375 -8.875 11.9375 -10 10 C-10.36528977 6.5906288 -10.6140629 4.11976176 -8.9375 1.0625 C-5.84506242 -0.63335287 -3.44485259 -0.43060657 0 0 Z " fill="#FCFDFE" transform="translate(348,241)"/>
<path d="M0 0 C2 1.5625 2 1.5625 3 4 C2.875 7.625 2.875 7.625 2 11 C-1.46923881 13.31282587 -2.92205575 13.42478586 -7 13 C-8.875 11.9375 -8.875 11.9375 -10 10 C-10.36528977 6.5906288 -10.6140629 4.11976176 -8.9375 1.0625 C-5.84506242 -0.63335287 -3.44485259 -0.43060657 0 0 Z " fill="#FCFDFE" transform="translate(467,22)"/>
<path d="M0 0 C2.4375 1.625 2.4375 1.625 4 4 C3.93498241 7.18586196 3.51914046 9.18030454 1.8125 11.875 C-0.94344924 13.58558918 -2.82625484 13.45339217 -6 13 C-8.7912125 11.01677007 -9.82597224 9.87013879 -10.5 6.5 C-9.33827182 0.69135908 -5.5534724 -0.92557873 0 0 Z " fill="#FCFDFE" transform="translate(1194,372)"/>
<path d="M0 0 C2.4375 1.5625 2.4375 1.5625 4 4 C3.9375 7.625 3.9375 7.625 3 11 C-0.46923881 13.31282587 -1.92205575 13.42478586 -6 13 C-7.875 11.9375 -7.875 11.9375 -9 10 C-9.63316583 4.09045226 -9.63316583 4.09045226 -7.875 1.0625 C-5.06487736 -0.52990283 -3.17235276 -0.45319325 0 0 Z " fill="#FCFDFE" transform="translate(490,153)"/>
<path d="M0 0 C2.7912125 1.98322993 3.82597224 3.12986121 4.5 6.5 C3.82597224 9.87013879 2.7912125 11.01677007 0 13 C-3.17235276 13.45319325 -5.06487736 13.52990283 -7.875 11.9375 C-9.64273274 8.8930714 -9.36823916 6.4368988 -9 3 C-6.84532543 -0.71082843 -4.00794956 -0.57256422 0 0 Z " fill="#FCFDFE" transform="translate(189,153)"/>
<path d="M0 0 C1.9375 1.0625 1.9375 1.0625 3 3 C3.4375 6.5 3.4375 6.5 3 10 C0.92308202 12.38460953 -0.40556916 12.8959746 -3.5 13.4375 C-6.89834723 12.84278924 -8.01241034 11.79734842 -10 9 C-10.45319325 5.82764724 -10.52990283 3.93512264 -8.9375 1.125 C-5.8930714 -0.64273274 -3.4368988 -0.36823916 0 0 Z " fill="#FCFDFE" transform="translate(1040,281)"/>
<path d="M0 0 C3.5625 0.3125 3.5625 0.3125 5.5 1.375 C7.1765629 4.43226176 6.92778977 6.9031288 6.5625 10.3125 C5.4375 12.25 5.4375 12.25 3.5625 13.3125 C-0.05331862 13.85102618 -1.77861489 13.73486225 -4.875 11.75 C-6.4375 9.3125 -6.4375 9.3125 -6.3125 5.6875 C-5.14951423 1.20169775 -4.66151968 0.42377452 0 0 Z " fill="#FCFDFE" transform="translate(1008.4375,152.6875)"/>
<path d="M0 0 C1.9375 1.0625 1.9375 1.0625 3 3 C3.4375 6.5 3.4375 6.5 3 10 C0.92308202 12.38460953 -0.40556916 12.8959746 -3.5 13.4375 C-6.89834723 12.84278924 -8.01241034 11.79734842 -10 9 C-10.45319325 5.82764724 -10.52990283 3.93512264 -8.9375 1.125 C-5.8930714 -0.64273274 -3.4368988 -0.36823916 0 0 Z " fill="#FCFDFE" transform="translate(1159,62)"/>
<path d="M0 0 C1.9375 1.125 1.9375 1.125 3 3 C2.66666667 9.33333333 2.66666667 9.33333333 0 12 C-6.00458716 12.54587156 -6.00458716 12.54587156 -8.9375 10.9375 C-10.63335287 7.84506242 -10.43060657 5.44485259 -10 2 C-7.00946104 -1.68066334 -4.3259629 -1.28858469 0 0 Z " fill="#FCFDFE" transform="translate(162,29)"/>
<path d="M0 0 C2.375 0.75 2.375 0.75 3.375 1.75 C3.5625 4.1875 3.5625 4.1875 3.375 6.75 C2.715 7.41 2.055 8.07 1.375 8.75 C-1.75 8.375 -1.75 8.375 -4.625 7.75 C-5.3125 5.4375 -5.3125 5.4375 -5.625 2.75 C-3.9659358 -0.015107 -3.22812218 -0.30744021 0 0 Z " fill="#F8FBFC" transform="translate(1175.625,443.25)"/>
<path d="M0 0 C2.5625 0.1875 2.5625 0.1875 4.5625 2.1875 C4.1875 5.3125 4.1875 5.3125 3.5625 8.1875 C1.25 8.875 1.25 8.875 -1.4375 9.1875 C-3.3125 8.0625 -3.3125 8.0625 -4.4375 6.1875 C-3.87661439 0.29820111 -3.87661439 0.29820111 0 0 Z " fill="#F8FBFC" transform="translate(1246.4375,361.8125)"/>
<path d="M0 0 C2.5625 0.1875 2.5625 0.1875 4.5625 2.1875 C4.2355244 4.80330479 3.74210932 6.82828137 2.5625 9.1875 C-2.1875 8.4375 -2.1875 8.4375 -4.4375 6.1875 C-3.71780303 0.28598485 -3.71780303 0.28598485 0 0 Z " fill="#F8FBFC" transform="translate(1020.4375,351.8125)"/>
<path d="M0 0 C2.375 0.75 2.375 0.75 3.375 1.75 C3.5625 4.1875 3.5625 4.1875 3.375 6.75 C2.715 7.41 2.055 8.07 1.375 8.75 C-1.75 8.375 -1.75 8.375 -4.625 7.75 C-5.3125 5.4375 -5.3125 5.4375 -5.625 2.75 C-3.9659358 -0.015107 -3.22812218 -0.30744021 0 0 Z " fill="#F8FBFC" transform="translate(993.625,224.25)"/>
<path d="M0 0 C2.375 0.75 2.375 0.75 3.375 1.75 C3.5625 4.1875 3.5625 4.1875 3.375 6.75 C2.715 7.41 2.055 8.07 1.375 8.75 C-1.75 8.375 -1.75 8.375 -4.625 7.75 C-5.3125 5.4375 -5.3125 5.4375 -5.625 2.75 C-3.9659358 -0.015107 -3.22812218 -0.30744021 0 0 Z " fill="#F8FBFC" transform="translate(1270.625,93.25)"/>
<path d="M0 0 C2.375 0.75 2.375 0.75 3.375 1.75 C3.5625 4.1875 3.5625 4.1875 3.375 6.75 C2.715 7.41 2.055 8.07 1.375 8.75 C-1.75 8.375 -1.75 8.375 -4.625 7.75 C-5.3125 5.4375 -5.3125 5.4375 -5.625 2.75 C-3.9659358 -0.015107 -3.22812218 -0.30744021 0 0 Z " fill="#F8FBFC" transform="translate(214.625,18.25)"/>
<path d="M0 0 C4.55555556 0.55555556 4.55555556 0.55555556 6 2 C6.1875 4.4375 6.1875 4.4375 6 7 C5.34 7.66 4.68 8.32 4 9 C0.70285207 8.67028521 -0.6226839 8.3773161 -3 6 C-2.63318342 3.06546739 -2.13562754 2.13562754 0 0 Z " fill="#F8FBFC" transform="translate(1292,224)"/>
<path d="M0 0 C3.125 0.375 3.125 0.375 6 1 C6.6875 3.3125 6.6875 3.3125 7 6 C5.875 7.875 5.875 7.875 4 9 C1.3125 8.6875 1.3125 8.6875 -1 8 C-1.625 5.125 -1.625 5.125 -2 2 C-1.34 1.34 -0.68 0.68 0 0 Z " fill="#F8FBFC" transform="translate(1062,143)"/>
<path d="M0 0 C2.5625 0.1875 2.5625 0.1875 4.5625 2.1875 C4.2355244 4.80330479 3.74210932 6.82828137 2.5625 9.1875 C-2.1875 8.4375 -2.1875 8.4375 -4.4375 6.1875 C-3.71780303 0.28598485 -3.71780303 0.28598485 0 0 Z " fill="#F8FBFC" transform="translate(1139.4375,132.8125)"/>
<path d="M0 0 C1.1446875 0.3403125 1.1446875 0.3403125 2.3125 0.6875 C2.9375 3 2.9375 3 3.3125 5.6875 C2.3225 7.1725 2.3225 7.1725 1.3125 8.6875 C-1.6575 8.1925 -1.6575 8.1925 -4.6875 7.6875 C-5.375 5.375 -5.375 5.375 -5.6875 2.6875 C-4.0011022 -0.12316299 -3.27764429 -0.38112143 0 0 Z " fill="#F8FBFC" transform="translate(1342.6875,12.3125)"/>
<path d="M0 0 C2.5625 0.1875 2.5625 0.1875 4.5625 2.1875 C4.23278521 5.48464793 3.9398161 6.8101839 1.5625 9.1875 C-1.37203261 8.82068342 -2.30187246 8.32312754 -4.4375 6.1875 C-3.71780303 0.28598485 -3.71780303 0.28598485 0 0 Z " fill="#F8FBFC" transform="translate(1202.4375,567.8125)"/>
<path d="M0 0 C2.5625 0.1875 2.5625 0.1875 4.5625 2.1875 C4.23278521 5.48464793 3.9398161 6.8101839 1.5625 9.1875 C-1.37203261 8.82068342 -2.30187246 8.32312754 -4.4375 6.1875 C-3.71780303 0.28598485 -3.71780303 0.28598485 0 0 Z " fill="#F9FCFD" transform="translate(1321.4375,348.8125)"/>
<path d="M0 0 C2.5625 0.1875 2.5625 0.1875 4.5625 2.1875 C4.4375 4.6875 4.4375 4.6875 3.5625 7.1875 C1.5 8.5 1.5 8.5 -0.4375 9.1875 C-1.7575 8.1975 -3.0775 7.2075 -4.4375 6.1875 C-3.3735 0.2595 -3.3735 0.2595 0 0 Z " fill="#F9FBFD" transform="translate(269.4375,270.8125)"/>
<path d="M0 0 C1.1446875 0.3403125 1.1446875 0.3403125 2.3125 0.6875 C3 3 3 3 3.3125 5.6875 C2.1875 7.5625 2.1875 7.5625 0.3125 8.6875 C-2.375 8.375 -2.375 8.375 -4.6875 7.6875 C-5.375 5.375 -5.375 5.375 -5.6875 2.6875 C-4.0011022 -0.12316299 -3.27764429 -0.38112143 0 0 Z " fill="#F9FCFD" transform="translate(1223.6875,231.3125)"/>
<path d="M0 0 C2.5625 0.1875 2.5625 0.1875 4.5625 2.1875 C4.23278521 5.48464793 3.9398161 6.8101839 1.5625 9.1875 C-1.37203261 8.82068342 -2.30187246 8.32312754 -4.4375 6.1875 C-3.71780303 0.28598485 -3.71780303 0.28598485 0 0 Z " fill="#F8FBFC" transform="translate(241.4375,142.8125)"/>
<path d="M0 0 C2.93453261 0.36681658 3.86437246 0.86437246 6 3 C5.44444444 7.55555556 5.44444444 7.55555556 4 9 C1.5625 9.1875 1.5625 9.1875 -1 9 C-1.66 8.34 -2.32 7.68 -3 7 C-2.67028521 3.70285207 -2.3773161 2.3773161 0 0 Z " fill="#F9FCFD" transform="translate(1035,18)"/>
<path d="M0 0 C4.55555556 0.55555556 4.55555556 0.55555556 6 2 C6.1875 4.4375 6.1875 4.4375 6 7 C5.34 7.66 4.68 8.32 4 9 C-0.55555556 8.44444444 -0.55555556 8.44444444 -2 7 C-2.1875 4.5625 -2.1875 4.5625 -2 2 C-1.34 1.34 -0.68 0.68 0 0 Z " fill="#FAFCFD" transform="translate(378,568)"/>
<path d="M0 0 C2.5625 0.1875 2.5625 0.1875 4.5625 2.1875 C4.00694444 6.74305556 4.00694444 6.74305556 2.5625 8.1875 C0.125 8.375 0.125 8.375 -2.4375 8.1875 C-3.0975 7.5275 -3.7575 6.8675 -4.4375 6.1875 C-3.71780303 0.28598485 -3.71780303 0.28598485 0 0 Z " fill="#FAFCFD" transform="translate(1274.4375,486.8125)"/>
<path d="M0 0 C4.55555556 0.55555556 4.55555556 0.55555556 6 2 C6.1875 4.4375 6.1875 4.4375 6 7 C5.34 7.66 4.68 8.32 4 9 C-0.55555556 8.44444444 -0.55555556 8.44444444 -2 7 C-2.1875 4.5625 -2.1875 4.5625 -2 2 C-1.34 1.34 -0.68 0.68 0 0 Z " fill="#FAFCFD" transform="translate(422,362)"/>
<path d="M0 0 C4.55555556 0.55555556 4.55555556 0.55555556 6 2 C6.1875 4.4375 6.1875 4.4375 6 7 C5.34 7.66 4.68 8.32 4 9 C-0.55555556 8.44444444 -0.55555556 8.44444444 -2 7 C-2.1875 4.5625 -2.1875 4.5625 -2 2 C-1.34 1.34 -0.68 0.68 0 0 Z " fill="#FAFCFD" transform="translate(196,352)"/>
<path d="M0 0 C4.55555556 0.55555556 4.55555556 0.55555556 6 2 C6.1875 4.4375 6.1875 4.4375 6 7 C5.34 7.66 4.68 8.32 4 9 C-0.55555556 8.44444444 -0.55555556 8.44444444 -2 7 C-2.1875 4.5625 -2.1875 4.5625 -2 2 C-1.34 1.34 -0.68 0.68 0 0 Z " fill="#FAFCFD" transform="translate(497,349)"/>
<path d="M0 0 C2.5625 0.1875 2.5625 0.1875 4.5625 2.1875 C4.00694444 6.74305556 4.00694444 6.74305556 2.5625 8.1875 C0.125 8.375 0.125 8.375 -2.4375 8.1875 C-3.0975 7.5275 -3.7575 6.8675 -4.4375 6.1875 C-3.71780303 0.28598485 -3.71780303 0.28598485 0 0 Z " fill="#FAFCFD" transform="translate(1092.4375,270.8125)"/>
<path d="M0 0 C1.4540625 0.0309375 1.4540625 0.0309375 2.9375 0.0625 C3.5625 2.9375 3.5625 2.9375 3.9375 6.0625 C1.9375 8.0625 1.9375 8.0625 -0.5625 8.3125 C-3.0625 8.0625 -3.0625 8.0625 -5.0625 6.0625 C-4.33395709 0.0884481 -4.33395709 0.0884481 0 0 Z " fill="#FAFCFD" transform="translate(571.0625,267.9375)"/>
<path d="M0 0 C4.55555556 0.55555556 4.55555556 0.55555556 6 2 C6.1875 4.4375 6.1875 4.4375 6 7 C5.34 7.66 4.68 8.32 4 9 C-0.55555556 8.44444444 -0.55555556 8.44444444 -2 7 C-2.1875 4.5625 -2.1875 4.5625 -2 2 C-1.34 1.34 -0.68 0.68 0 0 Z " fill="#FBFCFD" transform="translate(398,231)"/>
<path d="M0 0 C4.55555556 0.55555556 4.55555556 0.55555556 6 2 C6.1875 4.4375 6.1875 4.4375 6 7 C5.34 7.66 4.68 8.32 4 9 C-0.55555556 8.44444444 -0.55555556 8.44444444 -2 7 C-2.1875 4.5625 -2.1875 4.5625 -2 2 C-1.34 1.34 -0.68 0.68 0 0 Z " fill="#FAFCFD" transform="translate(469,224)"/>
<path d="M0 0 C4.55555556 0.55555556 4.55555556 0.55555556 6 2 C6.1875 4.4375 6.1875 4.4375 6 7 C5.34 7.66 4.68 8.32 4 9 C-0.55555556 8.44444444 -0.55555556 8.44444444 -2 7 C-2.1875 4.5625 -2.1875 4.5625 -2 2 C-1.34 1.34 -0.68 0.68 0 0 Z " fill="#FAFCFD" transform="translate(168,224)"/>
<path d="M0 0 C2.5625 0.1875 2.5625 0.1875 4.5625 2.1875 C4.00694444 6.74305556 4.00694444 6.74305556 2.5625 8.1875 C0.125 8.375 0.125 8.375 -2.4375 8.1875 C-3.0975 7.5275 -3.7575 6.8675 -4.4375 6.1875 C-3.71780303 0.28598485 -3.71780303 0.28598485 0 0 Z " fill="#FAFCFD" transform="translate(964.4375,99.8125)"/>
<path d="M0 0 C2.5625 0.1875 2.5625 0.1875 4.5625 2.1875 C4.00694444 6.74305556 4.00694444 6.74305556 2.5625 8.1875 C0.125 8.375 0.125 8.375 -2.4375 8.1875 C-3.0975 7.5275 -3.7575 6.8675 -4.4375 6.1875 C-3.71780303 0.28598485 -3.71780303 0.28598485 0 0 Z " fill="#FAFCFD" transform="translate(1211.4375,51.8125)"/>
<path d="M0 0 C2.5625 0.1875 2.5625 0.1875 4.5625 2.1875 C4.00694444 6.74305556 4.00694444 6.74305556 2.5625 8.1875 C0.125 8.375 0.125 8.375 -2.4375 8.1875 C-3.0975 7.5275 -3.7575 6.8675 -4.4375 6.1875 C-3.71780303 0.28598485 -3.71780303 0.28598485 0 0 Z " fill="#FAFCFD" transform="translate(388.4375,51.8125)"/>
<path d="M0 0 C4.55555556 0.55555556 4.55555556 0.55555556 6 2 C6.1875 4.4375 6.1875 4.4375 6 7 C5.34 7.66 4.68 8.32 4 9 C-0.55555556 8.44444444 -0.55555556 8.44444444 -2 7 C-2.1875 4.5625 -2.1875 4.5625 -2 2 C-1.34 1.34 -0.68 0.68 0 0 Z " fill="#FAFCFD" transform="translate(517,12)"/>
<path d="M0 0 C1.875 0.6875 1.875 0.6875 2.875 1.6875 C3.0625 4.125 3.0625 4.125 2.875 6.6875 C2.215 7.3475 1.555 8.0075 0.875 8.6875 C-3.68055556 8.13194444 -3.68055556 8.13194444 -5.125 6.6875 C-5.375 4.25 -5.375 4.25 -5.125 1.6875 C-2.125 -0.3125 -2.125 -0.3125 0 0 Z " fill="#FBFDFD" transform="translate(353.125,443.3125)"/>
<path d="M0 0 C2.625 0.375 2.625 0.375 5 1 C5.625 3.3125 5.625 3.3125 6 6 C5.01 7.485 5.01 7.485 4 9 C-0.875 8.125 -0.875 8.125 -2 7 C-2.1875 4.5625 -2.1875 4.5625 -2 2 C-1.34 1.34 -0.68 0.68 0 0 Z " fill="#FAFCFD" transform="translate(315,133)"/>
<path d="M0 0 C1.875 0.6875 1.875 0.6875 2.875 1.6875 C3.0625 4.125 3.0625 4.125 2.875 6.6875 C2.215 7.3475 1.555 8.0075 0.875 8.6875 C-3.68055556 8.13194444 -3.68055556 8.13194444 -5.125 6.6875 C-5.375 4.25 -5.375 4.25 -5.125 1.6875 C-2.125 -0.3125 -2.125 -0.3125 0 0 Z " fill="#FBFDFD" transform="translate(448.125,93.3125)"/>
<path d="M0 0 C2.625 0.375 2.625 0.375 5 1 C5.6875 3.3125 5.6875 3.3125 6 6 C4.8125 7.875 4.8125 7.875 3 9 C0.86254078 8.74853421 -0.45925779 8.54074221 -2 7 C-2.1875 4.5625 -2.1875 4.5625 -2 2 C-1.34 1.34 -0.68 0.68 0 0 Z " fill="#FBFCFD" transform="translate(541,143)"/>
<path d="M0 0 C1.4540625 0.0309375 1.4540625 0.0309375 2.9375 0.0625 C3.5625 2.9375 3.5625 2.9375 3.9375 6.0625 C1.9375 8.0625 1.9375 8.0625 -0.625 8.25 C-3.0625 8.0625 -3.0625 8.0625 -4.0625 7.0625 C-4.1875 4.0625 -4.1875 4.0625 -4.0625 1.0625 C-3.0625 0.0625 -3.0625 0.0625 0 0 Z " fill="#FCFDFE" transform="translate(452.0625,486.9375)"/>
<path d="M0 0 C3 0.125 3 0.125 4 1.125 C4.1875 3.5625 4.1875 3.5625 4 6.125 C3.34 6.785 2.68 7.445 2 8.125 C-1.125 7.75 -1.125 7.75 -4 7.125 C-4.04254356 5.12545254 -4.04080783 3.12458364 -4 1.125 C-3 0.125 -3 0.125 0 0 Z " fill="#FBFDFD" transform="translate(1151,312.875)"/>
<path d="M0 0 C3 0.125 3 0.125 4 1.125 C4.1875 3.5625 4.1875 3.5625 4 6.125 C3.34 6.785 2.68 7.445 2 8.125 C-2.55555556 7.56944444 -2.55555556 7.56944444 -4 6.125 C-4.125 3.625 -4.125 3.625 -4 1.125 C-3 0.125 -3 0.125 0 0 Z " fill="#FCFDFE" transform="translate(328,312.875)"/>
<path d="M0 0 C2.4375 0.1875 2.4375 0.1875 3.4375 1.1875 C3.625 3.625 3.625 3.625 3.4375 6.1875 C1.4375 8.1875 1.4375 8.1875 -1.125 8.375 C-3.5625 8.1875 -3.5625 8.1875 -4.5625 7.1875 C-4.75 4.75 -4.75 4.75 -4.5625 2.1875 C-2.5625 0.1875 -2.5625 0.1875 0 0 Z " fill="#FDFDFE" transform="translate(142.5625,99.8125)"/>
<path d="M0 0 C0.99 0 1.98 0 3 0 C3 2.97 3 5.94 3 9 C-1 7 -1 7 -1.875 4.5 C-1.91625 3.675 -1.9575 2.85 -2 2 C-1.34 1.34 -0.68 0.68 0 0 Z " fill="#F9FBFD" transform="translate(1363,143)"/>
</svg>
