<svg version="1.1" id="Layer_1" xmlns="http://www.w3.org/2000/svg" xmlns:xlink="http://www.w3.org/1999/xlink" x="0px" y="0px"
	 width="100%" viewBox="0 0 1366 768" enable-background="new 0 0 1366 768" xml:space="preserve">
<path fill="#FFFFFF" opacity="1.000000" stroke="none" 
	d="
M1367.000000,173.000000 
	C1367.000000,371.645416 1367.000000,570.290833 1367.000000,768.968140 
	C911.736694,768.968140 456.473358,768.968140 1.105016,768.968140 
	C1.105016,513.097473 1.105016,257.194855 1.105016,1.000000 
	C386.361328,1.000000 771.722717,1.000000 1157.376343,1.295674 
	C1156.615234,2.389328 1155.475586,3.096586 1154.524170,4.001862 
	C1151.375610,6.998255 1151.119751,12.307552 1153.914673,15.109016 
	C1156.870483,18.071703 1162.125732,18.152340 1165.146729,15.281209 
	C1168.635864,11.965189 1168.876831,7.809981 1165.664795,4.261060 
	C1164.573853,3.055777 1163.228882,2.080435 1162.000000,1.000000 
	C1230.251099,1.000000 1298.502075,1.000000 1367.000000,1.000000 
	C1367.000000,47.694412 1367.000000,94.389259 1366.603516,141.562439 
	C1356.617188,143.504364 1350.501709,150.132217 1351.093750,158.419952 
	C1351.672363,166.519058 1358.357056,172.646469 1367.000000,173.000000 
M1137.433838,92.953575 
	C1144.586792,103.743759 1157.556885,106.940155 1167.846680,100.448593 
	C1178.470337,93.746452 1182.065430,80.165512 1175.909424,69.991531 
	C1169.394165,59.223888 1155.875977,55.763672 1144.968506,62.071827 
	C1134.358154,68.208168 1130.922241,81.226219 1137.433838,92.953575 
M1291.413574,19.951994 
	C1282.575684,17.759991 1275.168945,20.675653 1269.551270,27.273760 
	C1263.612305,34.249168 1262.073486,42.519032 1266.271240,50.991116 
	C1270.161499,58.842583 1276.767334,63.405159 1285.609253,63.889503 
	C1296.997925,64.513351 1306.932739,56.456627 1308.840454,45.492714 
	C1310.824585,34.089855 1304.075928,23.755724 1291.413574,19.951994 
M1294.041260,157.579620 
	C1292.457397,160.291031 1290.494019,162.853226 1289.358276,165.740906 
	C1285.413940,175.769882 1291.017456,188.450699 1301.079102,192.832291 
	C1312.269165,197.705246 1325.323486,193.384674 1330.289551,183.164566 
	C1335.645874,172.141083 1333.052979,161.374496 1323.244873,153.913345 
	C1315.080078,147.702225 1303.087036,149.020813 1294.041260,157.579620 
M1358.161011,286.488373 
	C1354.869019,280.488190 1349.982056,276.655579 1343.196899,275.281464 
	C1332.673340,273.150269 1321.804688,278.943817 1317.623047,288.989044 
	C1313.683105,298.453949 1317.282104,309.708008 1326.146851,315.642395 
	C1334.380981,321.154572 1345.543701,320.506836 1353.385498,313.943665 
	C1358.898071,309.329865 1364.372070,297.596710 1358.161011,286.488373 
M1200.470459,75.895683 
	C1205.034668,81.200142 1210.563477,83.119102 1217.388550,80.894920 
	C1224.078491,78.714844 1228.856079,71.195030 1227.927612,64.102173 
	C1226.972534,56.806515 1220.597412,51.101360 1213.302246,51.014141 
	C1199.727783,50.851841 1193.082642,62.980576 1200.470459,75.895683 
M1279.209106,234.083328 
	C1278.805054,242.271591 1282.514282,248.797714 1289.027710,251.358948 
	C1294.749023,253.608688 1302.950806,251.427841 1306.575562,246.488876 
	C1310.397949,241.280258 1311.426270,235.663803 1308.270752,229.710388 
	C1305.351562,224.202652 1299.017700,220.326904 1293.629028,221.216537 
	C1286.593506,222.378082 1281.252686,225.843506 1279.209106,234.083328 
M1334.005737,371.451202 
	C1341.269043,363.736816 1337.614624,353.875153 1332.775146,349.639648 
	C1326.667603,344.294220 1316.566650,344.828918 1311.502197,350.381195 
	C1305.285156,357.197144 1305.558350,366.073120 1312.187378,372.645203 
	C1318.215820,378.621826 1326.605469,378.357666 1334.005737,371.451202 
M1338.431030,41.532509 
	C1340.405151,41.671478 1342.396729,42.050571 1344.350342,41.908058 
	C1353.033325,41.274624 1359.333374,32.838360 1357.944824,23.877138 
	C1356.618896,15.319408 1347.847534,9.348709 1339.586792,11.380705 
	C1332.802490,13.049556 1327.884888,18.761738 1327.123169,25.858017 
	C1326.481323,31.838324 1330.430786,37.581726 1338.431030,41.532509 
M1149.920044,133.471573 
	C1149.248535,132.988510 1148.619385,132.427505 1147.898926,132.034332 
	C1140.071777,127.764153 1130.534424,130.580811 1126.536011,138.319717 
	C1122.651855,145.837662 1126.027344,155.561279 1133.847778,159.382889 
	C1140.844604,162.802017 1148.252319,160.794952 1153.148315,154.153473 
	C1157.699097,147.980286 1156.683716,140.365692 1149.920044,133.471573 
M1275.196899,91.040634 
	C1267.344849,88.230202 1259.428101,93.696617 1256.714600,98.978752 
	C1253.686768,104.873123 1254.957764,112.396324 1260.062256,117.246460 
	C1264.777832,121.727089 1273.372681,122.598976 1279.012573,118.837418 
	C1284.094727,115.447769 1286.457764,110.463882 1285.940308,104.343872 
	C1285.397095,97.919334 1281.587646,93.827019 1275.196899,91.040634 
M1296.425415,285.194916 
	C1295.831787,284.617249 1295.301147,283.951324 1294.634644,283.475739 
	C1288.739868,279.269226 1282.129272,280.176422 1277.948486,285.730408 
	C1274.264526,290.624420 1275.586182,297.473053 1280.996582,301.524658 
	C1286.475708,305.627747 1291.992188,304.734344 1296.553101,298.792603 
	C1299.753540,294.623535 1299.668457,290.217255 1296.425415,285.194916 
M1241.012695,46.908791 
	C1242.209595,45.779018 1243.626831,44.806503 1244.565063,43.492096 
	C1248.488403,37.995560 1247.759521,32.831360 1242.567261,28.081244 
	C1238.284668,24.163372 1233.053467,24.061085 1228.713623,27.810179 
	C1223.413940,32.388557 1222.544067,37.685390 1226.184814,43.209526 
	C1229.162964,47.728569 1233.472534,48.960419 1241.012695,46.908791 
M1107.003784,87.774666 
	C1107.951416,87.468033 1108.945557,87.259995 1109.839233,86.838852 
	C1115.914307,83.975853 1118.529663,76.858521 1115.547119,71.414062 
	C1112.109375,65.138618 1105.557129,63.296543 1099.374023,66.867470 
	C1094.947876,69.423683 1093.056152,73.716042 1094.144409,78.733467 
	C1095.287231,84.002129 1099.978027,87.556664 1107.003784,87.774666 
M1270.226440,163.679855 
	C1268.991821,162.136734 1267.909790,160.433884 1266.493286,159.081192 
	C1262.602417,155.365356 1257.552856,155.098740 1253.383179,158.196136 
	C1248.382690,161.910645 1246.790405,166.683411 1248.897583,171.642715 
	C1251.144775,176.931946 1257.127930,180.103592 1262.230347,178.710220 
	C1268.575684,176.977448 1271.516479,171.913223 1270.226440,163.679855 
M1226.477783,108.080627 
	C1223.340576,103.621384 1218.909546,102.298622 1215.101318,104.684502 
	C1211.658325,106.841614 1210.273315,111.153069 1211.917480,114.596146 
	C1213.894409,118.736237 1217.897461,120.618652 1221.568359,119.134468 
	C1226.910522,116.974579 1228.402710,114.029587 1226.477783,108.080627 
M1310.374023,93.897888 
	C1305.935547,97.129402 1304.762207,100.925751 1307.002930,104.805183 
	C1309.083984,108.408173 1313.888306,109.635269 1317.799438,107.562828 
	C1321.728271,105.480988 1323.057129,101.494820 1321.159302,97.484322 
	C1319.103638,93.140053 1315.706055,91.822762 1310.374023,93.897888 
M1350.204590,79.924324 
	C1356.560669,77.580818 1359.197388,73.755875 1357.127686,69.521912 
	C1355.336548,65.857819 1352.626709,63.119839 1348.100586,64.241798 
	C1344.202271,65.208145 1341.742920,67.914764 1341.483032,72.003677 
	C1341.238037,75.859535 1344.804077,79.229988 1350.204590,79.924324 
M1334.059937,227.061691 
	C1337.295288,233.738464 1344.658447,235.143784 1348.467163,229.797470 
	C1350.699951,226.663147 1350.599487,223.144638 1348.038940,220.713058 
	C1346.159790,218.928604 1342.788208,217.293152 1340.465698,217.713348 
	C1336.429810,218.443634 1333.412720,221.338379 1334.059937,227.061691 
z"/>
<path fill="#BAD8E7" opacity="1.000000" stroke="none" 
	d="
M1367.000000,172.531586 
	C1358.357056,172.646469 1351.672363,166.519058 1351.093750,158.419952 
	C1350.501709,150.132217 1356.617188,143.504364 1366.603516,142.020386 
	C1367.000000,142.444443 1367.000000,142.888901 1366.622314,143.675537 
	C1364.854858,145.328720 1363.464966,146.639725 1362.074951,147.950714 
	C1363.716675,149.633804 1365.358276,151.316895 1367.000000,153.000000 
	C1367.000000,159.354401 1367.000000,165.708786 1367.000000,172.531586 
z"/>
<path fill="#BBD8E8" opacity="1.000000" stroke="none" 
	d="
M1161.600098,1.000000 
	C1163.228882,2.080435 1164.573853,3.055777 1165.664795,4.261060 
	C1168.876831,7.809981 1168.635864,11.965189 1165.146729,15.281209 
	C1162.125732,18.152340 1156.870483,18.071703 1153.914673,15.109016 
	C1151.119751,12.307552 1151.375610,6.998255 1154.524170,4.001862 
	C1155.475586,3.096586 1156.615234,2.389328 1157.834229,1.295674 
	C1159.066650,1.000000 1160.133423,1.000000 1161.600098,1.000000 
z"/>
<path fill="#FBFDFE" opacity="1.000000" stroke="none" 
	d="
M1367.000000,152.550018 
	C1365.358276,151.316895 1363.716675,149.633804 1362.074951,147.950714 
	C1363.464966,146.639725 1364.854858,145.328720 1366.622314,144.008850 
	C1367.000000,146.700012 1367.000000,149.400024 1367.000000,152.550018 
z"/>
<path fill="#BAD8E7" opacity="1.000000" stroke="none" 
	d="
M1137.203613,92.659225 
	C1130.922241,81.226219 1134.358154,68.208168 1144.968506,62.071827 
	C1155.875977,55.763672 1169.394165,59.223888 1175.909424,69.991531 
	C1182.065430,80.165512 1178.470337,93.746452 1167.846680,100.448593 
	C1157.556885,106.940155 1144.586792,103.743759 1137.203613,92.659225 
M1152.671631,63.889233 
	C1152.075073,64.666145 1150.957397,65.457283 1150.978271,66.217361 
	C1151.043823,68.620346 1150.711304,71.859840 1152.076782,73.186958 
	C1153.684326,74.749191 1157.392944,75.772644 1159.289917,74.950821 
	C1161.136597,74.150803 1162.741943,70.769760 1162.861328,68.440422 
	C1163.089233,63.993210 1159.643677,62.430202 1152.671631,63.889233 
z"/>
<path fill="#BAD8E7" opacity="1.000000" stroke="none" 
	d="
M1291.819336,20.000866 
	C1304.075928,23.755724 1310.824585,34.089855 1308.840454,45.492714 
	C1306.932739,56.456627 1296.997925,64.513351 1285.609253,63.889503 
	C1276.767334,63.405159 1270.161499,58.842583 1266.271240,50.991116 
	C1262.073486,42.519032 1263.612305,34.249168 1269.551270,27.273760 
	C1275.168945,20.675653 1282.575684,17.759991 1291.819336,20.000866 
M1286.601929,22.979540 
	C1281.235352,24.613413 1278.836914,28.499550 1280.846802,32.263081 
	C1282.567627,35.485603 1285.533203,37.075504 1288.656982,35.697296 
	C1290.803345,34.750381 1293.303833,32.055496 1293.544189,29.906906 
	C1293.956055,26.223480 1291.498291,23.485418 1286.601929,22.979540 
z"/>
<path fill="#BAD8E7" opacity="1.000000" stroke="none" 
	d="
M1294.296631,157.323837 
	C1303.087036,149.020813 1315.080078,147.702225 1323.244873,153.913345 
	C1333.052979,161.374496 1335.645874,172.141083 1330.289551,183.164566 
	C1325.323486,193.384674 1312.269165,197.705246 1301.079102,192.832291 
	C1291.017456,188.450699 1285.413940,175.769882 1289.358276,165.740906 
	C1290.494019,162.853226 1292.457397,160.291031 1294.296631,157.323837 
M1308.237427,154.393188 
	C1304.848877,155.842560 1303.070801,158.765228 1304.421875,161.900269 
	C1305.353149,164.060944 1308.139038,166.061661 1310.512329,166.805145 
	C1313.725098,167.811630 1317.844971,163.802826 1317.858154,160.494690 
	C1317.873047,156.774307 1313.985596,153.983658 1308.237427,154.393188 
z"/>
<path fill="#BAD8E7" opacity="1.000000" stroke="none" 
	d="
M1358.340820,286.825165 
	C1364.372070,297.596710 1358.898071,309.329865 1353.385498,313.943665 
	C1345.543701,320.506836 1334.380981,321.154572 1326.146851,315.642395 
	C1317.282104,309.708008 1313.683105,298.453949 1317.623047,288.989044 
	C1321.804688,278.943817 1332.673340,273.150269 1343.196899,275.281464 
	C1349.982056,276.655579 1354.869019,280.488190 1358.340820,286.825165 
M1345.163086,282.496307 
	C1343.108032,278.905609 1340.362549,276.827332 1336.173218,278.990204 
	C1332.849121,280.706360 1330.740601,283.948364 1332.582764,287.161743 
	C1333.863281,289.395477 1337.574585,291.697327 1339.990479,291.493042 
	C1344.116455,291.144135 1346.521362,287.865173 1345.163086,282.496307 
z"/>
<path fill="#BBD8E8" opacity="1.000000" stroke="none" 
	d="
M1200.222168,75.618515 
	C1193.082642,62.980576 1199.727783,50.851841 1213.302246,51.014141 
	C1220.597412,51.101360 1226.972534,56.806515 1227.927612,64.102173 
	C1228.856079,71.195030 1224.078491,78.714844 1217.388550,80.894920 
	C1210.563477,83.119102 1205.034668,81.200142 1200.222168,75.618515 
M1215.760864,54.559544 
	C1213.603760,54.452888 1211.372314,54.013035 1209.340576,54.467121 
	C1208.813721,54.584881 1208.172607,58.155922 1208.898804,58.974377 
	C1209.953369,60.163067 1213.023804,61.276691 1213.762085,60.659901 
	C1215.110962,59.532864 1215.381226,57.114674 1215.760864,54.559544 
z"/>
<path fill="#BBD8E8" opacity="1.000000" stroke="none" 
	d="
M1279.339722,233.696899 
	C1281.252686,225.843506 1286.593506,222.378082 1293.629028,221.216537 
	C1299.017700,220.326904 1305.351562,224.202652 1308.270752,229.710388 
	C1311.426270,235.663803 1310.397949,241.280258 1306.575562,246.488876 
	C1302.950806,251.427841 1294.749023,253.608688 1289.027710,251.358948 
	C1282.514282,248.797714 1278.805054,242.271591 1279.339722,233.696899 
M1296.157837,233.800980 
	C1299.237549,231.930237 1300.281860,229.407196 1297.653931,226.608566 
	C1296.781250,225.679230 1294.390503,225.158844 1293.311646,225.695038 
	C1291.942017,226.375931 1290.067139,229.122101 1290.391357,229.581940 
	C1291.630127,231.340210 1293.663696,232.538498 1296.157837,233.800980 
z"/>
<path fill="#BBD8E8" opacity="1.000000" stroke="none" 
	d="
M1333.746826,371.712830 
	C1326.605469,378.357666 1318.215820,378.621826 1312.187378,372.645203 
	C1305.558350,366.073120 1305.285156,357.197144 1311.502197,350.381195 
	C1316.566650,344.828918 1326.667603,344.294220 1332.775146,349.639648 
	C1337.614624,353.875153 1341.269043,363.736816 1333.746826,371.712830 
M1323.897705,358.426971 
	C1327.758789,354.752533 1327.859375,350.932434 1323.958618,350.342682 
	C1322.326294,350.095917 1319.327515,351.637238 1318.750977,353.083588 
	C1317.307373,356.704010 1319.924316,358.261108 1323.897705,358.426971 
z"/>
<path fill="#BBD8E8" opacity="1.000000" stroke="none" 
	d="
M1338.060181,41.377975 
	C1330.430786,37.581726 1326.481323,31.838324 1327.123169,25.858017 
	C1327.884888,18.761738 1332.802490,13.049556 1339.586792,11.380705 
	C1347.847534,9.348709 1356.618896,15.319408 1357.944824,23.877138 
	C1359.333374,32.838360 1353.033325,41.274624 1344.350342,41.908058 
	C1342.396729,42.050571 1340.405151,41.671478 1338.060181,41.377975 
M1346.938477,17.392490 
	C1346.615601,14.185389 1344.827148,12.319818 1341.719360,13.401070 
	C1340.226196,13.920553 1338.577026,16.006050 1338.372803,17.562668 
	C1338.216064,18.756456 1340.510864,21.504570 1341.195190,21.344023 
	C1343.211060,20.871042 1344.968140,19.295218 1346.938477,17.392490 
z"/>
<path fill="#BBD8E8" opacity="1.000000" stroke="none" 
	d="
M1150.189453,133.727600 
	C1156.683716,140.365692 1157.699097,147.980286 1153.148315,154.153473 
	C1148.252319,160.794952 1140.844604,162.802017 1133.847778,159.382889 
	C1126.027344,155.561279 1122.651855,145.837662 1126.536011,138.319717 
	C1130.534424,130.580811 1140.071777,127.764153 1147.898926,132.034332 
	C1148.619385,132.427505 1149.248535,132.988510 1150.189453,133.727600 
M1136.857422,136.325241 
	C1135.336548,139.167099 1136.387085,141.381241 1139.094727,142.285172 
	C1140.402954,142.721909 1143.177124,142.062347 1143.597412,141.134079 
	C1144.330688,139.514099 1143.757324,137.302582 1143.731689,135.338974 
	C1141.557617,135.441193 1139.383423,135.543411 1136.857422,136.325241 
z"/>
<path fill="#BAD8E7" opacity="1.000000" stroke="none" 
	d="
M1275.580566,91.109772 
	C1281.587646,93.827019 1285.397095,97.919334 1285.940308,104.343872 
	C1286.457764,110.463882 1284.094727,115.447769 1279.012573,118.837418 
	C1273.372681,122.598976 1264.777832,121.727089 1260.062256,117.246460 
	C1254.957764,112.396324 1253.686768,104.873123 1256.714600,98.978752 
	C1259.428101,93.696617 1267.344849,88.230202 1275.580566,91.109772 
M1268.299438,102.477180 
	C1270.417114,101.796967 1272.891357,101.545578 1274.477417,100.226227 
	C1275.114868,99.695839 1274.302246,96.356041 1273.203369,95.176208 
	C1272.459839,94.377892 1269.745605,94.557465 1268.473267,95.282677 
	C1265.560059,96.943108 1265.652588,99.479668 1268.299438,102.477180 
z"/>
<path fill="#BBD8E8" opacity="1.000000" stroke="none" 
	d="
M1296.633545,285.513092 
	C1299.668457,290.217255 1299.753540,294.623535 1296.553101,298.792603 
	C1291.992188,304.734344 1286.475708,305.627747 1280.996582,301.524658 
	C1275.586182,297.473053 1274.264526,290.624420 1277.948486,285.730408 
	C1282.129272,280.176422 1288.739868,279.269226 1294.634644,283.475739 
	C1295.301147,283.951324 1295.831787,284.617249 1296.633545,285.513092 
z"/>
<path fill="#BAD8E7" opacity="1.000000" stroke="none" 
	d="
M1240.650879,47.074898 
	C1233.472534,48.960419 1229.162964,47.728569 1226.184814,43.209526 
	C1222.544067,37.685390 1223.413940,32.388557 1228.713623,27.810179 
	C1233.053467,24.061085 1238.284668,24.163372 1242.567261,28.081244 
	C1247.759521,32.831360 1248.488403,37.995560 1244.565063,43.492096 
	C1243.626831,44.806503 1242.209595,45.779018 1240.650879,47.074898 
z"/>
<path fill="#BAD8E7" opacity="1.000000" stroke="none" 
	d="
M1106.610840,87.828629 
	C1099.978027,87.556664 1095.287231,84.002129 1094.144409,78.733467 
	C1093.056152,73.716042 1094.947876,69.423683 1099.374023,66.867470 
	C1105.557129,63.296543 1112.109375,65.138618 1115.547119,71.414062 
	C1118.529663,76.858521 1115.914307,83.975853 1109.839233,86.838852 
	C1108.945557,87.259995 1107.951416,87.468033 1106.610840,87.828629 
z"/>
<path fill="#BBD8E8" opacity="1.000000" stroke="none" 
	d="
M1270.384521,164.037796 
	C1271.516479,171.913223 1268.575684,176.977448 1262.230347,178.710220 
	C1257.127930,180.103592 1251.144775,176.931946 1248.897583,171.642715 
	C1246.790405,166.683411 1248.382690,161.910645 1253.383179,158.196136 
	C1257.552856,155.098740 1262.602417,155.365356 1266.493286,159.081192 
	C1267.909790,160.433884 1268.991821,162.136734 1270.384521,164.037796 
z"/>
<path fill="#BBD8E8" opacity="1.000000" stroke="none" 
	d="
M1226.656128,108.410889 
	C1228.402710,114.029587 1226.910522,116.974579 1221.568359,119.134468 
	C1217.897461,120.618652 1213.894409,118.736237 1211.917480,114.596146 
	C1210.273315,111.153069 1211.658325,106.841614 1215.101318,104.684502 
	C1218.909546,102.298622 1223.340576,103.621384 1226.656128,108.410889 
z"/>
<path fill="#BBD8E8" opacity="1.000000" stroke="none" 
	d="
M1310.697998,93.725754 
	C1315.706055,91.822762 1319.103638,93.140053 1321.159302,97.484322 
	C1323.057129,101.494820 1321.728271,105.480988 1317.799438,107.562828 
	C1313.888306,109.635269 1309.083984,108.408173 1307.002930,104.805183 
	C1304.762207,100.925751 1305.935547,97.129402 1310.697998,93.725754 
z"/>
<path fill="#BBD8E8" opacity="1.000000" stroke="none" 
	d="
M1349.812744,79.939117 
	C1344.804077,79.229988 1341.238037,75.859535 1341.483032,72.003677 
	C1341.742920,67.914764 1344.202271,65.208145 1348.100586,64.241798 
	C1352.626709,63.119839 1355.336548,65.857819 1357.127686,69.521912 
	C1359.197388,73.755875 1356.560669,77.580818 1349.812744,79.939117 
z"/>
<path fill="#BBD8E8" opacity="1.000000" stroke="none" 
	d="
M1334.037109,226.663071 
	C1333.412720,221.338379 1336.429810,218.443634 1340.465698,217.713348 
	C1342.788208,217.293152 1346.159790,218.928604 1348.038940,220.713058 
	C1350.599487,223.144638 1350.699951,226.663147 1348.467163,229.797470 
	C1344.658447,235.143784 1337.295288,233.738464 1334.037109,226.663071 
z"/>
<path fill="#FBFDFE" opacity="1.000000" stroke="none" 
	d="
M1153.002563,63.656418 
	C1159.643677,62.430202 1163.089233,63.993210 1162.861328,68.440422 
	C1162.741943,70.769760 1161.136597,74.150803 1159.289917,74.950821 
	C1157.392944,75.772644 1153.684326,74.749191 1152.076782,73.186958 
	C1150.711304,71.859840 1151.043823,68.620346 1150.978271,66.217361 
	C1150.957397,65.457283 1152.075073,64.666145 1153.002563,63.656418 
z"/>
<path fill="#FBFDFE" opacity="1.000000" stroke="none" 
	d="
M1286.998047,22.979111 
	C1291.498291,23.485418 1293.956055,26.223480 1293.544189,29.906906 
	C1293.303833,32.055496 1290.803345,34.750381 1288.656982,35.697296 
	C1285.533203,37.075504 1282.567627,35.485603 1280.846802,32.263081 
	C1278.836914,28.499550 1281.235352,24.613413 1286.998047,22.979111 
z"/>
<path fill="#FBFDFE" opacity="1.000000" stroke="none" 
	d="
M1308.615234,154.261993 
	C1313.985596,153.983658 1317.873047,156.774307 1317.858154,160.494690 
	C1317.844971,163.802826 1313.725098,167.811630 1310.512329,166.805145 
	C1308.139038,166.061661 1305.353149,164.060944 1304.421875,161.900269 
	C1303.070801,158.765228 1304.848877,155.842560 1308.615234,154.261993 
z"/>
<path fill="#FBFDFE" opacity="1.000000" stroke="none" 
	d="
M1345.324463,282.836853 
	C1346.521362,287.865173 1344.116455,291.144135 1339.990479,291.493042 
	C1337.574585,291.697327 1333.863281,289.395477 1332.582764,287.161743 
	C1330.740601,283.948364 1332.849121,280.706360 1336.173218,278.990204 
	C1340.362549,276.827332 1343.108032,278.905609 1345.324463,282.836853 
z"/>
<path fill="#FBFDFE" opacity="1.000000" stroke="none" 
	d="
M1215.931152,54.897285 
	C1215.381226,57.114674 1215.110962,59.532864 1213.762085,60.659901 
	C1213.023804,61.276691 1209.953369,60.163067 1208.898804,58.974377 
	C1208.172607,58.155922 1208.813721,54.584881 1209.340576,54.467121 
	C1211.372314,54.013035 1213.603760,54.452888 1215.931152,54.897285 
z"/>
<path fill="#FBFDFE" opacity="1.000000" stroke="none" 
	d="
M1295.779053,233.873444 
	C1293.663696,232.538498 1291.630127,231.340210 1290.391357,229.581940 
	C1290.067139,229.122101 1291.942017,226.375931 1293.311646,225.695038 
	C1294.390503,225.158844 1296.781250,225.679230 1297.653931,226.608566 
	C1300.281860,229.407196 1299.237549,231.930237 1295.779053,233.873444 
z"/>
<path fill="#FBFDFE" opacity="1.000000" stroke="none" 
	d="
M1323.567383,358.587830 
	C1319.924316,358.261108 1317.307373,356.704010 1318.750977,353.083588 
	C1319.327515,351.637238 1322.326294,350.095917 1323.958618,350.342682 
	C1327.859375,350.932434 1327.758789,354.752533 1323.567383,358.587830 
z"/>
<path fill="#FBFDFE" opacity="1.000000" stroke="none" 
	d="
M1346.882568,17.771767 
	C1344.968140,19.295218 1343.211060,20.871042 1341.195190,21.344023 
	C1340.510864,21.504570 1338.216064,18.756456 1338.372803,17.562668 
	C1338.577026,16.006050 1340.226196,13.920553 1341.719360,13.401070 
	C1344.827148,12.319818 1346.615601,14.185389 1346.882568,17.771767 
z"/>
<path fill="#FBFDFE" opacity="1.000000" stroke="none" 
	d="
M1137.033447,135.985443 
	C1139.383423,135.543411 1141.557617,135.441193 1143.731689,135.338974 
	C1143.757324,137.302582 1144.330688,139.514099 1143.597412,141.134079 
	C1143.177124,142.062347 1140.402954,142.721909 1139.094727,142.285172 
	C1136.387085,141.381241 1135.336548,139.167099 1137.033447,135.985443 
z"/>
<path fill="#FBFDFE" opacity="1.000000" stroke="none" 
	d="
M1268.003662,102.232407 
	C1265.652588,99.479668 1265.560059,96.943108 1268.473267,95.282677 
	C1269.745605,94.557465 1272.459839,94.377892 1273.203369,95.176208 
	C1274.302246,96.356041 1275.114868,99.695839 1274.477417,100.226227 
	C1272.891357,101.545578 1270.417114,101.796967 1268.003662,102.232407 
z"/>
</svg>