<?xml version="1.0" encoding="UTF-8"?>
<svg version="1.1" xmlns="http://www.w3.org/2000/svg" width="1366" height="768">
<path d="M0 0 C450.78 0 901.56 0 1366 0 C1366 253.44 1366 506.88 1366 768 C915.22 768 464.44 768 0 768 C0 514.56 0 261.12 0 0 Z " fill="#FEFEFE" transform="translate(0,0)"/>
<path d="M0 0 C5.91821413 2.92283079 9.88621497 7.52242993 12.8125 13.375 C14.06013989 20.30633272 14.28964785 26.43243596 10.703125 32.68359375 C6.77957212 38.04962931 1.72027665 41.53077621 -4.625 43.5 C-11.18602132 44.46101759 -16.14281798 43.17883267 -21.625 39.5 C-26.62966123 35.29153488 -30.14633583 30.97031526 -31.046875 24.44140625 C-31.35120735 17.12897618 -30.60213755 11.99967167 -25.625 6.5 C-18.20616335 -1.07795379 -10.0074382 -3.8359005 0 0 Z " fill="#BAD7E7" transform="translate(495.625,150.5)"/>
<path d="M0 0 C6.17437367 4.1007161 9.9686638 8.84560833 12 16 C12.83117857 22.64942856 11.35343145 28.96599566 7.23046875 34.28125 C1.68812466 40.13091336 -3.1757489 42.26156041 -11.3125 42.5 C-18.0257582 42.39271049 -22.15074707 40.59734369 -27 36 C-31.28969211 30.72037894 -33.60450197 25.10233491 -33.3671875 18.20703125 C-32.02433801 10.13564869 -27.52938039 4.95048919 -21.0859375 0.27734375 C-14.81699986 -3.56150009 -6.55351385 -2.74056034 0 0 Z " fill="#BAD7E7" transform="translate(1047,279)"/>
<path d="M0 0 C6.28643796 3.64613402 10.42066771 8.16476944 13 15 C14.21065385 22.5929051 12.45482526 28.77397916 8 35 C2.81585909 40.15220575 -2.50254219 42.59196326 -9.75 43.4375 C-15.95619129 43.23538266 -21.65289998 40.43719073 -25.93359375 35.9921875 C-31.46961962 28.79668146 -32.02535122 21.96933443 -31 13 C-28.3632846 6.80225938 -22.62226858 2.46446827 -17 -1 C-11.1533337 -2.94888877 -5.59438841 -2.43234278 0 0 Z " fill="#BAD7E7" transform="translate(1319,151)"/>
<path d="M0 0 C5.93406783 3.24850992 8.99247857 7.69087012 12.1875 13.5 C14.06354976 21.00419903 12.58667275 27.35344799 8.8125 34 C3.83339742 40.01273907 -2.48540654 42.52231052 -10.0625 43.5 C-16.19585442 43.21023522 -21.89095695 40.38469318 -26.12109375 35.9921875 C-31.66635047 28.78468356 -32.19401078 21.9804214 -31.1875 13 C-28.56924045 6.20798353 -23.64304568 2.0832457 -17.1875 -1 C-11.11964356 -3.02261881 -5.83672143 -2.62740633 0 0 Z " fill="#BAD7E7" transform="translate(1018.1875,151)"/>
<path d="M0 0 C6.16747519 2.89613378 10.56025816 7.19445654 13.6796875 13.27734375 C15.48247789 19.2656335 15.71138374 25.76246322 13.1171875 31.52734375 C9.82484666 37.2947777 4.98402118 41.24041723 -1.3203125 43.27734375 C-8.47172148 44.14723345 -14.75051561 44.18322625 -20.671875 39.7734375 C-25.12610145 35.73085757 -28.95729862 31.46848901 -29.65625 25.32421875 C-29.73676817 18.5284848 -29.77628763 12.71115787 -25.3203125 7.27734375 C-17.89789679 0.47853263 -10.11601444 -3.15061056 0 0 Z " fill="#BAD7E7" transform="translate(403.3203125,493.72265625)"/>
<path d="M0 0 C4.99487997 3.26623299 9.84110912 8.46453183 11.14453125 14.40234375 C12.0211217 21.35941084 10.64635722 27.32838013 7.14453125 33.40234375 C2.71373746 38.7417307 -3.06164943 41.64542491 -9.859375 42.71875 C-16.59049139 43.12709561 -21.56245238 40.33056206 -26.60546875 36.08984375 C-32.12771951 29.49382201 -33.59885953 25.22273574 -33.30078125 16.55859375 C-32.29820211 9.45259422 -28.01944382 4.92078329 -22.53515625 0.58984375 C-15.54293392 -4.35349483 -7.44827847 -3.66544002 0 0 Z " fill="#BAD7E7" transform="translate(196.85546875,151.59765625)"/>
<path d="M0 0 C5.41279177 3.15746187 9.24103503 8.78279894 11.625 14.5 C12.82597711 22.41380705 11.30177217 29.00643664 6.625 35.5 C1.73208361 40.24802365 -3.97363727 42.78339846 -10.8125 42.8125 C-17.5072493 42.66891288 -21.96491668 40.46616644 -26.984375 35.98828125 C-31.43696363 31.22301083 -32.66110927 26.45409704 -32.9375 20 C-32.7201558 13.93539577 -31.57637197 9.92249681 -27.375 5.5 C-19.59413285 -1.40287046 -10.08370833 -4.42746961 0 0 Z " fill="#BAD7E7" transform="translate(168.375,26.5)"/>
<path d="M0 0 C5.2119432 3.75182553 9.37648444 7.71982261 11.6875 13.8125 C12.75369447 21.27586128 11.81342535 26.49474498 8 33 C4.09421147 37.75028335 -0.41560902 41.51779494 -6.61328125 42.3515625 C-13.78780643 42.56987447 -19.79350672 41.955897 -25.19921875 36.97265625 C-30.5156503 31.23625524 -33.58727934 26.42922527 -33.375 18.46875 C-32.28518806 11.29415476 -28.39204383 5.45661699 -22.6796875 1.1171875 C-15.84736715 -3.42709999 -7.44798104 -3.11461025 0 0 Z " fill="#BAD7E7" transform="translate(1348,276)"/>
<path d="M0 0 C5.28671997 3.05672492 9.1153266 7.7281625 12.1875 12.9375 C13.72181153 19.92714141 13.00642677 26.12690727 9.75 32.5 C6.49298172 37.4416829 2.38076177 40.62307941 -3.25 42.5 C-17.05460385 43.45839706 -17.05460385 43.45839706 -22.25 39.5 C-28.2550098 33.59720313 -31.51197013 28.80911439 -31.6875 20.1875 C-31.58937371 13.99152545 -30.39712355 10.10285141 -26.25 5.5 C-23.8125 3.1875 -23.8125 3.1875 -21.25 1.5 C-20.38375 0.9225 -19.5175 0.345 -18.625 -0.25 C-12.54202338 -2.5029543 -6.00968974 -2.63070076 0 0 Z " fill="#BAD7E7" transform="translate(342.25,59.5)"/>
<path d="M0 0 C5.28671997 3.05672492 9.1153266 7.7281625 12.1875 12.9375 C13.72181153 19.92714141 13.00642677 26.12690727 9.75 32.5 C6.49298172 37.4416829 2.38076177 40.62307941 -3.25 42.5 C-17.08897896 43.46078359 -17.08897896 43.46078359 -22.25 39.5 C-28.29836398 33.44035176 -31.37339117 29.61293649 -31.6875 20.875 C-31.62007802 14.92960734 -30.93615328 11.08247542 -27.20703125 6.41015625 C-19.45825382 -1.15302172 -10.36352902 -4.44151244 0 0 Z " fill="#BAD7E7" transform="translate(223.25,278.5)"/>
<path d="M0 0 C4.89670731 3.44313928 9.26398738 7.14095741 11 13 C11.80265484 20.76238351 11.75905557 27.57161417 7 34 C3.76464983 37.96219596 0.95308172 40.43699582 -4 42 C-10.73925337 42.64946497 -17.26623252 43.01363723 -23 39 C-23.845625 38.484375 -24.69125 37.96875 -25.5625 37.4375 C-30.3879586 32.6120414 -33.26599869 26.73688753 -33.5625 19.875 C-33.12157742 12.6506531 -30.34050662 7.96400418 -25.0625 3.125 C-17.49730852 -2.97999827 -9.06391329 -3.79036374 0 0 Z " fill="#BAD7E7" transform="translate(1166,60)"/>
<path d="M0 0 C5.37738338 3.52273483 9.13695628 7.78250499 11 14 C12.06054084 20.86618191 10.91816003 26.27641329 7 32 C2.78029578 37.01802664 -1.54326786 40.61160313 -8.12890625 41.3515625 C-15.90574448 41.54620464 -20.80371712 40.89895424 -26.6875 35.5625 C-32.62822573 28.97953365 -33.41674313 24.37385444 -33.34375 15.5234375 C-32.71840708 9.11367255 -29.66702143 5.320483 -25 1.125 C-17.14658791 -4.43783357 -8.46755141 -4.57939005 0 0 Z " fill="#BAD7E7" transform="translate(1230,496)"/>
<path d="M0 0 C4.45298866 3.81111642 7.6015613 8.89870813 8.44140625 14.765625 C8.79133341 22.1813891 6.39329554 28.139831 1.5234375 33.75 C-3.98256333 38.85827616 -10.15666916 40.37828959 -17.56640625 40.1640625 C-24.11294714 39.27237848 -28.60692911 35.74408785 -32.578125 30.63671875 C-36.50377288 25.06009746 -37.79919714 20.58116257 -36.83203125 13.85546875 C-34.90945568 6.63674162 -30.92022111 2.04929034 -24.83203125 -2.14453125 C-16.50885558 -6.39859881 -7.54217765 -5.04810301 0 0 Z " fill="#BAD7E7" transform="translate(994.83203125,29.14453125)"/>
<path d="M0 0 C6.03213067 2.71854245 10.12982215 7.31121904 12.95703125 13.22265625 C14.37547347 20.31486737 14.24116092 26.95394569 10.58203125 33.34765625 C5.71522964 39.92904921 0.25234925 42.37104612 -7.640625 43.73046875 C-14.33359323 44.27346088 -19.34265188 41.55494336 -24.41796875 37.34765625 C-29.52487322 31.14224143 -30.83847161 25.3697024 -30.76171875 17.42578125 C-30.08451304 11.36171194 -26.83182384 7.40228095 -22.35546875 3.47265625 C-15.52392118 -1.46931433 -8.2437372 -2.22407773 0 0 Z " fill="#B9D7E7" transform="translate(352.41796875,238.65234375)"/>
<path d="M0 0 C5.52307214 3.79711209 9.36656584 8.62279036 10.75 15.203125 C11.70979438 22.12822369 10.62807956 27.11561929 6.703125 32.9296875 C2.56136801 37.75069263 -1.96951832 40.66201462 -8.28125 41.703125 C-14.69802701 41.96238872 -20.08126424 41.16043832 -25.25 37.203125 C-29.41663447 33.19459942 -32.91659111 29.1340218 -33.5859375 23.25 C-33.66653336 16.44770914 -33.70064635 10.64555884 -29.25 5.203125 C-20.80098409 -2.68144726 -10.58422749 -6.0603238 0 0 Z " fill="#BAD7E7" transform="translate(526.25,276.796875)"/>
<path d="M0 0 C5.77289305 2.60171002 10.00804662 7.04875696 12.72265625 12.73828125 C14.63830023 18.55487296 14.53640415 25.04310085 12.01953125 30.66015625 C8.30287581 37.04652194 2.59664821 41.17070616 -4.41796875 43.34765625 C-10.98534769 44.30960506 -15.92755591 43.01997186 -21.41796875 39.34765625 C-26.66190847 35.05716012 -29.8627833 30.16712654 -30.83984375 23.4453125 C-31.15849204 16.42619867 -30.12156436 11.64073643 -25.41796875 6.34765625 C-18.16090521 -0.90940729 -10.01931423 -2.70311063 0 0 Z " fill="#B9D7E7" transform="translate(376.41796875,369.65234375)"/>
<path d="M0 0 C6.196371 3.83882917 9.96903926 9.07118029 12.2578125 15.9375 C13.30838676 23.27651159 11.31179124 28.82979061 7.2578125 34.9375 C2.59378648 40.44236451 -3.68260872 42.54271564 -10.6171875 43.4375 C-16.75054192 43.14773522 -22.44564445 40.32219318 -26.67578125 35.9296875 C-32.20236133 28.74645872 -32.79363502 21.89464258 -31.7421875 12.9375 C-26.183687 0.7199905 -12.54880899 -4.86221659 0 0 Z " fill="#BAD7E7" transform="translate(1200.7421875,370.0625)"/>
<path d="M0 0 C6.43049022 2.81100733 10.10207739 8.15382227 12.95703125 14.3828125 C14.70815913 22.78822634 13.2564681 28.22932075 8.58203125 35.3828125 C4.41041157 40.31824987 -1.35952657 42.79998893 -7.6484375 43.703125 C-13.36127973 43.99810825 -17.76841908 42.73048826 -22.41796875 39.3828125 C-27.06185921 35.0375314 -30.05179506 30.74650102 -30.75390625 24.296875 C-30.83616897 17.37035435 -30.78925424 12.87494043 -26.41796875 7.3828125 C-18.676607 -0.34058785 -10.97978406 -2.80259432 0 0 Z " fill="#B9D7E7" transform="translate(1175.41796875,238.6171875)"/>
<path d="M0 0 C5.89681569 2.6575591 9.70212107 7.18598913 12.95703125 12.66015625 C14.40097387 18.86910951 14.3501393 25.47666024 11.82421875 31.39453125 C8.62686955 36.42180986 3.86566267 40.20584054 -1.41796875 42.84765625 C-8.0350512 43.95050333 -13.51174923 44.11320162 -19.49609375 40.75 C-24.58273275 37.03840772 -28.49711527 32.37174135 -30.41796875 26.34765625 C-31.32070117 19.45838255 -31.09784047 13.73209193 -26.9140625 8.03125 C-19.48938694 -0.3239332 -11.02931683 -2.97559921 0 0 Z " fill="#B9D7E7" transform="translate(471.41796875,19.65234375)"/>
<path d="M0 0 C5.70605634 3.5350652 9.92142936 8.45974869 11.859375 14.953125 C13.44035169 22.8270089 11.58914151 28.30908094 7.2578125 34.9375 C2.60256618 40.44511536 -3.68825199 42.5434438 -10.6171875 43.4375 C-16.75054192 43.14773522 -22.44564445 40.32219318 -26.67578125 35.9296875 C-32.06834917 28.92064238 -32.48068905 22.66236826 -31.7421875 13.9375 C-29.87105131 7.59141762 -24.35810467 3.21999869 -18.94140625 -0.19921875 C-13.18695984 -2.45806894 -5.71336962 -2.21372726 0 0 Z " fill="#BAD7E7" transform="translate(1295.7421875,20.0625)"/>
<path d="M0 0 C3.98319551 2.7119629 6.65296143 5.75279942 8.9375 10 C9.79134462 15.4076826 8.57705111 19.248808 5.9375 24 C2.32663566 27.82791083 -1.01600006 29.80322116 -6.3125 30.3125 C-11.64951377 29.86774885 -15.16454636 28.20392098 -18.61328125 24.19921875 C-21.64617986 19.79937992 -22.95167694 16.43385907 -22.0625 11 C-18.11670581 1.4643307 -10.21586133 -3.33579146 0 0 Z " fill="#BAD8E7" transform="translate(1071.0625,142)"/>
<path d="M0 0 C4.34731225 2.2146685 7.48432837 4.80721395 10 9 C11.41547619 13.76695852 11.47626057 17.74021687 9.4375 22.3125 C6.92782409 26.61235428 3.94128379 29.13738317 -0.91796875 30.5625 C-6.00621773 31.50731993 -9.4504212 30.624757 -14 28 C-17.12988431 24.70093276 -19.81503185 21.30054131 -20.1875 16.66796875 C-19.75421248 10.93593587 -18.61214235 7.59293372 -14.66796875 3.375 C-10.12689622 -0.36846026 -5.71086706 -0.80448736 0 0 Z " fill="#BAD8E7" transform="translate(1326,345)"/>
<path d="M0 0 C4.07334414 1.75002934 6.44438921 4.19346821 8.9375 7.8125 C10.53807791 12.61423374 11.04379248 16.50649573 9.0859375 21.18359375 C6.50918078 25.71369831 4.13312994 28.45037587 -1 30 C-5.98182348 30.64202945 -9.77818207 30.56565645 -14.375 28.4375 C-18.5827264 24.53032549 -21.16432477 20.7894382 -21.5 14.9375 C-20.77938648 9.26266856 -18.60654291 6.4152878 -14.375 2.6875 C-9.72656031 -0.61533873 -5.59936097 -0.73764037 0 0 Z " fill="#BBD8E7" transform="translate(970,96)"/>
<path d="M0 0 C4.62264458 2.42985164 7.77895825 5.550104 10.140625 10.2734375 C10.73670172 16.23420467 9.52721927 20.43544569 6.140625 25.2734375 C1.90608775 29.02677733 -2.25362472 30.5445086 -7.859375 30.2734375 C-13.09191465 28.70367561 -15.86101184 26.82650748 -18.859375 22.2734375 C-19.271875 21.6753125 -19.684375 21.0771875 -20.109375 20.4609375 C-21.30406263 16.9764319 -21.59723979 13.85272899 -20.859375 10.2734375 C-16.75972337 2.3427321 -9.26944071 -3.62209238 0 0 Z " fill="#BBD8E7" transform="translate(1207.859375,564.7265625)"/>
<path d="M0 0 C4.9710149 2.53240382 8.49430567 5.98861134 11 11 C11.61143762 16.91056366 10.91805264 20.4158042 7.47265625 25.30078125 C4.6153774 28.59764146 1.89202953 29.75616585 -2.39453125 30.30859375 C-6.66184708 30.51972032 -9.45908692 30.25042272 -13.375 28.4375 C-17.5827264 24.53032549 -20.16432477 20.7894382 -20.5 14.9375 C-19.77938648 9.26266856 -17.60654291 6.4152878 -13.375 2.6875 C-8.96198422 -0.44806384 -5.32248886 -0.64623811 0 0 Z " fill="#BBD8E7" transform="translate(1216,50)"/>
<path d="M0 0 C3.75889196 1.66353976 5.59377806 4.42342693 7.9375 7.75 C9.36771476 12.12477454 9.17439441 15.57221568 8 20 C5.86994717 23.96630527 3.77239037 26.58023248 0 29 C-4.67476717 30.21883368 -8.78555886 30.40481371 -13.375 28.875 C-17.20573004 26.13876426 -19.41413192 22.87880212 -22 19 C-22.75494951 14.39129661 -22.43664672 10.85712134 -20.3125 6.6875 C-14.20161818 -0.41433563 -9.15437779 -1.32421817 0 0 Z " fill="#BAD7E7" transform="translate(1027,349)"/>
<path d="M0 0 C5.00551071 2.40649554 8.59676953 6.00005864 11 11 C11.94592478 16.95932612 10.87934502 20.39830578 7.40234375 25.30078125 C4.70232874 28.57238718 2.69600368 29.79481732 -1.55078125 30.30859375 C-6.04928919 30.50947435 -9.27861875 30.31478455 -13.4375 28.5 C-17.7027117 24.33881785 -19.68673669 20.271159 -20.5 14.375 C-19.71639852 9.08569002 -17.32571885 6.16789518 -13.375 2.6875 C-8.95336518 -0.4541879 -5.33041027 -0.630285 0 0 Z " fill="#BAD8E7" transform="translate(1097,269)"/>
<path d="M0 0 C4.54462891 2.27231445 7.85816742 4.98971411 9.6875 9.8125 C10.36673321 14.56713249 10.60719581 17.85307458 8.3125 22.1875 C5.25968464 25.90038355 2.59200472 28.46933176 -2 30 C-6.55962546 30.37373979 -9.03477922 30.45422154 -13.1875 28.5 C-17.71328177 24.47708287 -20.55069753 20.51609381 -21.625 14.5 C-20.62318637 8.88984365 -18.00007749 4.88242588 -13.875 1 C-9.26168861 -0.60463005 -4.82241954 -0.64440555 0 0 Z " fill="#BAD7E7" transform="translate(1180,440)"/>
<path d="M0 0 C4.14309562 3.9409934 6.72801891 7.6688797 7.0625 13.5 C6.34455037 19.15385336 4.16782136 21.98879536 0 25.75 C-4.2229312 28.67356775 -8.42282669 29.09531836 -13.4375 28.4375 C-18.91334851 25.86063012 -22.02017212 21.87648773 -24.4375 16.4375 C-25.25772232 11.844255 -24.51823908 9.13351593 -22.25 5.1875 C-16.826674 -2.56440088 -8.5802287 -3.90010395 0 0 Z " fill="#BAD7E7" transform="translate(1302.4375,222.5625)"/>
<path d="M0 0 C4.50819562 2.04917983 7.1025503 4.72127581 9.296875 9.08203125 C10.55369804 12.51036521 10.87875647 15.49828862 10 19 C7.23835359 24.27739281 3.77639207 28.15155454 -2 30 C-6.31287173 30.68417041 -9.20957555 30.37196445 -13.1875 28.5 C-17.73252494 24.45997783 -20.6038855 20.50872516 -21.5625 14.4375 C-20.64458822 8.8280391 -18.53355002 5.4587427 -14.4375 1.5625 C-9.55609111 -0.65632222 -5.27642381 -0.76276171 0 0 Z " fill="#BAD7E7" transform="translate(998,221)"/>
<path d="M0 0 C3.75889196 1.66353976 5.59377806 4.42342693 7.9375 7.75 C9.36771476 12.12477454 9.17439441 15.57221568 8 20 C5.86994717 23.96630527 3.77239037 26.58023248 0 29 C-4.67476717 30.21883368 -8.78555886 30.40481371 -13.375 28.875 C-16.22828299 26.83694072 -18.0258006 24.89079197 -20 22 C-20.4125 21.401875 -20.825 20.80375 -21.25 20.1875 C-22.41984473 16.77545286 -22.55172169 13.52829427 -22 10 C-16.94960881 0.27332067 -10.38439126 -1.50214465 0 0 Z " fill="#BAD7E7" transform="translate(1146,130)"/>
<path d="M0 0 C4.60490643 2.31237758 7.31504439 5.481108 9 10.34765625 C9.84641454 16.27255801 8.92312973 19.75626201 5.47265625 24.6484375 C2.01613963 28.63672591 -1.799205 29.5529121 -6.875 29.97265625 C-12.10185562 29.82264076 -14.82496073 27.85549902 -18.43359375 24.203125 C-21.58113482 20.47474093 -22.18609976 17.76270237 -22 12.97265625 C-21.29416417 7.87873262 -18.8812838 4.62902265 -15 1.34765625 C-10.326712 -1.4809128 -5.17554227 -1.68811633 0 0 Z " fill="#BAD7E7" transform="translate(1281,485.65234375)"/>
<path d="M0 0 C4.39375413 1.88653755 7.1400454 4.07527269 9.23046875 8.4140625 C10.71346777 13.01229216 10.34100021 16.95310357 8.7265625 21.52734375 C6.00895219 25.60375921 3.4352897 28.51687879 -1.2578125 30.01171875 C-6.2657006 30.87514773 -10.02671459 30.26830989 -14.41796875 27.69140625 C-18.19691386 24.7399051 -19.80613968 21.58973877 -20.5234375 16.875 C-20.79582138 11.21452259 -20.06705233 7.67094435 -16.1484375 3.33984375 C-11.04737648 -1.06561804 -6.33210188 -1.94568222 0 0 Z " fill="#BAD7E7" transform="translate(504.1484375,345.66015625)"/>
<path d="M0 0 C4.5123727 2.0510785 7.08798155 4.72463187 9.3046875 9.07421875 C10.59794953 12.65611864 10.48416622 15.18719102 10 19 C7.25268663 24.29112204 3.71874267 28.09375244 -2 30 C-6.55962546 30.37373979 -9.03477922 30.45422154 -13.1875 28.5 C-17.7598497 24.43568915 -20.61462354 20.48353717 -21.5625 14.375 C-20.62322065 8.73932387 -17.38928085 4.44586586 -12.90234375 0.91796875 C-8.79829737 -1.06242324 -4.40189856 -0.69538189 0 0 Z " fill="#BAD7E7" transform="translate(1275,90)"/>
<path d="M0 0 C4.33535115 2.3096957 7.14863393 5.45729622 9 10 C9.72427331 14.63198048 9.44977085 18.11711647 7.3125 22.3125 C3.28818724 26.98940402 0.03264861 29.64321781 -6.1875 30.375 C-12.05525593 29.79784368 -16.00013367 27.12485798 -20 22.875 C-22.0531813 16.97210377 -22.02736749 11.13083628 -19.3125 5.5 C-13.74876933 -0.51484397 -7.89293364 -1.30504855 0 0 Z " fill="#BAD7E7" transform="translate(1253,361)"/>
<path d="M0 0 C4.6022938 2.28139457 7.35104784 5.47802841 9.0078125 10.33984375 C9.90945821 15.63701229 8.98888278 19.86823833 6.0078125 24.33984375 C3.13481419 27.72850843 1.57760576 29.02632667 -2.76953125 29.89453125 C-8.51221091 30.25661698 -12.21850034 29.8133242 -16.6796875 26.02734375 C-20.28047222 22.47128928 -21.15865993 19.53070938 -21.3046875 14.52734375 C-21.24104319 9.66916153 -20.32826025 7.02708205 -16.9921875 3.33984375 C-11.81446797 -1.23581537 -6.51973567 -2.16046143 0 0 Z " fill="#BAD7E7" transform="translate(275.9921875,269.66015625)"/>
<path d="M0 0 C4.85857844 2.29678253 7.63468979 5.17840611 10 10 C10.83512265 14.74656444 10.51132177 18.03214093 8.25 22.3125 C2.20512821 29.53276353 2.20512821 29.53276353 -2 30 C-6.68803083 30.378067 -9.02609673 30.48695164 -13.25 28.375 C-17.06790216 25.07772086 -19.6296256 22.53593084 -20.3828125 17.37890625 C-20.57035762 12.77154789 -20.33465135 9.69409169 -18.3125 5.5 C-12.87371184 -0.37977098 -7.80294563 -1.02126788 0 0 Z " fill="#BAD7E7" transform="translate(175,221)"/>
<path d="M0 0 C4.37067083 1.78317299 7.26409532 3.96513404 10 7.8125 C11.64265387 13.04845921 11.70167293 17.07963199 9.8125 22.25 C7.18561967 26.23561154 4.53058408 28.48980531 0 30 C-4.96466601 30.52124721 -8.87882824 30.53000847 -13.4375 28.375 C-17.77592298 24.3540226 -19.16611098 20.83048676 -19.4375 15 C-19.27412738 10.26929705 -18.24047455 7.58157713 -15 4 C-10.28376349 -0.16783691 -6.0836483 -1.18178979 0 0 Z " fill="#BAD7E7" transform="translate(393,50)"/>
<path d="M0 0 C4.33535115 2.3096957 7.14863393 5.45729622 9 10 C9.72427331 14.63198048 9.44977085 18.11711647 7.3125 22.3125 C3.28818724 26.98940402 0.03264861 29.64321781 -6.1875 30.375 C-12.05525593 29.79784368 -16.00013367 27.12485798 -20 22.875 C-22.0531813 16.97210377 -22.02736749 11.13083628 -19.3125 5.5 C-13.74876933 -0.51484397 -7.89293364 -1.30504855 0 0 Z " fill="#BAD7E7" transform="translate(204,349)"/>
<path d="M0 0 C4.33535115 2.3096957 7.14863393 5.45729622 9 10 C9.72427331 14.63198048 9.44977085 18.11711647 7.3125 22.3125 C3.28818724 26.98940402 0.03264861 29.64321781 -6.1875 30.375 C-12.05525593 29.79784368 -16.00013367 27.12485798 -20 22.875 C-22.0531813 16.97210377 -22.02736749 11.13083628 -19.3125 5.5 C-13.74876933 -0.51484397 -7.89293364 -1.30504855 0 0 Z " fill="#BAD7E7" transform="translate(323,130)"/>
<path d="M0 0 C4.31585512 3.04071611 7.22997247 6.07960956 8.19921875 11.40625 C8.44605336 17.05791147 7.58412757 20.57085471 3.75 24.9375 C-0.28488765 28.48331036 -3.81661409 29.24110179 -9.19140625 29.15234375 C-13.75976317 28.67557026 -16.55117726 26.71187114 -19.5625 23.375 C-22.83227458 18.65199227 -22.8670169 14.58624626 -22.25 8.9375 C-17.62881319 -0.66034953 -9.6758966 -3.16327389 0 0 Z " fill="#BAD7E7" transform="translate(149.25,97.0625)"/>
<path d="M0 0 C4.16182905 2.93219774 7.2148407 6.03451322 8.1640625 11.18359375 C8.34710197 16.11733938 7.55790936 19.7740482 4.75 23.9375 C0.04912755 28.28580701 -3.72486715 29.30606931 -9.96875 29.21484375 C-14.81774003 28.62532613 -17.47655089 25.7923648 -20.625 22.3125 C-22.82907893 17.73479761 -23.0471639 13.93197589 -22.25 8.9375 C-17.62881319 -0.66034953 -9.6758966 -3.16327389 0 0 Z " fill="#BAD7E7" transform="translate(459.25,486.0625)"/>
<path d="M0 0 C4.45411364 2.1098433 7.19291449 4.38189258 9 9 C9.68077475 14.01756206 9.59700231 17.80599537 7.3125 22.375 C3.24826325 26.98845793 0.01694059 29.64506581 -6.1875 30.375 C-12.05525593 29.79784368 -16.00013367 27.12485798 -20 22.875 C-22.0531813 16.97210377 -22.02736749 11.13083628 -19.3125 5.5 C-13.65104901 -0.62048756 -7.98275069 -0.97350618 0 0 Z " fill="#BAD7E7" transform="translate(549,142)"/>
<path d="M0 0 C1.010625 -0.00773438 2.02125 -0.01546875 3.0625 -0.0234375 C6.43210575 0.43361009 8.27706788 1.36443566 11 3.375 C14.79212864 8.60198813 15.71313709 11.95676622 15 18.375 C13.14143173 23.64094344 10.39685804 26.16895768 6 29.375 C1.74591781 30.7930274 -1.89144885 31.27258508 -6.12890625 29.46875 C-10.67237788 26.85813646 -13.43834519 24.54798157 -15 19.375 C-15.6528134 14.30949857 -15.58536236 10.5674048 -13.3125 5.9375 C-9.29849704 1.48955077 -5.99000408 -0.04584187 0 0 Z " fill="#BAD7E7" transform="translate(242,141.625)"/>
<path d="M0 0 C4.33535115 2.3096957 7.14863393 5.45729622 9 10 C9.72427331 14.63198048 9.44977085 18.11711647 7.3125 22.3125 C3.28818724 26.98940402 0.03264861 29.64321781 -6.1875 30.375 C-12.05525593 29.79784368 -16.00013367 27.12485798 -20 22.875 C-22.0531813 16.97210377 -22.02736749 11.13083628 -19.3125 5.5 C-13.74876933 -0.51484397 -7.89293364 -1.30504855 0 0 Z " fill="#BAD7E7" transform="translate(1348,11)"/>
<path d="M0 0 C4.28984244 2.33094093 7.16194231 5.47752318 9 10 C10.02539779 16.45046752 8.77147599 20.76183891 5 26 C0.88553854 29.85730762 -3.3210613 30.42059715 -8.90625 30.34765625 C-13.65914816 29.55846234 -16.80032316 26.3157746 -19.9375 22.875 C-21.66178244 18.20929457 -21.97468402 13.88705204 -21 9 C-15.98212272 0.58334717 -9.49088668 -1.41635268 0 0 Z " fill="#BAD7E7" transform="translate(358,440)"/>
<path d="M0 0 C4.45411364 2.1098433 7.19291449 4.38189258 9 9 C9.68077475 14.01756206 9.59700231 17.80599537 7.3125 22.375 C3.24826325 26.98845793 0.01694059 29.64506581 -6.1875 30.375 C-12.06327834 29.79705459 -16.0515758 27.13108897 -20 22.8125 C-21.73831485 17.92348949 -21.98710839 12.84987745 -20.2734375 7.90234375 C-15.81842167 -0.62738168 -8.73070377 -1.06471997 0 0 Z " fill="#BAD7E7" transform="translate(430,361)"/>
<path d="M0 0 C4.16182905 2.93219774 7.2148407 6.03451322 8.1640625 11.18359375 C8.34710197 16.11733938 7.55790936 19.7740482 4.75 23.9375 C0.28823961 28.06462836 -3.07794743 29.25329995 -9.19140625 29.15234375 C-13.75976317 28.67557026 -16.55117726 26.71187114 -19.5625 23.375 C-22.83227458 18.65199227 -22.8670169 14.58624626 -22.25 8.9375 C-17.62881319 -0.66034953 -9.6758966 -3.16327389 0 0 Z " fill="#BAD7E7" transform="translate(578.25,267.0625)"/>
<path d="M0 0 C4.33535115 2.3096957 7.14863393 5.45729622 9 10 C9.72427331 14.63198048 9.44977085 18.11711647 7.3125 22.3125 C3.55545264 26.67879828 0.95893854 29.10795886 -4.8125 30.0625 C-9.62083029 30.37109433 -12.53201563 29.29160252 -16.37109375 26.4375 C-19.53347036 23.6467216 -20.79527522 21.69221875 -21.30859375 17.44921875 C-21.51533522 12.81946278 -21.34648856 9.71864293 -19.3125 5.5 C-13.74876933 -0.51484397 -7.89293364 -1.30504855 0 0 Z " fill="#BAD7E7" transform="translate(1229,230)"/>
<path d="M0 0 C3.87856292 1.76916905 5.45923101 3.22489778 7.875 6.6875 C9.53066803 11.56252254 9.97644937 16.03577871 8.34375 20.9921875 C6.41996213 24.85634761 3.92838454 27.46888233 0.0625 29.41015625 C-5.00811367 30.86027493 -10.09936923 29.78504315 -14.875 27.8125 C-18.3363707 24.8601544 -20.64392335 22.21199131 -21.38671875 17.59765625 C-21.63542871 11.89447953 -20.88468239 8.40963947 -17 4 C-16.34 3.21625 -15.68 2.4325 -15 1.625 C-10.16945669 -0.99154429 -5.36498271 -0.71242318 0 0 Z " fill="#BAD7E7" transform="translate(406,230)"/>
<path d="M0 0 C4.2731748 3.86620577 6.82985117 7.02121483 7.125 12.875 C6.86198461 18.46407694 4.19132453 21.56393726 0.625 25.6875 C-2.92605221 28.68370031 -6.67134046 28.78286029 -11.28125 28.72265625 C-16.03414816 27.93346234 -19.17532316 24.6907746 -22.3125 21.25 C-24.01453167 16.64450254 -24.00789359 12.21770263 -23.375 7.375 C-21.6173733 3.58934249 -20.11904501 1.90646072 -16.75 -0.5 C-10.86649994 -2.46116669 -5.64268669 -2.71684915 0 0 Z " fill="#BAD7E7" transform="translate(479.375,222.625)"/>
<path d="M0 0 C4.28445054 2.36330902 7.15580601 5.46242502 9 10 C10.02539779 16.45046752 8.77147599 20.76183891 5 26 C0.75023426 29.78960003 -3.45036727 30.11989947 -9 30 C-14.15604438 28.64759492 -17.27997498 26.52806891 -20.1171875 22.09375 C-21.80716563 18.08566028 -21.74929892 14.23669013 -21 10 C-16.71637085 1.10323177 -9.45008599 -1.83523409 0 0 Z " fill="#BAD7E7" transform="translate(334,309)"/>
<path d="M0 0 C4.28445054 2.36330902 7.15580601 5.46242502 9 10 C10.02539779 16.45046752 8.77147599 20.76183891 5 26 C0.75023426 29.78960003 -3.45036727 30.11989947 -9 30 C-14.15604438 28.64759492 -17.27997498 26.52806891 -20.1171875 22.09375 C-21.80716563 18.08566028 -21.74929892 14.23669013 -21 10 C-16.71637085 1.10323177 -9.45008599 -1.83523409 0 0 Z " fill="#BAD7E7" transform="translate(453,90)"/>
<path d="M0 0 C4.28445054 2.36330902 7.15580601 5.46242502 9 10 C10.02539779 16.45046752 8.77147599 20.76183891 5 26 C0.75792504 29.782742 -3.45640013 30.1366681 -9 30 C-12.98280236 29.15676018 -15.55194478 27.47163708 -18.375 24.5 C-21.39367188 19.85588942 -21.65520531 15.3892944 -21 10 C-16.64478502 1.12206177 -9.48955541 -1.84289917 0 0 Z " fill="#BAD7E7" transform="translate(220,17)"/>
<path d="M0 0 C3.87856292 1.76916905 5.45923101 3.22489778 7.875 6.6875 C9.75146343 12.21264232 10.08769954 17.45308673 7.5 22.8125 C4.90708431 26.75226589 1.42484877 28.59436195 -3 30 C-7.93000922 30.69193112 -11.30333513 29.97324584 -15.421875 27.3203125 C-18.88495823 24.42298049 -20.62855672 21.1980252 -21.37890625 16.7578125 C-21.66051542 11.36181752 -20.60323132 8.1875391 -17 4 C-16.34 3.21625 -15.68 2.4325 -15 1.625 C-10.16945669 -0.99154429 -5.36498271 -0.71242318 0 0 Z " fill="#BAD7E7" transform="translate(525,11)"/>
<path d="M0 0 C4.5123727 2.0510785 7.08798155 4.72463187 9.3046875 9.07421875 C10.59794953 12.65611864 10.48416622 15.18719102 10 19 C7.25268663 24.29112204 3.71874267 28.09375244 -2 30 C-6.66507623 30.3823833 -9.04127641 30.47936179 -13.25 28.375 C-17.06209352 25.08273742 -19.51584242 22.52923922 -20.48828125 17.44921875 C-20.87919583 11.90742964 -20.29867945 8.63922918 -16.625 4.375 C-11.56728487 -0.72434241 -6.99707998 -0.6927802 0 0 Z " fill="#BAD7E7" transform="translate(1156,309)"/>
<path d="M0 0 C4.95468308 2.16204353 7.18215975 5.10605574 9.3046875 9.921875 C10.92426599 14.76241295 10.3965873 18.02505621 8.5 22.6875 C5.91182292 26.73380501 2.52929209 28.60827207 -2 30 C-6.24958906 30.7719291 -9.332458 30.333771 -13.25 28.375 C-17.06843074 25.07726436 -19.55713049 22.52741047 -20.453125 17.4140625 C-20.75893242 12.34043936 -20.52166285 8.91188864 -17.1875 4.9375 C-11.87480699 -0.42766405 -7.30872599 -0.81673442 0 0 Z " fill="#B9D7E7" transform="translate(1042,17)"/>
<path d="M0 0 C3.88658 2.0103 6.19554514 4.67090066 8.4375 8.375 C9.5861826 13.73551878 9.82675704 17.40772719 7.3125 22.25 C3.78604365 26.44362376 1.17627153 29.04748123 -4.3125 30 C-9.34680743 30.3356205 -13.02986158 29.10083046 -17 26 C-20.36022942 22.42206557 -21.26732357 18.77280716 -21.5 13.9375 C-21.29460901 9.27724934 -20.18298215 6.52708833 -17 3 C-11.59048933 -0.85995959 -6.45109567 -1.05811622 0 0 Z " fill="#BAD7E7" transform="translate(386,565)"/>
<path d="M0 0 C3.16118708 1.63913404 5.26864575 3.00269875 7.375 5.875 C8.23855538 8.81108828 8.36658209 10.94514926 8 14 C5.96006092 17.6578218 4.49580738 19.66946174 1 22 C-3.81540624 22.47364652 -6.05114955 22.49199653 -10.375 20.25 C-13.87848957 17.24700894 -14.78418903 15.6545508 -15.375 11.125 C-14.89861498 7.15512486 -13.46959574 5.10463464 -11 2 C-7.29137017 -0.47241989 -4.30094385 -0.66668695 0 0 Z " fill="#BBD8E7" transform="translate(933,31)"/>
<path d="M0 0 C3.47485838 2.07012839 5.74352278 4.11634312 7 8 C7.51555338 11.9525759 7.15914688 13.7044415 5.25 17.25 C2.10747491 21.090864 0.54408148 21.7669311 -4.3125 22.5 C-8.613167 21.91685871 -10.51869116 20.79813758 -13.60546875 17.84375 C-15.5565809 15.26412833 -16.13598556 13.16915382 -16.27734375 9.9609375 C-15.8013922 6.59575894 -14.16736144 4.52858835 -12 2 C-7.97297943 -0.68468038 -4.7315637 -0.68187737 0 0 Z " fill="#BAD7E7" transform="translate(1120,244)"/>
<path d="M0 0 C3.33600367 2.05838525 4.8262176 3.7393264 7 7 C7.5413058 10.51848769 7.69821425 12.91626867 5.7265625 15.9765625 C2.61206058 19.66838673 0.74211666 21.76088595 -4.1875 22.4375 C-8.61145498 21.92983304 -10.44794296 20.86585144 -13.60546875 17.84375 C-15.5565809 15.26412833 -16.13598556 13.16915382 -16.27734375 9.9609375 C-15.8013922 6.59575894 -14.16736144 4.52858835 -12 2 C-7.97756025 -0.6816265 -4.72734998 -0.68957829 0 0 Z " fill="#BAD7E7" transform="translate(1239,25)"/>
<path d="M0 0 C3.47485838 2.07012839 5.74352278 4.11634312 7 8 C7.57442213 11.23112451 7.57508385 13.13913829 5.7265625 15.90625 C2.6013343 19.62603381 0.77800297 21.75596038 -4.1875 22.4375 C-8.58729961 21.93260496 -10.45661042 20.91991808 -13.6015625 17.91015625 C-15.67094681 15.08353914 -16.20118525 12.65593329 -16.34765625 9.1875 C-15.73484764 5.33162562 -13.82146031 3.62461424 -11 1 C-7.53749757 -0.73125121 -3.78591771 -0.47815224 0 0 Z " fill="#BBD8E7" transform="translate(1144,375)"/>
<path d="M0 0 C3.33600367 2.05838525 4.8262176 3.7393264 7 7 C7.43513916 11.00786072 7.00002253 14.61405329 4.61328125 17.921875 C1.65766115 20.71144903 -0.49159884 21.89105689 -4.5 22.75 C-9.23055783 21.73630904 -12.0778583 19.86344785 -15 16 C-16.12552735 13.23284983 -16.41836836 10.95804105 -16 8 C-12.1977583 0.66710529 -7.89186836 -1.15118642 0 0 Z " fill="#BBD8E7" transform="translate(1263,156)"/>
<path d="M0 0 C3.08193978 1.6281946 5.26420667 3.03009062 7.375 5.8125 C8.31707395 9.10975883 8.41260656 11.5812599 8 15 C6.21523759 17.97239241 4.14791945 20.42604027 1 22 C-3.63213493 22.55512815 -6.98172127 22.6364242 -11 20.125 C-14.29094781 16.62836795 -14.38940651 13.9830084 -14.359375 9.328125 C-13.75455722 5.40995764 -11.83123243 3.69641184 -9 1 C-5.89046621 -0.5547669 -3.43733239 -0.28644437 0 0 Z " fill="#BAD7E7" transform="translate(348,499)"/>
<path d="M0 0 C3.00472887 2.14450408 4.77521607 3.79890629 5.64453125 7.45703125 C5.81936274 11.78896694 5.47608908 14.33228368 3.1875 18.0703125 C-0.37060594 21.31446791 -3.01411053 21.34188057 -7.6796875 21.296875 C-11.01690122 20.86961926 -12.66960517 19.41315551 -14.9375 17.0078125 C-17.44054378 13.25324683 -17.39030074 11.46035316 -16.9375 7.0078125 C-15.19114658 3.57978541 -13.90571293 1.56835683 -10.5625 -0.3671875 C-6.6060327 -1.30920352 -3.76381047 -1.9274352 0 0 Z " fill="#BAD7E7" transform="translate(1291.9375,280.9921875)"/>
<path d="M0 0 C3.70390021 2.02666238 5.65363011 3.48044516 8 7 C8.48692434 11.30116499 8.28241006 13.48387126 6.1875 17.3125 C3.99854341 20.00178952 2.42821517 21.76998782 -1.0859375 22.3359375 C-5.21467052 22.40639369 -7.41215089 22.3674057 -11 20.125 C-14.4278163 16.48294519 -14.5220736 13.42582607 -14.47265625 8.5546875 C-13.77270441 4.77147674 -12.07239165 3.18040698 -9 1 C-5.75038565 -0.62480718 -3.54760147 -0.64501845 0 0 Z " fill="#BAD7E7" transform="translate(467,280)"/>
<path d="M0 0 C3.57545703 0.02280993 5.54438404 0.46007439 8.3125 2.75 C11.80307072 6.41509926 11.80307072 6.41509926 11.83203125 9.36328125 C11.37239276 14.52337369 10.68368968 17.6211191 6.8125 21.375 C3.58390153 22.98929923 0.30256347 22.97070657 -3.1875 22.375 C-6.21258145 20.63897895 -8.60540069 18.53919863 -10.1875 15.375 C-10.60818924 12.31598826 -10.67778455 9.42741674 -10.1875 6.375 C-7.75 3.375 -7.75 3.375 -5.1875 1.375 C-3.63766739 -0.17483261 -2.15081622 0.09367039 0 0 Z " fill="#BAD7E7" transform="translate(106.1875,30.625)"/>
<path d="M0 0 C3.07469523 1.70251719 5.40613254 3.81226508 7 7 C7.40710593 11.23390162 7.25575965 13.51588352 5.25 17.3125 C2.06757519 21.11372964 0.50776762 21.80454864 -4.375 22.4375 C-9.1853299 21.85694294 -10.61392593 20.38607407 -14 17 C-15.72869779 13.54260443 -15.48966895 9.78024432 -15 6 C-11.14949989 -0.16080017 -6.9481676 -1.07253594 0 0 Z " fill="#BAD7E7" transform="translate(416,25)"/>
<path d="M0 0 C3.57545703 0.02280993 5.54438404 0.46007439 8.3125 2.75 C11.20828193 5.79057102 11.72714716 6.48733041 12.125 10.625 C11.75578153 15.05562166 10.64411153 16.99279734 7.8125 20.375 C4.39699489 22.96607284 0.97924536 22.87788306 -3.1875 22.375 C-6.15989241 20.59023759 -8.61354027 18.52291945 -10.1875 15.375 C-10.60818924 12.31598826 -10.67778455 9.42741674 -10.1875 6.375 C-7.75 3.375 -7.75 3.375 -5.1875 1.375 C-3.63766739 -0.17483261 -2.15081622 0.09367039 0 0 Z " fill="#BAD7E7" transform="translate(292.1875,243.625)"/>
<path d="M0 0 C3.07469523 1.70251719 5.40613254 3.81226508 7 7 C7.1346515 11.8955438 6.69296109 15.14712481 3.5625 19 C-0.48031764 22.15536987 -2.83882964 22.51611704 -8 22 C-10.97672584 20.22719439 -13.42804007 18.14391985 -15 15 C-15.55512815 10.36786507 -15.6364242 7.01827873 -13.125 3 C-9.19649309 -0.69741827 -5.2073264 -0.80381548 0 0 Z " fill="#BAD7E7" transform="translate(440,156)"/>
<path d="M0 0 C3.07469523 1.70251719 5.40613254 3.81226508 7 7 C7.37593152 11.98109259 7.1765161 15.05673864 4 19 C1.11528002 21.32380221 -0.75586624 21.96448964 -4.4375 22.5 C-9.16675851 21.83624442 -10.65681791 20.34318209 -14 17 C-15.72869779 13.54260443 -15.48966895 9.78024432 -15 6 C-11.14949989 -0.16080017 -6.9481676 -1.07253594 0 0 Z " fill="#BAD7E7" transform="translate(139,156)"/>
<path d="M0 0 C3.07469523 1.70251719 5.40613254 3.81226508 7 7 C7.1346515 11.8955438 6.69296109 15.14712481 3.5625 19 C-0.20353499 21.93934438 -2.21002479 22.46057454 -7 22 C-10.6578218 19.96006092 -12.66946174 18.49580738 -15 15 C-15.73965025 10.40728797 -15.60961194 6.97537911 -13.125 3 C-9.19649309 -0.69741827 -5.2073264 -0.80381548 0 0 Z " fill="#BAD7E7" transform="translate(321,375)"/>
<path d="M0 0 C3.22153655 2.14110303 6.25264061 4.50528122 8 8 C8.22455057 12.96940167 7.68307821 16.1632292 4.5 20.0625 C1.18357365 22.36401997 -1.90950501 22.65448792 -5.87890625 22.43359375 C-9.04410413 21.78656435 -10.81744488 20.31896482 -13 18 C-14.85855282 14.28289437 -14.57908439 10.04722719 -14 6 C-10.17080111 0.92889876 -6.31618193 -0.85025526 0 0 Z " fill="#BAD7E7" transform="translate(166,283)"/>
<path d="M0 0 C2.87029869 1.79393668 4.49131638 2.98263276 6 6 C6.53118173 9.79415519 6.85089348 13.46331178 4.953125 16.890625 C2.09654365 20.35212946 0.23255488 21.8308258 -4.1875 22.4375 C-8.58729961 21.93260496 -10.45661042 20.91991808 -13.6015625 17.91015625 C-15.67094681 15.08353914 -16.20118525 12.65593329 -16.34765625 9.1875 C-15.73484764 5.33162562 -13.82146031 3.62461424 -11 1 C-7.54260443 -0.72869779 -3.78024432 -0.48966895 0 0 Z " fill="#BAD7E7" transform="translate(962,156)"/>
<path d="M0 0 C3.22153655 2.14110303 6.25264061 4.50528122 8 8 C8.22455057 12.96940167 7.68307821 16.1632292 4.5 20.0625 C1.18357365 22.36401997 -1.90950501 22.65448792 -5.87890625 22.43359375 C-9.04410413 21.78656435 -10.81744488 20.31896482 -13 18 C-14.85855282 14.28289437 -14.57908439 10.04722719 -14 6 C-10.17080111 0.92889876 -6.31618193 -0.85025526 0 0 Z " fill="#BAD7E7" transform="translate(285,64)"/>
<path d="M0 0 C2.997157 1.52265205 5.08937718 3.22439608 7 6 C8.17869198 10.95999913 7.78397974 14.71949975 5.125 19.0625 C1.56762864 22.30598565 -1.07663388 22.33766248 -5.7421875 22.28515625 C-9.11376856 21.85933373 -10.74020743 20.46522826 -13 18 C-15.29399862 14.72285911 -15.61717397 11.93448403 -15 8 C-11.14938083 2.07223294 -7.36430044 -0.99134814 0 0 Z " fill="#BAD7E7" transform="translate(1171,499)"/>
<path d="M0 0 C2.70567626 1.82339052 4.53728718 3.07457436 6 6 C6.55512815 10.63213493 6.6364242 13.98172127 4.125 18 C0.63362508 21.28599993 -2.01736104 21.41461134 -6.671875 21.33203125 C-10.88612634 20.73100547 -12.29181427 19.31752752 -15 16 C-16.35770799 11.75812135 -16.48321153 8.30751354 -14.9375 4.125 C-10.46770696 -0.77735366 -6.33768336 -1.7284591 0 0 Z " fill="#BAD7E7" transform="translate(990,284)"/>
<path d="M0 0 C2.70567626 1.82339052 4.53728718 3.07457436 6 6 C6.55512815 10.63213493 6.6364242 13.98172127 4.125 18 C0.63362508 21.28599993 -2.01736104 21.41461134 -6.671875 21.33203125 C-10.88612634 20.73100547 -12.29181427 19.31752752 -15 16 C-16.35770799 11.75812135 -16.48321153 8.30751354 -14.9375 4.125 C-10.46770696 -0.77735366 -6.33768336 -1.7284591 0 0 Z " fill="#BAD7E7" transform="translate(1109,65)"/>
<path d="M0 0 C0 10.23 0 20.46 0 31 C-6.32871745 29.94521376 -9.59034965 28.65061538 -13.875 23.9375 C-15.64845467 19.3068128 -15.63275809 14.88949431 -15 10 C-12.09123572 3.60071859 -7.1020378 0 0 0 Z " fill="#BAD7E7" transform="translate(1366,141)"/>
<path d="M0 0 C3.72975427 1.15283314 5.35163561 1.75988138 7.4375 5.0625 C7.51316225 9.29958603 7.07036075 11.31795794 4.3125 14.5625 C0.50217129 16.55049759 -1.48214404 16.27149436 -5.5625 15.0625 C-8.11328958 12.84084456 -8.49582671 11.45420557 -9.0625 8.125 C-8.5625 5.0625 -8.5625 5.0625 -6.5 2.125 C-3.5625 0.0625 -3.5625 0.0625 0 0 Z " fill="#BCD8E8" transform="translate(431.5625,412.9375)"/>
<path d="M0 0 C3.72975427 1.15283314 5.35163561 1.75988138 7.4375 5.0625 C7.51316225 9.29958603 7.07036075 11.31795794 4.3125 14.5625 C0.50217129 16.55049759 -1.48214404 16.27149436 -5.5625 15.0625 C-8.11328958 12.84084456 -8.49582671 11.45420557 -9.0625 8.125 C-8.5625 5.0625 -8.5625 5.0625 -6.5 2.125 C-3.5625 0.0625 -3.5625 0.0625 0 0 Z " fill="#BCD8E8" transform="translate(407.5625,281.9375)"/>
<path d="M0 0 C3.72975427 1.15283314 5.35163561 1.75988138 7.4375 5.0625 C7.51423554 9.35969036 7.12317568 11.31968468 4.1875 14.5 C1.12575146 16.23962985 -0.12874271 16.83509539 -3.5625 16.0625 C-6.82850019 13.59485541 -8.34503791 12.10631805 -9.1875 8.0625 C-8.06449489 2.67207546 -5.55537361 0.09746269 0 0 Z " fill="#BCD8E8" transform="translate(550.5625,193.9375)"/>
<path d="M0 0 C3.72975427 1.15283314 5.35163561 1.75988138 7.4375 5.0625 C7.51316225 9.29958603 7.07036075 11.31795794 4.3125 14.5625 C0.50217129 16.55049759 -1.48214404 16.27149436 -5.5625 15.0625 C-8.11328958 12.84084456 -8.49582671 11.45420557 -9.0625 8.125 C-8.5625 5.0625 -8.5625 5.0625 -6.5 2.125 C-3.5625 0.0625 -3.5625 0.0625 0 0 Z " fill="#BCD8E8" transform="translate(526.5625,62.9375)"/>
<path d="M0 0 C4.07390532 1.33327811 5.42613937 2.35369882 7.4375 6.125 C7.51904726 10.12081592 6.94255321 11.59188828 4.1875 14.5 C1.12495857 16.30968357 -0.09655086 16.90483856 -3.5625 16.125 C-6.82850019 13.65735541 -8.34503791 12.16881805 -9.1875 8.125 C-8.06349817 2.72979122 -5.54235257 0.19446851 0 0 Z " fill="#BBD8E7" transform="translate(249.5625,193.875)"/>
<path d="M0 0 C2 1.625 2 1.625 3 4 C3 8.25057808 2.63212638 10.27756985 -0.1875 13.5 C-3 15 -3 15 -6.0625 15.0625 C-9.81578187 13.70492996 -11.09483297 12.50550734 -13 9 C-13.0625 5.375 -13.0625 5.375 -12 2 C-8.16011557 -1.61400887 -4.92775333 -1.36882037 0 0 Z " fill="#BBD8E7" transform="translate(1175,181)"/>
<path d="M0 0 C3 2.0625 3 2.0625 5 5 C5.06584389 8.81894541 4.85572029 10.97971812 2.375 13.9375 C-1.01168643 15.45259656 -3.33417263 15.52368962 -7 15 C-9.96135546 12.41830549 -10.86756104 10.81118865 -11.5 6.9375 C-11 4 -11 4 -9.4375 1.625 C-6.02544071 -0.64970619 -4.02388226 -0.63534983 0 0 Z " fill="#BBD8E7" transform="translate(462,538)"/>
<path d="M0 0 C2.5 2.0625 2.5 2.0625 4 5 C4 8.8137751 3.84985071 11.02424548 1.3125 13.9375 C-1.7864448 15.3613395 -3.62182812 15.55153827 -7 15 C-10.35694984 12.51877621 -11.78441871 11.05634831 -12.625 6.9375 C-12 4 -12 4 -9.9375 1.625 C-6.24576321 -0.41723737 -4.15867007 -0.68050965 0 0 Z " fill="#BBD8E7" transform="translate(1226,436)"/>
<path d="M0 0 C3.06965937 2.28591655 4.68875582 3.75502329 5.625 7.5 C4.68875582 11.24497671 3.06965937 12.71408345 0 15 C-3.5625 15.625 -3.5625 15.625 -7 15 C-9.96135546 12.41830549 -10.86756104 10.81118865 -11.5 6.9375 C-11 4 -11 4 -9.4375 1.625 C-6.02544071 -0.64970619 -4.02388226 -0.63534983 0 0 Z " fill="#BBD8E7" transform="translate(581,319)"/>
<path d="M0 0 C2.55078958 2.22165544 2.93332671 3.60829443 3.5 6.9375 C3 10 3 10 0.9375 12.9375 C-2 15 -2 15 -5.625 15 C-10.61768902 13.52068474 -10.61768902 13.52068474 -12 11 C-12.39309578 7.90437069 -12.62338668 5.95663395 -12 3 C-8.38525112 -1.49105164 -5.37641793 -1.59301272 0 0 Z " fill="#BBD8E7" transform="translate(352,181)"/>
<path d="M0 0 C4.99268902 1.47931526 4.99268902 1.47931526 6.375 4 C6.76809578 7.09562931 6.99838668 9.04336605 6.375 12 C4.3125 14.5625 4.3125 14.5625 1.375 16 C-2.4387751 16 -4.64924548 15.84985071 -7.5625 13.3125 C-8.9863395 10.2135552 -9.17653827 8.37817188 -8.625 5 C-5.91953265 1.14675862 -4.77773264 0 0 0 Z " fill="#BBD8E7" transform="translate(1349.625,63)"/>
<path d="M0 0 C2.4375 1.625 2.4375 1.625 4 4 C4.5625 6.9375 4.5625 6.9375 4 10 C1.54405875 13.32274404 0.0743356 14.77618008 -4 15.625 C-8.11289267 14.76814736 -9.59686932 13.42264067 -12 10 C-12.06584389 6.18105459 -11.85572029 4.02028188 -9.375 1.0625 C-6.02317947 -0.43699866 -3.63019782 -0.45377473 0 0 Z " fill="#BBD8E7" transform="translate(403,436)"/>
<path d="M0 0 C4.99268902 1.47931526 4.99268902 1.47931526 6.375 4 C6.76809578 7.09562931 6.99838668 9.04336605 6.375 12 C4.3125 14.5625 4.3125 14.5625 1.375 16 C-2.4387751 16 -4.64924548 15.84985071 -7.5625 13.3125 C-8.9863395 10.2135552 -9.17653827 8.37817188 -8.625 5 C-5.91953265 1.14675862 -4.77773264 0 0 0 Z " fill="#BAD8E7" transform="translate(1254.625,413)"/>
<path d="M0 0 C4.99268902 1.47931526 4.99268902 1.47931526 6.375 4 C6.90072226 7.54677411 7.06323879 10.74497633 5.3125 13.9375 C2.22420059 15.63108355 -0.10544581 16 -3.625 16 C-7.04764067 13.59686932 -8.39314736 12.11289267 -9.25 8 C-8.11814245 2.56708374 -5.59993233 0 0 0 Z " fill="#BBD8E7" transform="translate(1230.625,282)"/>
<path d="M0 0 C2.5 2.0625 2.5 2.0625 4 5 C4.0625 8.625 4.0625 8.625 3 12 C0.02911646 14.79612568 -1.54202666 15.00789609 -5.625 14.9375 C-9 14 -9 14 -10.9375 12.3125 C-12.35295627 9.23180105 -12.55879958 7.35279749 -12 4 C-8.42907404 -0.11197534 -5.32340568 -0.87110275 0 0 Z " fill="#BBD8E7" transform="translate(1345,217)"/>
<path d="M0 0 C2.9375 2.0625 2.9375 2.0625 5 5 C5 8.51955419 4.63108355 10.84920059 2.9375 13.9375 C-0.27905997 15.70141999 -3.49385409 15.73924763 -7 15 C-9.5625 12.9375 -9.5625 12.9375 -11 10 C-11 6.1862249 -10.84985071 3.97575452 -8.3125 1.0625 C-5.2135552 -0.3613395 -3.37817188 -0.55153827 0 0 Z " fill="#BBD8E7" transform="translate(1316,92)"/>
<path d="M0 0 C4.11289267 0.85685264 5.59686932 2.20235933 8 5.625 C8 9.14455419 7.63108355 11.47420059 5.9375 14.5625 C2.74497633 16.31323879 -0.45322589 16.15072226 -4 15.625 C-6.95167993 14.00633681 -7.03225355 12.51614428 -8 9.25 C-8 5.625 -8 5.625 -5.9375 2.6875 C-3 0.625 -3 0.625 0 0 Z " fill="#BBD8E7" transform="translate(1012,91.375)"/>
<path d="M0 0 C2.5 2.0625 2.5 2.0625 4 5 C4 8.8137751 3.84985071 11.02424548 1.3125 13.9375 C-1.7864448 15.3613395 -3.62182812 15.55153827 -7 15 C-9.9375 12.9375 -9.9375 12.9375 -12 10 C-12.06584389 6.18105459 -11.85572029 4.02028188 -9.375 1.0625 C-5.98831357 -0.45259656 -3.66582737 -0.52368962 0 0 Z " fill="#BBD8E7" transform="translate(340,1)"/>
<path d="M0 0 C2.9375 2.0625 2.9375 2.0625 5 5 C5.06641554 8.85210127 4.87229157 10.99848005 2.3125 13.9375 C-0.7864448 15.3613395 -2.62182812 15.55153827 -6 15 C-8.9375 12.9375 -8.9375 12.9375 -11 10 C-11.06641554 6.14789873 -10.87229157 4.00151995 -8.3125 1.0625 C-5.2135552 -0.3613395 -3.37817188 -0.55153827 0 0 Z " fill="#BBD8E7" transform="translate(220,220)"/>
<path d="M0 0 C1.9375 1.125 1.9375 1.125 3 3 C3.49704206 6.90533049 3.62822766 9.08182112 1.375 12.375 C-1.60751099 14.41566541 -3.36994269 15.0740828 -7 15 C-9.875 13 -9.875 13 -12 10 C-12.625 6.4375 -12.625 6.4375 -12 3 C-8.31376997 -1.46815761 -5.41712863 -1.50475795 0 0 Z " fill="#BBD8E7" transform="translate(1076,195)"/>
<path d="M0 0 C1.90625 0.453125 1.90625 0.453125 4.40625 2.640625 C6.03349578 5.69171083 6.59942418 7.07390089 5.90625 10.453125 C3.71534961 13.60802156 2.15593972 14.37594818 -1.53125 15.515625 C-5.09375 15.453125 -5.09375 15.453125 -8.03125 13.390625 C-10.09375 10.453125 -10.09375 10.453125 -10.65625 7.390625 C-10.09375 4.453125 -10.09375 4.453125 -8.59375 2.078125 C-5.55853198 0.10523329 -3.57177406 -0.18658521 0 0 Z " fill="#BBD8E7" transform="translate(223.09375,69.546875)"/>
<path d="M0 0 C3.4375 0.625 3.4375 0.625 5.9375 2.6875 C7.90351181 6.53760646 7.65468491 8.51700092 6.4375 12.625 C4.18332958 15.2131216 2.83229021 15.56742643 -0.5625 16.0625 C-3.5625 15.625 -3.5625 15.625 -5.875 14 C-7.98942056 11.02414885 -8.63728406 9.28941916 -8.5625 5.625 C-5.98290233 1.91682835 -4.46872665 0.78398713 0 0 Z " fill="#BBD8E7" transform="translate(518.5625,216.375)"/>
<path d="M0 0 C2 1.625 2 1.625 3 4 C2.88081199 7.39685818 2.58128695 9.94000615 0.9375 12.9375 C-2.27311736 14.69816113 -5.49995202 14.75353146 -9 14 C-11.76386182 11.5816209 -12.79835577 10.03342666 -13.5 6.4375 C-12.84193691 3.22944243 -11.49391519 2.05381251 -9 0 C-5.8168485 -1.59157575 -3.38676935 -0.77242108 0 0 Z " fill="#BAD8E7" transform="translate(194,93)"/>
<path d="M0 0 C2.4375 1.625 2.4375 1.625 4 4 C3.93957505 7.44422213 3.60093625 9.90417507 1.9375 12.9375 C-1.27905997 14.70141999 -4.49385409 14.73924763 -8 14 C-10.5625 11.9375 -10.5625 11.9375 -12 9 C-12.0625 5.375 -12.0625 5.375 -11 2 C-7.35599888 -1.33165817 -4.62469785 -1.4759674 0 0 Z " fill="#BBD8E7" transform="translate(1198,312)"/>
<path d="M0 0 C2.4375 1.5625 2.4375 1.5625 4 4 C4.56288002 7.94016013 4.60396028 10.05782196 2.4375 13.4375 C-0.94217804 15.60396028 -3.05983987 15.56288002 -7 15 C-9.4375 13.4375 -9.4375 13.4375 -11 11 C-11.56288002 7.05983987 -11.60396028 4.94217804 -9.4375 1.5625 C-6.05782196 -0.60396028 -3.94016013 -0.56288002 0 0 Z " fill="#BAD7E7" transform="translate(1222,103)"/>
<path d="M0 0 C2.375 1.5625 2.375 1.5625 4 4 C4.56288002 7.94016013 4.60396028 10.05782196 2.4375 13.4375 C-0.94217804 15.60396028 -3.05983987 15.56288002 -7 15 C-9.4375 13.4375 -9.4375 13.4375 -11 11 C-11.5625 7.5 -11.5625 7.5 -11 4 C-7.69532025 0.20933794 -4.96286146 -0.84474238 0 0 Z " fill="#BAD7E7" transform="translate(280,322)"/>
<path d="M0 0 C2.375 1 2.375 1 4 3 C4.56153595 7.42209561 4.79893062 9.72171101 2.4375 13.5 C-0.97532932 15.60020266 -3.06688873 15.63210717 -7 15 C-9.95156784 12.4268383 -10.85637189 10.78197528 -11.5625 6.9375 C-11 4 -11 4 -8.875 1.625 C-5.51718047 -0.27289799 -3.79721069 -0.56554202 0 0 Z " fill="#BAD7E7" transform="translate(1043,220)"/>
<path d="M0 0 C2.4375 1.5625 2.4375 1.5625 4 4 C4.56288002 7.94016013 4.60396028 10.05782196 2.4375 13.4375 C-0.96719488 15.61999672 -3.03430012 15.63734462 -7 15 C-9.96135546 12.41830549 -10.86756104 10.81118865 -11.5 6.9375 C-11 4 -11 4 -9.4375 1.625 C-6.06489221 -0.62340519 -3.97487617 -0.56783945 0 0 Z " fill="#BAD7E7" transform="translate(399,103)"/>
<path d="M0 0 C2.4375 1.5625 2.4375 1.5625 4 4 C4.5625 7.5 4.5625 7.5 4 11 C1.41830549 13.96135546 -0.18881135 14.86756104 -4.0625 15.5 C-7 15 -7 15 -9.375 13.4375 C-11.62340519 10.06489221 -11.56783945 7.97487617 -11 4 C-8.11188513 -0.5054592 -5.11821063 -0.73117295 0 0 Z " fill="#BAD7E7" transform="translate(1047,70)"/>
<path d="M0 0 C1.9375 1 1.9375 1 3 3 C3.75471698 9.79245283 3.75471698 9.79245283 1.4375 13.5 C-1.97532932 15.60020266 -4.06688873 15.63210717 -8 15 C-10.5 12.9375 -10.5 12.9375 -12 10 C-12 6.22089384 -11.83289714 3.99306967 -9.375 1.0625 C-6.06762954 -0.4171131 -3.57993132 -0.39053796 0 0 Z " fill="#BAD7E7" transform="translate(1163,1)"/>
<path d="M0 0 C2.375 1.5625 2.375 1.5625 4 4 C4.56288002 7.94016013 4.60396028 10.05782196 2.4375 13.4375 C-0.94217804 15.60396028 -3.05983987 15.56288002 -7 15 C-9.4375 13.4375 -9.4375 13.4375 -11 11 C-11.5625 7.5 -11.5625 7.5 -11 4 C-7.69532025 0.20933794 -4.96286146 -0.84474238 0 0 Z " fill="#BAD7E7" transform="translate(1103,322)"/>
<path d="M0 0 C2.4375 1.5625 2.4375 1.5625 4 4 C4.7363388 9.99590164 4.7363388 9.99590164 2.625 12.875 C-0.68229719 15.16466729 -2.98378354 15.40162165 -7 15 C-9.375 13.4375 -9.375 13.4375 -11 11 C-11.56288002 7.05983987 -11.60396028 4.94217804 -9.4375 1.5625 C-6.05782196 -0.60396028 -3.94016013 -0.56288002 0 0 Z " fill="#BAD7E7" transform="translate(1285,538)"/>
<path d="M0 0 C2.5881216 2.25417042 2.94242643 3.60520979 3.4375 7 C3 10 3 10 1.5 12.375 C-2.24099229 14.80664499 -4.57426418 14.49174842 -9 14 C-11 13 -11 13 -12 11 C-12.39309578 7.90437069 -12.62338668 5.95663395 -12 3 C-8.38525112 -1.49105164 -5.37641793 -1.59301272 0 0 Z " fill="#BAD7E7" transform="translate(376,312)"/>
<path d="M0 0 C2.5881216 2.25417042 2.94242643 3.60520979 3.4375 7 C3 10 3 10 1.5 12.375 C-2.24099229 14.80664499 -4.57426418 14.49174842 -9 14 C-11 13 -11 13 -12 11 C-12.39309578 7.90437069 -12.62338668 5.95663395 -12 3 C-8.38525112 -1.49105164 -5.37641793 -1.59301272 0 0 Z " fill="#BAD7E7" transform="translate(495,93)"/>
<path d="M0 0 C1.9375 1.6875 1.9375 1.6875 3 4 C2.92857348 7.49989972 2.66021066 9.29263143 0.25 11.875 C-2.49727007 13.24863504 -3.96787906 13.53062116 -7 13 C-9.375 11.4375 -9.375 11.4375 -11 9 C-11 5.18846501 -10.80074051 2.94902579 -8.3125 0 C-5.10029355 -1.38906225 -3.3063364 -1.05521374 0 0 Z " fill="#FAFCFD" transform="translate(1223,497)"/>
<path d="M0 0 C3.03247414 2.13092777 3.87637987 3.34069266 4.5625 7 C4 10 4 10 1.875 12.4375 C-1 14 -1 14 -4.1875 13.875 C-7 13 -7 13 -9 11 C-9.27922749 8.06811139 -9.47143881 5.84609353 -9 3 C-6.40390408 -0.07685443 -3.9263577 -0.6871126 0 0 Z " fill="#FAFCFD" transform="translate(399,496)"/>
<path d="M0 0 C2 2 2 2 2.375 5.9375 C2.29486433 8.88115036 2.26281734 9.68851278 0.3125 12 C-2.4593226 13.19862599 -4.01380309 13.52258446 -7 13 C-9.375 11.4375 -9.375 11.4375 -11 9 C-11 5.18846501 -10.80074051 2.94902579 -8.3125 0 C-5.16357865 -1.36169572 -3.25905865 -0.92103831 0 0 Z " fill="#FBFCFD" transform="translate(1342,278)"/>
<path d="M0 0 C3 0.5625 3 0.5625 5.4375 2.6875 C7 5.5625 7 5.5625 6.9375 8.75 C6 11.5625 6 11.5625 3 13.5625 C-0.5 13.9375 -0.5 13.9375 -4 13.5625 C-6.38460953 11.48558202 -6.8959746 10.15693084 -7.4375 7.0625 C-6.64602694 2.53979681 -4.41632799 0.8280615 0 0 Z " fill="#FBFCFD" transform="translate(981,27.4375)"/>
<path d="M0 0 C2.91289646 0.08473881 3.77703881 0.15009119 6.125 2 C7.39552894 5.21867331 7.04263473 7.08454769 6.0625 10.375 C4.9375 12.3125 4.9375 12.3125 3.0625 13.375 C-0.69031005 13.30798553 -3.02624514 13.14387129 -5.9375 10.6875 C-7.29919572 7.53857865 -6.85853831 5.63405865 -5.9375 2.375 C-3.9375 0.375 -3.9375 0.375 0 0 Z " fill="#FBFCFD" transform="translate(213.9375,280.625)"/>
<path d="M0 0 C2.375 2.125 2.375 2.125 4 5 C4 8.54334961 3.64741834 10.25666783 1.3125 12.9375 C-1.83903422 14.38550221 -3.70949263 13.929926 -7 13 C-9 11 -9 11 -9.375 7.0625 C-9.29486433 4.11884964 -9.26281734 3.31148722 -7.3125 1 C-4.51074186 -0.21157109 -3.01312323 -0.60262465 0 0 Z " fill="#FBFCFD" transform="translate(518,277)"/>
<path d="M0 0 C2.4375 1.5625 2.4375 1.5625 4 4 C3.9375 7.625 3.9375 7.625 3 11 C-0.49124017 13.32749345 -1.89222251 13.50299316 -6 13 C-8.7912125 11.01677007 -9.82597224 9.87013879 -10.5 6.5 C-9.33827182 0.69135908 -5.5534724 -0.92557873 0 0 Z " fill="#FBFDFD" transform="translate(1170,241)"/>
<path d="M0 0 C2.91289646 0.08473881 3.77703881 0.15009119 6.125 2 C7.39552894 5.21867331 7.04263473 7.08454769 6.0625 10.375 C4.9375 12.3125 4.9375 12.3125 3.0625 13.375 C-0.69031005 13.30798553 -3.02624514 13.14387129 -5.9375 10.6875 C-7.29919572 7.53857865 -6.85853831 5.63405865 -5.9375 2.375 C-3.9375 0.375 -3.9375 0.375 0 0 Z " fill="#FBFCFD" transform="translate(332.9375,61.625)"/>
<path d="M0 0 C3.625 0.375 3.625 0.375 6.125 2 C7.625 4.375 7.625 4.375 7.5625 7.4375 C6.17211802 11.79403019 6.17211802 11.79403019 3.625 13.375 C0.00918138 13.91352618 -1.71611489 13.79736225 -4.8125 11.8125 C-6.375 9.375 -6.375 9.375 -6.25 5.75 C-5.09824284 1.3075081 -4.60142226 0.51126914 0 0 Z " fill="#FBFDFD" transform="translate(1309.375,152.625)"/>
<path d="M0 0 C2.7912125 1.98322993 3.82597224 3.12986121 4.5 6.5 C3.82597224 9.87013879 2.7912125 11.01677007 0 13 C-3.70758991 13.61793165 -5.2935202 13.50197249 -8.375 11.3125 C-10 9 -10 9 -10.5 6.5 C-9.33827182 0.69135908 -5.5534724 -0.92557873 0 0 Z " fill="#FBFDFD" transform="translate(1289,22)"/>
<path d="M0 0 C2 1.5625 2 1.5625 3 4 C2.875 7.625 2.875 7.625 2 11 C-1.46923881 13.31282587 -2.92205575 13.42478586 -7 13 C-8.875 11.9375 -8.875 11.9375 -10 10 C-10.36528977 6.5906288 -10.6140629 4.11976176 -8.9375 1.0625 C-5.84506242 -0.63335287 -3.44485259 -0.43060657 0 0 Z " fill="#FCFDFE" transform="translate(372,372)"/>
<path d="M0 0 C2 1.5625 2 1.5625 3 4 C2.875 7.625 2.875 7.625 2 11 C-1.46923881 13.31282587 -2.92205575 13.42478586 -7 13 C-8.875 11.9375 -8.875 11.9375 -10 10 C-10.36528977 6.5906288 -10.6140629 4.11976176 -8.9375 1.0625 C-5.84506242 -0.63335287 -3.44485259 -0.43060657 0 0 Z " fill="#FCFDFE" transform="translate(348,241)"/>
<path d="M0 0 C2 1.5625 2 1.5625 3 4 C2.875 7.625 2.875 7.625 2 11 C-1.46923881 13.31282587 -2.92205575 13.42478586 -7 13 C-8.875 11.9375 -8.875 11.9375 -10 10 C-10.36528977 6.5906288 -10.6140629 4.11976176 -8.9375 1.0625 C-5.84506242 -0.63335287 -3.44485259 -0.43060657 0 0 Z " fill="#FCFDFE" transform="translate(467,22)"/>
<path d="M0 0 C2.4375 1.625 2.4375 1.625 4 4 C3.93498241 7.18586196 3.51914046 9.18030454 1.8125 11.875 C-0.94344924 13.58558918 -2.82625484 13.45339217 -6 13 C-8.7912125 11.01677007 -9.82597224 9.87013879 -10.5 6.5 C-9.33827182 0.69135908 -5.5534724 -0.92557873 0 0 Z " fill="#FCFDFE" transform="translate(1194,372)"/>
<path d="M0 0 C2.4375 1.5625 2.4375 1.5625 4 4 C3.9375 7.625 3.9375 7.625 3 11 C-0.46923881 13.31282587 -1.92205575 13.42478586 -6 13 C-7.875 11.9375 -7.875 11.9375 -9 10 C-9.63316583 4.09045226 -9.63316583 4.09045226 -7.875 1.0625 C-5.06487736 -0.52990283 -3.17235276 -0.45319325 0 0 Z " fill="#FCFDFE" transform="translate(490,153)"/>
<path d="M0 0 C3.5625 0.3125 3.5625 0.3125 5.5 1.375 C7.1765629 4.43226176 6.92778977 6.9031288 6.5625 10.3125 C5.4375 12.25 5.4375 12.25 3.5625 13.3125 C-0.05331862 13.85102618 -1.77861489 13.73486225 -4.875 11.75 C-6.4375 9.3125 -6.4375 9.3125 -6.3125 5.6875 C-5.14951423 1.20169775 -4.66151968 0.42377452 0 0 Z " fill="#FCFDFE" transform="translate(1008.4375,152.6875)"/>
<path d="M0 0 C2.7912125 1.98322993 3.82597224 3.12986121 4.5 6.5 C3.82597224 9.87013879 2.7912125 11.01677007 0 13 C-3.17235276 13.45319325 -5.06487736 13.52990283 -7.875 11.9375 C-9.64273274 8.8930714 -9.36823916 6.4368988 -9 3 C-6.84532543 -0.71082843 -4.00794956 -0.57256422 0 0 Z " fill="#FCFDFE" transform="translate(189,153)"/>
<path d="M0 0 C3.5625 0.3125 3.5625 0.3125 5.5 1.375 C7.19585287 4.46743758 6.99310657 6.86764741 6.5625 10.3125 C4.48558202 12.69710953 3.15693084 13.2084746 0.0625 13.75 C-2.4375 13.3125 -2.4375 13.3125 -4.8125 11.75 C-6.4375 9.3125 -6.4375 9.3125 -6.3125 5.6875 C-5.14951423 1.20169775 -4.66151968 0.42377452 0 0 Z " fill="#FCFDFE" transform="translate(1036.4375,280.6875)"/>
<path d="M0 0 C3.5625 0.3125 3.5625 0.3125 5.5 1.375 C7.19585287 4.46743758 6.99310657 6.86764741 6.5625 10.3125 C4.48558202 12.69710953 3.15693084 13.2084746 0.0625 13.75 C-2.4375 13.3125 -2.4375 13.3125 -4.8125 11.75 C-6.4375 9.3125 -6.4375 9.3125 -6.3125 5.6875 C-5.14951423 1.20169775 -4.66151968 0.42377452 0 0 Z " fill="#FCFDFE" transform="translate(1155.4375,61.6875)"/>
<path d="M0 0 C1.9375 1.125 1.9375 1.125 3 3 C2.66666667 9.33333333 2.66666667 9.33333333 0 12 C-6.00458716 12.54587156 -6.00458716 12.54587156 -8.9375 10.9375 C-10.63335287 7.84506242 -10.43060657 5.44485259 -10 2 C-7.00946104 -1.68066334 -4.3259629 -1.28858469 0 0 Z " fill="#FCFDFE" transform="translate(162,29)"/>
<path d="M0 0 C2.375 0.75 2.375 0.75 3.375 1.75 C3.5625 4.1875 3.5625 4.1875 3.375 6.75 C2.715 7.41 2.055 8.07 1.375 8.75 C-1.75 8.375 -1.75 8.375 -4.625 7.75 C-5.3125 5.4375 -5.3125 5.4375 -5.625 2.75 C-3.9659358 -0.015107 -3.22812218 -0.30744021 0 0 Z " fill="#F8FBFC" transform="translate(1175.625,443.25)"/>
<path d="M0 0 C2.5625 0.1875 2.5625 0.1875 4.5625 2.1875 C4.1875 5.3125 4.1875 5.3125 3.5625 8.1875 C1.25 8.875 1.25 8.875 -1.4375 9.1875 C-3.3125 8.0625 -3.3125 8.0625 -4.4375 6.1875 C-3.87661439 0.29820111 -3.87661439 0.29820111 0 0 Z " fill="#F8FBFC" transform="translate(1246.4375,361.8125)"/>
<path d="M0 0 C2.5625 0.1875 2.5625 0.1875 4.5625 2.1875 C4.2355244 4.80330479 3.74210932 6.82828137 2.5625 9.1875 C-2.1875 8.4375 -2.1875 8.4375 -4.4375 6.1875 C-3.71780303 0.28598485 -3.71780303 0.28598485 0 0 Z " fill="#F8FBFC" transform="translate(1020.4375,351.8125)"/>
<path d="M0 0 C4.55555556 0.55555556 4.55555556 0.55555556 6 2 C6.1875 4.4375 6.1875 4.4375 6 7 C5.34 7.66 4.68 8.32 4 9 C0.70285207 8.67028521 -0.6226839 8.3773161 -3 6 C-2.63318342 3.06546739 -2.13562754 2.13562754 0 0 Z " fill="#F8FBFC" transform="translate(1292,224)"/>
<path d="M0 0 C1.1446875 0.3403125 1.1446875 0.3403125 2.3125 0.6875 C2.9375 3.5625 2.9375 3.5625 3.3125 6.6875 C2.6525 7.3475 1.9925 8.0075 1.3125 8.6875 C-1.8125 8.3125 -1.8125 8.3125 -4.6875 7.6875 C-5.375 5.375 -5.375 5.375 -5.6875 2.6875 C-4.0011022 -0.12316299 -3.27764429 -0.38112143 0 0 Z " fill="#F8FBFC" transform="translate(993.6875,224.3125)"/>
<path d="M0 0 C3.125 0.375 3.125 0.375 6 1 C6.6875 3.3125 6.6875 3.3125 7 6 C5.875 7.875 5.875 7.875 4 9 C1.3125 8.6875 1.3125 8.6875 -1 8 C-1.625 5.125 -1.625 5.125 -2 2 C-1.34 1.34 -0.68 0.68 0 0 Z " fill="#F8FBFC" transform="translate(1062,143)"/>
<path d="M0 0 C2.5625 0.1875 2.5625 0.1875 4.5625 2.1875 C4.2355244 4.80330479 3.74210932 6.82828137 2.5625 9.1875 C-2.1875 8.4375 -2.1875 8.4375 -4.4375 6.1875 C-3.71780303 0.28598485 -3.71780303 0.28598485 0 0 Z " fill="#F8FBFC" transform="translate(1139.4375,132.8125)"/>
<path d="M0 0 C2.5625 0.1875 2.5625 0.1875 4.5625 2.1875 C4.23278521 5.48464793 3.9398161 6.8101839 1.5625 9.1875 C-1.37203261 8.82068342 -2.30187246 8.32312754 -4.4375 6.1875 C-3.71780303 0.28598485 -3.71780303 0.28598485 0 0 Z " fill="#F8FBFC" transform="translate(1202.4375,567.8125)"/>
<path d="M0 0 C1.1446875 0.3403125 1.1446875 0.3403125 2.3125 0.6875 C3 3 3 3 3.3125 5.6875 C2.1875 7.5625 2.1875 7.5625 0.3125 8.6875 C-2.375 8.375 -2.375 8.375 -4.6875 7.6875 C-5.375 5.375 -5.375 5.375 -5.6875 2.6875 C-4.0011022 -0.12316299 -3.27764429 -0.38112143 0 0 Z " fill="#F9FCFD" transform="translate(1223.6875,231.3125)"/>
<path d="M0 0 C2.5625 0.1875 2.5625 0.1875 4.5625 2.1875 C4.23278521 5.48464793 3.9398161 6.8101839 1.5625 9.1875 C-1.37203261 8.82068342 -2.30187246 8.32312754 -4.4375 6.1875 C-3.71780303 0.28598485 -3.71780303 0.28598485 0 0 Z " fill="#F8FBFC" transform="translate(241.4375,142.8125)"/>
<path d="M0 0 C2.93453261 0.36681658 3.86437246 0.86437246 6 3 C5.44444444 7.55555556 5.44444444 7.55555556 4 9 C1.5625 9.1875 1.5625 9.1875 -1 9 C-1.66 8.34 -2.32 7.68 -3 7 C-2.67028521 3.70285207 -2.3773161 2.3773161 0 0 Z " fill="#F9FCFD" transform="translate(1035,18)"/>
<path d="M0 0 C1.1446875 0.3403125 1.1446875 0.3403125 2.3125 0.6875 C3 3 3 3 3.3125 5.6875 C2.1875 7.5625 2.1875 7.5625 0.3125 8.6875 C-2.375 8.375 -2.375 8.375 -4.6875 7.6875 C-5.375 5.375 -5.375 5.375 -5.6875 2.6875 C-4.0011022 -0.12316299 -3.27764429 -0.38112143 0 0 Z " fill="#F9FBFD" transform="translate(1342.6875,12.3125)"/>
<path d="M0 0 C0.6875 2.3125 0.6875 2.3125 1 5 C-0.1875 6.875 -0.1875 6.875 -2 8 C-4.97397616 7.72963853 -5.85446026 7.14553974 -8 5 C-7.75 2.4375 -7.75 2.4375 -7 0 C-4.3333581 -1.33332095 -2.83319697 -0.67102033 0 0 Z " fill="#FAFCFD" transform="translate(1325,350)"/>
<path d="M0 0 C4.55555556 0.55555556 4.55555556 0.55555556 6 2 C6.1875 4.4375 6.1875 4.4375 6 7 C5.34 7.66 4.68 8.32 4 9 C0.875 8.625 0.875 8.625 -2 8 C-2.125 5.125 -2.125 5.125 -2 2 C-1.34 1.34 -0.68 0.68 0 0 Z " fill="#FAFCFD" transform="translate(1268,93)"/>
<path d="M0 0 C4.55555556 0.55555556 4.55555556 0.55555556 6 2 C6.1875 4.4375 6.1875 4.4375 6 7 C5.34 7.66 4.68 8.32 4 9 C0.875 8.625 0.875 8.625 -2 8 C-2.125 5.125 -2.125 5.125 -2 2 C-1.34 1.34 -0.68 0.68 0 0 Z " fill="#FAFCFD" transform="translate(212,18)"/>
<path d="M0 0 C2.5625 0.1875 2.5625 0.1875 4.5625 2.1875 C4.00694444 6.74305556 4.00694444 6.74305556 2.5625 8.1875 C0.125 8.375 0.125 8.375 -2.4375 8.1875 C-3.0975 7.5275 -3.7575 6.8675 -4.4375 6.1875 C-3.71780303 0.28598485 -3.71780303 0.28598485 0 0 Z " fill="#FAFCFD" transform="translate(1274.4375,486.8125)"/>
<path d="M0 0 C4.55555556 0.55555556 4.55555556 0.55555556 6 2 C6.1875 4.4375 6.1875 4.4375 6 7 C5.34 7.66 4.68 8.32 4 9 C-0.55555556 8.44444444 -0.55555556 8.44444444 -2 7 C-2.1875 4.5625 -2.1875 4.5625 -2 2 C-1.34 1.34 -0.68 0.68 0 0 Z " fill="#FAFCFD" transform="translate(422,362)"/>
<path d="M0 0 C4.55555556 0.55555556 4.55555556 0.55555556 6 2 C6.1875 4.4375 6.1875 4.4375 6 7 C5.34 7.66 4.68 8.32 4 9 C-0.55555556 8.44444444 -0.55555556 8.44444444 -2 7 C-2.1875 4.5625 -2.1875 4.5625 -2 2 C-1.34 1.34 -0.68 0.68 0 0 Z " fill="#FAFCFD" transform="translate(196,352)"/>
<path d="M0 0 C2.5625 0.1875 2.5625 0.1875 4.5625 2.1875 C4.00694444 6.74305556 4.00694444 6.74305556 2.5625 8.1875 C0.125 8.375 0.125 8.375 -2.4375 8.1875 C-3.0975 7.5275 -3.7575 6.8675 -4.4375 6.1875 C-3.71780303 0.28598485 -3.71780303 0.28598485 0 0 Z " fill="#FAFCFD" transform="translate(1092.4375,270.8125)"/>
<path d="M0 0 C2.5625 0.1875 2.5625 0.1875 4.5625 2.1875 C4.00694444 6.74305556 4.00694444 6.74305556 2.5625 8.1875 C0.125 8.375 0.125 8.375 -2.4375 8.1875 C-3.0975 7.5275 -3.7575 6.8675 -4.4375 6.1875 C-3.71780303 0.28598485 -3.71780303 0.28598485 0 0 Z " fill="#FAFCFD" transform="translate(269.4375,270.8125)"/>
<path d="M0 0 C4.55555556 0.55555556 4.55555556 0.55555556 6 2 C6.1875 4.4375 6.1875 4.4375 6 7 C5.34 7.66 4.68 8.32 4 9 C-0.55555556 8.44444444 -0.55555556 8.44444444 -2 7 C-2.1875 4.5625 -2.1875 4.5625 -2 2 C-1.34 1.34 -0.68 0.68 0 0 Z " fill="#FBFCFD" transform="translate(398,231)"/>
<path d="M0 0 C4.55555556 0.55555556 4.55555556 0.55555556 6 2 C6.1875 4.4375 6.1875 4.4375 6 7 C5.34 7.66 4.68 8.32 4 9 C-0.55555556 8.44444444 -0.55555556 8.44444444 -2 7 C-2.1875 4.5625 -2.1875 4.5625 -2 2 C-1.34 1.34 -0.68 0.68 0 0 Z " fill="#FAFCFD" transform="translate(469,224)"/>
<path d="M0 0 C4.55555556 0.55555556 4.55555556 0.55555556 6 2 C6.1875 4.4375 6.1875 4.4375 6 7 C5.34 7.66 4.68 8.32 4 9 C-0.55555556 8.44444444 -0.55555556 8.44444444 -2 7 C-2.1875 4.5625 -2.1875 4.5625 -2 2 C-1.34 1.34 -0.68 0.68 0 0 Z " fill="#FAFCFD" transform="translate(168,224)"/>
<path d="M0 0 C2.5625 0.1875 2.5625 0.1875 4.5625 2.1875 C4.00694444 6.74305556 4.00694444 6.74305556 2.5625 8.1875 C0.125 8.375 0.125 8.375 -2.4375 8.1875 C-3.0975 7.5275 -3.7575 6.8675 -4.4375 6.1875 C-3.71780303 0.28598485 -3.71780303 0.28598485 0 0 Z " fill="#FAFCFD" transform="translate(388.4375,51.8125)"/>
<path d="M0 0 C4.55555556 0.55555556 4.55555556 0.55555556 6 2 C6.1875 4.4375 6.1875 4.4375 6 7 C5.34 7.66 4.68 8.32 4 9 C-0.55555556 8.44444444 -0.55555556 8.44444444 -2 7 C-2.1875 4.5625 -2.1875 4.5625 -2 2 C-1.34 1.34 -0.68 0.68 0 0 Z " fill="#FAFCFD" transform="translate(517,12)"/>
<path d="M0 0 C4.55555556 0.55555556 4.55555556 0.55555556 6 2 C6.1875 4.4375 6.1875 4.4375 6 7 C5.34 7.66 4.68 8.32 4 9 C-0.55555556 8.44444444 -0.55555556 8.44444444 -2 7 C-2.1875 4.5625 -2.1875 4.5625 -2 2 C-1.34 1.34 -0.68 0.68 0 0 Z " fill="#FAFCFD" transform="translate(378,568)"/>
<path d="M0 0 C1.875 0.6875 1.875 0.6875 2.875 1.6875 C3.0625 4.125 3.0625 4.125 2.875 6.6875 C2.215 7.3475 1.555 8.0075 0.875 8.6875 C-3.68055556 8.13194444 -3.68055556 8.13194444 -5.125 6.6875 C-5.375 4.25 -5.375 4.25 -5.125 1.6875 C-2.125 -0.3125 -2.125 -0.3125 0 0 Z " fill="#FBFDFD" transform="translate(353.125,443.3125)"/>
<path d="M0 0 C2.625 0.375 2.625 0.375 5 1 C5.625 3.3125 5.625 3.3125 6 6 C5.01 7.485 5.01 7.485 4 9 C-0.875 8.125 -0.875 8.125 -2 7 C-2.1875 4.5625 -2.1875 4.5625 -2 2 C-1.34 1.34 -0.68 0.68 0 0 Z " fill="#FAFCFD" transform="translate(315,133)"/>
<path d="M0 0 C2.5625 0.1875 2.5625 0.1875 4.5625 2.1875 C4.00694444 6.74305556 4.00694444 6.74305556 2.5625 8.1875 C0.125 8.375 0.125 8.375 -2.4375 8.1875 C-3.0975 7.5275 -3.7575 6.8675 -4.4375 6.1875 C-3.71780303 0.28598485 -3.71780303 0.28598485 0 0 Z " fill="#FBFCFD" transform="translate(964.4375,99.8125)"/>
<path d="M0 0 C1.875 0.6875 1.875 0.6875 2.875 1.6875 C3.0625 4.125 3.0625 4.125 2.875 6.6875 C2.215 7.3475 1.555 8.0075 0.875 8.6875 C-3.68055556 8.13194444 -3.68055556 8.13194444 -5.125 6.6875 C-5.375 4.25 -5.375 4.25 -5.125 1.6875 C-2.125 -0.3125 -2.125 -0.3125 0 0 Z " fill="#FBFDFD" transform="translate(448.125,93.3125)"/>
<path d="M0 0 C2.625 0.375 2.625 0.375 5 1 C5.6875 3.3125 5.6875 3.3125 6 6 C4.8125 7.875 4.8125 7.875 3 9 C0.86254078 8.74853421 -0.45925779 8.54074221 -2 7 C-2.1875 4.5625 -2.1875 4.5625 -2 2 C-1.34 1.34 -0.68 0.68 0 0 Z " fill="#FBFCFD" transform="translate(541,143)"/>
<path d="M0 0 C1.4540625 0.0309375 1.4540625 0.0309375 2.9375 0.0625 C3.5625 2.9375 3.5625 2.9375 3.9375 6.0625 C1.9375 8.0625 1.9375 8.0625 -0.625 8.25 C-3.0625 8.0625 -3.0625 8.0625 -4.0625 7.0625 C-4.1875 4.0625 -4.1875 4.0625 -4.0625 1.0625 C-3.0625 0.0625 -3.0625 0.0625 0 0 Z " fill="#FCFDFE" transform="translate(452.0625,486.9375)"/>
<path d="M0 0 C3 0.125 3 0.125 4 1.125 C4.1875 3.5625 4.1875 3.5625 4 6.125 C3.34 6.785 2.68 7.445 2 8.125 C-1.125 7.75 -1.125 7.75 -4 7.125 C-4.04254356 5.12545254 -4.04080783 3.12458364 -4 1.125 C-3 0.125 -3 0.125 0 0 Z " fill="#FBFDFD" transform="translate(1151,312.875)"/>
<path d="M0 0 C4.55555556 0.55555556 4.55555556 0.55555556 6 2 C6.125 4.5 6.125 4.5 6 7 C5 8 5 8 2 8.125 C-1 8 -1 8 -2 7 C-2.1875 4.5625 -2.1875 4.5625 -2 2 C-1.34 1.34 -0.68 0.68 0 0 Z " fill="#FDFDFE" transform="translate(497,349)"/>
<path d="M0 0 C3 0.125 3 0.125 4 1.125 C4.1875 3.5625 4.1875 3.5625 4 6.125 C3.34 6.785 2.68 7.445 2 8.125 C-2.55555556 7.56944444 -2.55555556 7.56944444 -4 6.125 C-4.125 3.625 -4.125 3.625 -4 1.125 C-3 0.125 -3 0.125 0 0 Z " fill="#FCFDFE" transform="translate(328,312.875)"/>
<path d="M0 0 C2.5625 0.1875 2.5625 0.1875 4.5625 2.1875 C4.00694444 6.74305556 4.00694444 6.74305556 2.5625 8.1875 C0.0625 8.3125 0.0625 8.3125 -2.4375 8.1875 C-3.4375 7.1875 -3.4375 7.1875 -3.5625 4.1875 C-3.39891479 0.26145498 -3.39891479 0.26145498 0 0 Z " fill="#FCFDFE" transform="translate(570.4375,267.8125)"/>
<path d="M0 0 C2.4375 0.1875 2.4375 0.1875 3.4375 1.1875 C3.625 3.625 3.625 3.625 3.4375 6.1875 C1.4375 8.1875 1.4375 8.1875 -1.125 8.375 C-3.5625 8.1875 -3.5625 8.1875 -4.5625 7.1875 C-4.75 4.75 -4.75 4.75 -4.5625 2.1875 C-2.5625 0.1875 -2.5625 0.1875 0 0 Z " fill="#FDFDFE" transform="translate(142.5625,99.8125)"/>
<path d="M0 0 C2.5 0.125 2.5 0.125 3.5 1.125 C3.625 4.125 3.625 4.125 3.5 7.125 C2.5 8.125 2.5 8.125 0.0625 8.3125 C-2.5 8.125 -2.5 8.125 -4.5 6.125 C-3.77607362 0.18880368 -3.77607362 0.18880368 0 0 Z " fill="#FCFDFE" transform="translate(1211.5,51.875)"/>
<path d="M0 0 C0.99 0 1.98 0 3 0 C3 2.97 3 5.94 3 9 C-1 7 -1 7 -1.875 4.5 C-1.91625 3.675 -1.9575 2.85 -2 2 C-1.34 1.34 -0.68 0.68 0 0 Z " fill="#F9FBFD" transform="translate(1363,143)"/>
</svg>
